<?xml version="1.0" encoding="utf-8"?>
<!-- Generator: Adobe Illustrator 22.0.1, SVG Export Plug-In . SVG Version: 6.00 Build 0)  -->
<svg version="1.1" id="Layer_1" xmlns="http://www.w3.org/2000/svg" xmlns:xlink="http://www.w3.org/1999/xlink" x="0px" y="0px"
	 viewBox="0 0 1000 1000" style="enable-background:new 0 0 1000 1000;" xml:space="preserve">
<style type="text/css">
	.st0{fill-rule:evenodd;clip-rule:evenodd;fill:#FFFFFF;}
	.st1{fill:#1C429C;}
	.st2{fill-rule:evenodd;clip-rule:evenodd;fill:url(#SVGID_1_);}
	.st3{fill:#FFFFFF;}
	.st4{fill-rule:evenodd;clip-rule:evenodd;fill:#00ADF0;}
	.st5{fill-rule:evenodd;clip-rule:evenodd;fill:#96D1A6;}
	.st6{fill-rule:evenodd;clip-rule:evenodd;fill:#6EBF8C;}
	.st7{fill-rule:evenodd;clip-rule:evenodd;fill:#2BAB6E;}
	.st8{fill-rule:evenodd;clip-rule:evenodd;fill:#00A652;}
</style>
<g>
	<path class="st0" d="M869.1,261.2c-0.5,125.9,81.6,303.9-46,417.9C709.7,780.4,466.4,719,122.1,721
		c-53.6-261.4,9.3-368.8,81.8-417.9C334.8,214.4,528.5,307.9,869.1,261.2L869.1,261.2z"/>
	<path class="st1" d="M871.4,261.2c-0.1,34,5.8,72,12,111.4c16.7,106.7,35.1,224.3-58.8,308.1c-79.2,70.7-220.3,62.9-414.3,52
		c-86-4.8-182.3-10.2-288.1-9.6l-1.8,0l-0.4-1.8C93,590.4,95.4,497.8,113.5,431.8c18.3-66.3,52.5-105.8,89.1-130.6
		c71.9-48.7,162-43,284.3-35.3c102.1,6.4,226.8,14.3,381.9-6.9l2.6-0.4L871.4,261.2L871.4,261.2z M878.9,373.3
		c-6-38.6-11.9-75.8-12-109.5c-154.4,20.9-278.5,13-380.2,6.6c-121.5-7.7-210.9-13.3-281.5,34.5c-35.9,24.3-69.4,63-87.3,128.1
		c-17.9,65.1-20.3,156.4,6.1,285.7c105.3-0.5,201.1,4.8,286.6,9.6c192.9,10.8,333.3,18.6,411.1-50.9
		C913.6,595.2,895.4,478.9,878.9,373.3L878.9,373.3z"/>
	<linearGradient id="SVGID_1_" gradientUnits="userSpaceOnUse" x1="118.4937" y1="500.6501" x2="876.3976" y2="500.6501">
		<stop  offset="0" style="stop-color:#1573D0"/>
		<stop  offset="0.5138" style="stop-color:#1C429C"/>
		<stop  offset="0.66" style="stop-color:#1C459F"/>
		<stop  offset="0.7862" style="stop-color:#1A4FAA"/>
		<stop  offset="0.9045" style="stop-color:#1860BC"/>
		<stop  offset="1" style="stop-color:#1573D0"/>
	</linearGradient>
	<path class="st2" d="M852.6,282.8c-0.5,114.2,77,281.2-45.3,384.6c-108.7,91.9-342,33-672.1,38c-45.8-237.1,10.1-336.8,77.6-383.9
		C338.4,233.9,526.1,325.1,852.6,282.8L852.6,282.8z"/>
	<g>
		<path class="st3" d="M308.5,426.6c-6.8,0-12.3,5.5-12.3,12.3c0,6.8,5.5,12.3,12.3,12.3c6.8,0,12.3-5.5,12.3-12.3
			C320.8,432.1,315.3,426.6,308.5,426.6z"/>
		<rect x="481.8" y="321.3" class="st3" width="22.3" height="97.5"/>
		<path class="st3" d="M275.4,426.6c-6.8,0-12.3,5.5-12.3,12.3c0,6.8,5.5,12.3,12.3,12.3c6.8,0,12.3-5.5,12.3-12.3
			C287.8,432.1,282.3,426.6,275.4,426.6z"/>
		<path class="st3" d="M414.4,386.6l0-7c0-17.2,37.9-16.4,48.3-4.8l0-16.9c-37.2-13.2-71,2.9-71,21.7l0,9.3c0,5.2,2.3,9.8,7.7,14.6
			h-18.7c-13,0-2.7-51.1-32.1-59.3l-36.2,0l11.3,59.3h-50c-6.5,0-12.7-3.9-12.7-15.8v-54.8l-22.3,29.6v26.2
			c0,18.8,15.1,30.1,30.5,30.1h79.7l-11.3-58.9l8.9,0c13.4,14.1,6.2,58.9,26.6,58.9h91.4v-15.4H434
			C422.5,403.4,414.4,398.5,414.4,386.6z"/>
		<rect x="734.1" y="321.3" class="st3" width="22.3" height="97.5"/>
		<path class="st3" d="M697.5,385.7c0,12-7.1,17.6-15,17.6h-22.2c1.6-21.7-18.2-37.1-38.7-37.1c-21.4,0-38.8,15.6-38.8,34.8
			c0,0.8,0,1.5,0.1,2.3h-25.3c-6,0-11.3-2.4-11.3-11.5v-10.2H524v47.8c0,23.4-34.8,23.1-49,4.4l0,21.4
			c20.6,14.3,71.3,10.6,71.3-25.8v-13.5c4,2.3,9.7,3,14.5,3h27.5c6.8,10.2,19.2,17,33.3,17c14.2,0,26.6-6.8,33.3-17h32.7
			c17.8,0,32.1-12.6,32.1-32v-65.5h-22.3V385.7z M621.4,421.9c-8.4,0-15.1-9.3-15.1-20.7s6.8-20.7,15.1-20.7
			c8.4,0,15.1,9.3,15.1,20.7S629.7,421.9,621.4,421.9z"/>
	</g>
	<path class="st4" d="M443.7,539c-26.8-15.5-68.1-29.4-99.8-34.8c-11.9-1.9-14.3-7.1-0.4-13.4c7.4-3.8,19.3-2.2,26.4,0.9
		c25,11.1,56.7,26,79.2,42.9L443.7,539L443.7,539z"/>
	<path class="st4" d="M454.2,530.2c-20.9-15.8-46.6-30.7-68.5-39.8c-11.1-4.6-12.2-10.3,2.8-13.1c8.1-1.9,19.3,2.4,25.4,7.1
		c14.7,11.3,31.9,25.1,47.1,39.6L454.2,530.2L454.2,530.2z"/>
	<path class="st4" d="M465.4,524.3c-13.5-19.1-21.8-30.2-36.6-40.6c-19.6-13.8,1.1-13.7,9.8-10.7c5.6,1.9,9.5,7.8,12.4,12.3
		c8.9,13.7,12.9,19.4,21.3,35.9L465.4,524.3L465.4,524.3z"/>
	<path class="st3" d="M277.8,568.7h18l47.9,103.1h-23.5l-17.9-38c-1.6,5.9-7,12.6-13,12.6H258l-12,25.4H228L277.8,568.7L277.8,568.7
		z M745.2,574.3c6.6,0,11.9,5.3,11.9,11.9c0,6.6-5.3,11.9-11.9,11.9c-6.6,0-11.9-5.3-11.9-11.9C733.3,579.6,738.6,574.3,745.2,574.3
		L745.2,574.3z M723.4,608v64.2h-19.5v-7.3c-20.2,18.2-55.7,9.8-55.7-27.4C648.2,591.9,697.6,594.3,723.4,608L723.4,608z
		 M668.6,637.1c0,20.8,19.9,25.5,35.4,14.5v-34.3C691.7,611.2,668.6,609.8,668.6,637.1L668.6,637.1z M735.5,608.2l20.2-8v71.9h-20.2
		V608.2L735.5,608.2z M602,601.9h19.7l-0.2,6.1c5-6.7,17.3-9.1,29-8l-2.9,16.4c-5-2.5-27-0.2-27,6.4l0.1,49.2H602V601.9L602,601.9z
		 M590.2,608v64.2h-19.5v-7.3c-20.2,18.2-55.7,9.8-55.7-27.4C515,591.9,564.3,594.3,590.2,608L590.2,608z M535.3,637.1
		c0,20.8,19.9,25.5,35.4,14.5v-34.3C558.5,611.2,535.3,609.8,535.3,637.1L535.3,637.1z M383.5,601.5h19.5v8.1
		c13.3-13,36.6-15.2,46.7,2c8-10.5,30.7-15.4,43.5-8.4c4.3,2.3,7.4,5.4,9.2,9.1c1.9,3.8,2.8,9.9,2.8,18.3v41.3h-20.1l0-47.9
		c0-18-29.3-6-32.2-0.9l0,48.8h-18.5l0-47.7c0-17.1-29.7-4.5-30.9-1.6l0,49.3h-20V601.5L383.5,601.5z M347.1,568.4h19.6v83.7
		c0,7.3,5.4,8.9,10,8.9l-11.8,12.4h-3.3c-5.8,0-14.5-9.1-14.5-18.3V568.4L347.1,568.4z M282.7,594.1l-18.5,39H302L282.7,594.1
		L282.7,594.1z"/>
	<path class="st5" d="M469.1,566.3c87.9-34.4,177.3-41.8,267.4-36.9L701,505.5c-81.9,8.5-162.5,22.8-239.1,55.7L469.1,566.3
		L469.1,566.3z"/>
	<path class="st6" d="M461.1,558.3c72.5-36.5,148.6-51.5,224.9-61l-31.7-11.9c-69.9,15.5-139.5,31.7-199.9,69.3L461.1,558.3
		L461.1,558.3z"/>
	<path class="st7" d="M451.6,552c46.2-31.7,119.2-60.5,186.7-69.7l-27.9-6.4c-66.5,15.3-120.4,39.4-165.5,72.5L451.6,552L451.6,552z
		"/>
	<path class="st8" d="M441.2,546.4c31.7-25.1,96.1-63,153.3-72.7l-36.5-2.4c-48.2,16.9-87.8,39-123.5,71.5L441.2,546.4L441.2,546.4z
		"/>
	<path class="st4" d="M463.8,564.7c-31.3-21.3-111-33.9-165.9-32.4c-15.7,0.7-20.1-5.4-3.9-17.1c8.5-6.7,24.1-7.8,33.9-5.6
		c45.6,10.1,107.6,25.8,139.1,50.5C474.2,565.9,469.5,568.6,463.8,564.7L463.8,564.7z"/>
</g>
</svg>
