<?xml version="1.0" encoding="iso-8859-1"?>
<!-- Generator: Adobe Illustrator 26.0.1, SVG Export Plug-In . SVG Version: 6.00 Build 0)  -->
<svg version="1.1" id="Layer_1" xmlns="http://www.w3.org/2000/svg" xmlns:xlink="http://www.w3.org/1999/xlink" x="0px" y="0px"
	 viewBox="0 0 500 500" style="enable-background:new 0 0 500 500;" xml:space="preserve">
<g id="watermark_1_">
	<g>
		<g id="watermark" style="opacity:0.61;">
			<g>
				<g>
					<g>
						<g>
							<polygon style="fill:#FFFFFF;" points="213.765,461.172 208.204,474.017 205.268,474.017 199.726,461.172 202.938,461.172 
								206.846,470.347 210.81,461.172 							"/>
						</g>
						<g>
							<path style="fill:#FFFFFF;" d="M223.507,469.741h-7.469c0.275,1.23,1.321,1.982,2.826,1.982c1.046,0,1.798-0.312,2.477-0.954
								l1.523,1.651c-0.917,1.046-2.294,1.597-4.074,1.597c-3.413,0-5.634-2.147-5.634-5.083c0-2.954,2.257-5.083,5.267-5.083
								c2.899,0,5.138,1.945,5.138,5.12C223.562,469.191,223.526,469.503,223.507,469.741 M216.002,468.071h4.863
								c-0.202-1.248-1.138-2.055-2.422-2.055C217.139,466.016,216.204,466.805,216.002,468.071"/>
						</g>
						<g>
							<path style="fill:#FFFFFF;" d="M224.735,468.934c0-2.973,2.294-5.083,5.505-5.083c2.074,0,3.707,0.899,4.423,2.514
								l-2.22,1.193c-0.532-0.936-1.321-1.358-2.221-1.358c-1.45,0-2.587,1.009-2.587,2.734c0,1.725,1.138,2.734,2.587,2.734
								c0.899,0,1.688-0.404,2.221-1.358l2.22,1.211c-0.716,1.578-2.349,2.495-4.423,2.495
								C227.029,474.017,224.735,471.907,224.735,468.934"/>
						</g>
						<g>
							<path style="fill:#FFFFFF;" d="M242.828,473.393c-0.587,0.422-1.45,0.624-2.331,0.624c-2.33,0-3.688-1.193-3.688-3.542
								v-4.055h-1.523v-2.202h1.523v-2.404h2.863v2.404h2.459v2.202h-2.459v4.019c0,0.844,0.458,1.303,1.229,1.303
								c0.422,0,0.844-0.128,1.156-0.367L242.828,473.393z"/>
						</g>
					</g>
					<g>
						<path style="fill:#FFFFFF;" d="M262.474,463.997v2.643c-0.238-0.018-0.422-0.037-0.642-0.037
							c-1.578,0-2.624,0.862-2.624,2.753v4.661h-2.863v-9.873h2.734v1.303C259.776,464.493,260.951,463.997,262.474,463.997"/>
					</g>
					<g>
						<path style="fill:#FFFFFF;" d="M263.299,472.53l1.009-2.239c1.083,0.789,2.697,1.339,4.239,1.339
							c1.762,0,2.477-0.587,2.477-1.376c0-2.404-7.469-0.752-7.469-5.524c0-2.184,1.762-4,5.413-4c1.615,0,3.267,0.385,4.459,1.138
							l-0.918,2.257c-1.193-0.679-2.422-1.009-3.56-1.009c-1.761,0-2.44,0.66-2.44,1.468c0,2.367,7.468,0.734,7.468,5.45
							c0,2.147-1.78,3.982-5.45,3.982C266.492,474.017,264.437,473.411,263.299,472.53"/>
					</g>
					<g>
						<path style="fill:#FFFFFF;" d="M285.428,469.741h-7.469c0.275,1.23,1.321,1.982,2.826,1.982c1.046,0,1.798-0.312,2.477-0.954
							l1.523,1.651c-0.918,1.046-2.294,1.597-4.074,1.597c-3.413,0-5.634-2.147-5.634-5.083c0-2.954,2.257-5.083,5.267-5.083
							c2.9,0,5.138,1.945,5.138,5.12C285.484,469.191,285.447,469.503,285.428,469.741 M277.923,468.071h4.863
							c-0.202-1.248-1.138-2.055-2.422-2.055C279.061,466.016,278.125,466.805,277.923,468.071"/>
					</g>
					<g>
						<path style="fill:#FFFFFF;" d="M297.007,469.741h-7.469c0.275,1.23,1.321,1.982,2.826,1.982c1.046,0,1.798-0.312,2.477-0.954
							l1.523,1.651c-0.918,1.046-2.294,1.597-4.074,1.597c-3.413,0-5.634-2.147-5.634-5.083c0-2.954,2.257-5.083,5.267-5.083
							c2.899,0,5.138,1.945,5.138,5.12C297.062,469.191,297.025,469.503,297.007,469.741 M289.501,468.071h4.863
							c-0.202-1.248-1.138-2.055-2.422-2.055C290.639,466.016,289.703,466.805,289.501,468.071"/>
					</g>
					<g>
						<polygon style="fill:#FFFFFF;" points="303.208,470.145 301.831,471.503 301.831,474.017 298.969,474.017 298.969,460.401 
							301.831,460.401 301.831,468.108 306.016,464.144 309.429,464.144 305.318,468.328 309.796,474.017 306.327,474.017 						"/>
					</g>
					<g>
						<path style="fill:#FFFFFF;" d="M256.601,475.359L256.601,475.359l-2.86-2.86c-0.435,0.508-0.953,0.943-1.534,1.284
							c-0.092,0.069-0.186,0.136-0.283,0.199l3.027,3.027c0.456,0.456,1.195,0.456,1.65,0
							C257.057,476.554,257.057,475.815,256.601,475.359"/>
					</g>
					<g>
						<path style="fill:#FFFFFF;" d="M249.984,463.244c0.221-0.173,0.495-0.281,0.797-0.281c0.042,0,0.083,0.002,0.124,0.006
							c-0.214-0.156-0.478-0.249-0.764-0.249c-0.395,0-0.744,0.18-0.981,0.458c-0.051,0-0.1,0.006-0.151,0.008
							c0.039-0.077,0.064-0.162,0.064-0.255c0-0.234-0.143-0.434-0.346-0.519c0.087,0.126,0.138,0.279,0.138,0.445
							c0,0.122-0.031,0.237-0.081,0.341c-2.811,0.201-5.03,2.539-5.03,5.4c0,2.993,2.426,5.42,5.42,5.42
							c2.993,0,5.42-2.426,5.42-5.42C254.595,465.879,252.593,463.635,249.984,463.244 M247.983,464.656
							c0.435,0,0.844,0.112,1.199,0.309c0.374-0.245,0.82-0.387,1.299-0.387c0.711,0,1.348,0.312,1.784,0.806
							c-0.435-0.379-1.004-0.61-1.627-0.61c-0.449,0-0.87,0.12-1.234,0.329c-0.079,0.046-0.156,0.096-0.229,0.15
							c-0.065-0.048-0.133-0.093-0.204-0.134c-0.369-0.219-0.8-0.344-1.26-0.344c-0.3,0-0.588,0.054-0.854,0.152
							C247.196,464.754,247.578,464.656,247.983,464.656 M251.772,469.098c0.115,0.305,0.181,0.634,0.181,0.979
							c0,1.534-1.244,2.777-2.778,2.777c-1.534,0-2.777-1.243-2.777-2.777c0-0.345,0.066-0.674,0.181-0.979
							c-0.62-0.382-1.035-1.064-1.035-1.846c0-1.197,0.971-2.168,2.168-2.168c0.565,0,1.078,0.218,1.463,0.572
							c0.386-0.354,0.899-0.572,1.464-0.572c1.197,0,2.168,0.971,2.168,2.168C252.807,468.034,252.392,468.716,251.772,469.098"/>
					</g>
					<g>
						<path style="fill:#FFFFFF;" d="M251.666,467.061c0,0.497-0.404,0.901-0.901,0.901c-0.497,0-0.901-0.404-0.901-0.901
							s0.404-0.901,0.901-0.901c0.101,0,0.197,0.017,0.287,0.047c-0.03,0.062-0.045,0.132-0.045,0.204
							c0,0.273,0.221,0.494,0.494,0.494c0.05,0,0.099-0.008,0.146-0.022C251.66,466.941,251.666,467,251.666,467.061"/>
					</g>
					<g>
						<path style="fill:#FFFFFF;" d="M248.255,467.061c0,0.376-0.305,0.681-0.681,0.681c-0.376,0-0.681-0.305-0.681-0.681
							s0.305-0.681,0.681-0.681c0.076,0,0.149,0.013,0.217,0.035c-0.023,0.047-0.034,0.1-0.034,0.155
							c0,0.206,0.167,0.374,0.374,0.374c0.038,0,0.075-0.006,0.11-0.017C248.25,466.97,248.255,467.015,248.255,467.061"/>
					</g>
					<g>
						<g>
							<g>
								<rect x="242.908" y="467.83" style="fill:#FFFFFF;" width="0.616" height="0.616"/>
							</g>
							<g>
								<rect x="254.827" y="467.83" style="fill:#FFFFFF;" width="0.616" height="0.616"/>
							</g>
							<g>
								<path style="fill:#FFFFFF;" d="M255.205,468.082h-0.14c0-3.248-2.642-5.89-5.89-5.89c-3.248,0-5.89,2.642-5.89,5.89h-0.14
									c0-1.611,0.627-3.125,1.766-4.264c1.139-1.139,2.653-1.766,4.264-1.766c1.611,0,3.125,0.627,4.264,1.766
									C254.578,464.957,255.205,466.471,255.205,468.082"/>
							</g>
						</g>
						<g>
							<rect x="248.868" y="461.814" style="fill:#FFFFFF;" width="0.616" height="0.616"/>
						</g>
						<g>
							<rect x="244.95" y="462.052" style="fill:#FFFFFF;" width="8.45" height="0.14"/>
						</g>
						<g>
							<path style="fill:#FFFFFF;" d="M245.174,462.15c0,0.108-0.088,0.196-0.196,0.196c-0.108,0-0.196-0.088-0.196-0.196
								c0-0.108,0.088-0.196,0.196-0.196C245.086,461.954,245.174,462.042,245.174,462.15"/>
						</g>
						<g>
							<path style="fill:#FFFFFF;" d="M253.596,462.15c0,0.108-0.088,0.196-0.196,0.196c-0.108,0-0.196-0.088-0.196-0.196
								c0-0.108,0.088-0.196,0.196-0.196C253.509,461.954,253.596,462.042,253.596,462.15"/>
						</g>
					</g>
				</g>
				<g>
					<path style="fill:#FFFFFF;" d="M314.356,473.409c0,1.559-2.364,1.559-2.364,0C311.993,471.851,314.356,471.851,314.356,473.409
						z"/>
				</g>
				<g>
					<g>
						<g>
							<path style="fill:#FFFFFF;" d="M161.739,466.549l1.772,6.088l1.855-6.088h2.215l-2.823,8.14h-2.33l-0.837-2.396l-0.722-2.708
								l-0.722,2.708l-0.837,2.396h-2.33l-2.839-8.14h2.231l1.855,6.088l1.756-6.088H161.739z"/>
						</g>
						<g>
							<path style="fill:#FFFFFF;" d="M176.713,466.549l1.772,6.088l1.855-6.088h2.215l-2.823,8.14h-2.33l-0.837-2.396l-0.722-2.708
								l-0.722,2.708l-0.837,2.396h-2.33l-2.839-8.14h2.231l1.855,6.088l1.756-6.088H176.713z"/>
						</g>
						<g>
							<path style="fill:#FFFFFF;" d="M191.687,466.549l1.772,6.088l1.855-6.088h2.215l-2.823,8.14h-2.33l-0.837-2.396l-0.722-2.708
								l-0.722,2.708l-0.837,2.396h-2.33l-2.839-8.14h2.231l1.855,6.088l1.756-6.088H191.687z"/>
						</g>
					</g>
					<g>
						<path style="fill:#FFFFFF;" d="M200.908,473.52c0,1.559-2.364,1.559-2.364,0C198.545,471.962,200.908,471.962,200.908,473.52z
							"/>
					</g>
					<g>
						<path style="fill:#FFFFFF;" d="M322.71,473.409c-0.935,0.919-1.919,1.28-3.117,1.28c-2.346,0-4.3-1.411-4.3-4.282
							s1.953-4.284,4.3-4.284c1.149,0,2.035,0.329,2.921,1.199l-1.264,1.329c-0.476-0.428-1.066-0.64-1.623-0.64
							c-1.346,0-2.33,0.985-2.33,2.396c0,1.542,1.05,2.362,2.297,2.362c0.64,0,1.28-0.18,1.772-0.672L322.71,473.409z"/>
					</g>
					<g>
						<path style="fill:#FFFFFF;" d="M331.805,470.472c0,2.33-1.591,4.217-4.217,4.217c-2.626,0-4.201-1.887-4.201-4.217
							c0-2.314,1.609-4.217,4.185-4.217C330.149,466.255,331.805,468.158,331.805,470.472z M325.389,470.472
							c0,1.231,0.739,2.38,2.199,2.38c1.46,0,2.199-1.149,2.199-2.38c0-1.215-0.854-2.396-2.199-2.396
							C326.144,468.077,325.389,469.258,325.389,470.472z"/>
					</g>
					<g>
						<path style="fill:#FFFFFF;" d="M338.572,474.689v-4.332c0-1.068-0.559-2.035-1.658-2.035c-1.082,0-1.722,0.967-1.722,2.035
							v4.332h-2.003v-8.107h1.855l0.148,0.985c0.426-0.82,1.362-1.116,2.133-1.116c0.969,0,1.937,0.394,2.396,1.51
							c0.723-1.149,1.658-1.478,2.708-1.478c2.297,0,3.43,1.412,3.43,3.84v4.365h-2.003v-4.365c0-1.066-0.442-1.97-1.526-1.97
							c-1.082,0-1.756,0.935-1.756,2.003v4.332H338.572z"/>
					</g>
				</g>
			</g>
		</g>
		<g style="opacity:0.61;">
			<g>
				<g>
					<path style="fill:#FFFFFF;" d="M345.988,431.299c-0.006-1.224-0.959-2.121-2.189-2.14c-0.924-0.014-0.832,0.12-0.834-0.867
						c-0.003-1.097-0.007-2.194,0.003-3.292c0.003-0.379-0.112-0.691-0.362-0.976c-2.342-2.668-4.678-5.342-7.019-8.011
						c-0.12-0.137-0.275-0.244-0.414-0.366c-6.214,0-12.427,0-18.641,0c-0.794,0.293-1.14,0.868-1.138,1.709
						c0.01,3.748,0.004,7.496,0.004,11.243c0,0.556-0.003,0.589-0.55,0.551c-1.497-0.102-2.516,0.986-2.497,2.492
						c0.044,3.476,0.013,6.953,0.014,10.429c0.001,1.58,0.867,2.443,2.45,2.449c0.582,0.002,0.582,0.002,0.582,0.6
						c0,2.219-0.001,4.438,0.001,6.657c0.001,1.192,0.58,1.771,1.768,1.771c8.013,0.001,16.027,0.001,24.04,0
						c1.168,0,1.755-0.583,1.757-1.745c0.002-2.256,0-4.512,0.001-6.768c0-0.512,0.002-0.511,0.52-0.515
						c0.271-0.002,0.541,0.008,0.809-0.058c0.996-0.246,1.69-1.044,1.694-2.069C346.003,438.696,346.005,434.997,345.988,431.299z
						 M317.537,417.162c5.337,0,10.674,0,16.01,0c0.548,0,0.554,0.007,0.554,0.561c0.001,2.243-0.001,4.486,0.001,6.73
						c0.001,0.811,0.249,1.059,1.06,1.059c1.91,0.001,3.821,0,5.731,0.001c0.458,0,0.479,0.021,0.481,0.483
						c0.003,0.887,0.002,1.775,0,2.662c-0.001,0.477-0.024,0.498-0.504,0.499c-3.895,0.001-7.79,0-11.684,0
						c-3.882,0-7.765,0-11.647,0c-0.55,0-0.552-0.001-0.552-0.561c-0.001-3.624-0.001-7.247,0-10.871
						C316.987,417.166,316.991,417.162,317.537,417.162z M340.822,451.579c-3.883,0.001-7.766,0-11.65,0c-3.871,0-7.742,0-11.613,0
						c-0.572,0-0.574-0.002-0.574-0.579c-0.001-1.997-0.001-3.994,0.001-5.991c0-0.464,0.023-0.486,0.478-0.487
						c7.803-0.001,15.607-0.001,23.41,0c0.478,0,0.499,0.02,0.499,0.503c0.002,1.997,0.001,3.994,0,5.991
						C341.375,451.574,341.37,451.579,340.822,451.579z"/>
				</g>
				<g>
					<g>
						<rect x="327.418" y="417.053" style="fill:#FFFFFF;" width="1.757" height="1.054"/>
					</g>
					<g>
						<rect x="325.662" y="418.107" style="fill:#FFFFFF;" width="1.757" height="1.054"/>
					</g>
					<g>
						<rect x="327.418" y="419.161" style="fill:#FFFFFF;" width="1.757" height="1.054"/>
					</g>
					<g>
						<rect x="325.662" y="420.215" style="fill:#FFFFFF;" width="1.757" height="1.054"/>
					</g>
					<g>
						<rect x="327.418" y="421.269" style="fill:#FFFFFF;" width="1.757" height="1.054"/>
					</g>
					<g>
						<rect x="325.662" y="422.323" style="fill:#FFFFFF;" width="1.757" height="1.054"/>
					</g>
					<g>
						<rect x="327.418" y="423.378" style="fill:#FFFFFF;" width="1.757" height="1.054"/>
					</g>
					<g>
						<rect x="325.662" y="424.432" style="fill:#FFFFFF;" width="1.757" height="1.054"/>
					</g>
					<g>
						<rect x="327.418" y="425.486" style="fill:#FFFFFF;" width="1.757" height="1.054"/>
					</g>
					<g>
						<rect x="325.662" y="426.54" style="fill:#FFFFFF;" width="1.757" height="1.054"/>
					</g>
					<g>
						<rect x="327.418" y="427.594" style="fill:#FFFFFF;" width="1.757" height="1.054"/>
					</g>
					<g>
						<rect x="325.662" y="428.648" style="fill:#FFFFFF;" width="1.757" height="1.054"/>
					</g>
				</g>
			</g>
			<g>
				<path style="fill:#FFFFFF;" d="M187.637,431.299c-0.006-1.224-0.959-2.121-2.189-2.14c-0.924-0.014-0.832,0.12-0.834-0.867
					c-0.003-1.097-0.007-2.194,0.003-3.292c0.003-0.379-0.112-0.691-0.362-0.976c-2.342-2.668-4.678-5.342-7.019-8.011
					c-0.12-0.137-0.275-0.244-0.414-0.366c-6.214,0-12.427,0-18.641,0c-0.794,0.293-1.14,0.868-1.138,1.709
					c0.01,3.748,0.004,7.496,0.004,11.243c0,0.556-0.003,0.589-0.55,0.551c-1.497-0.102-2.516,0.986-2.497,2.492
					c0.044,3.476,0.013,6.953,0.014,10.429c0.001,1.58,0.867,2.443,2.45,2.449c0.582,0.002,0.582,0.002,0.582,0.6
					c0,2.219-0.001,4.438,0.001,6.657c0.001,1.192,0.58,1.771,1.768,1.771c8.013,0.001,16.027,0.001,24.04,0
					c1.168,0,1.755-0.583,1.757-1.745c0.002-2.256,0-4.512,0.001-6.768c0-0.512,0.002-0.511,0.52-0.515
					c0.271-0.002,0.541,0.008,0.809-0.058c0.996-0.246,1.69-1.044,1.694-2.069C187.652,438.696,187.655,434.997,187.637,431.299z
					 M159.187,417.162c5.337,0,10.674,0,16.01,0c0.548,0,0.554,0.007,0.554,0.561c0.001,2.243-0.001,4.486,0.001,6.73
					c0.001,0.811,0.249,1.059,1.06,1.059c1.91,0.001,3.821,0,5.731,0.001c0.458,0,0.479,0.021,0.481,0.483
					c0.003,0.887,0.002,1.775,0,2.662c-0.001,0.477-0.024,0.498-0.504,0.499c-3.895,0.001-7.79,0-11.684,0
					c-3.882,0-7.765,0-11.647,0c-0.55,0-0.552-0.001-0.552-0.561c-0.001-3.624-0.001-7.247,0-10.871
					C158.636,417.166,158.64,417.162,159.187,417.162z M182.472,451.579c-3.883,0.001-7.766,0-11.65,0c-3.871,0-7.742,0-11.613,0
					c-0.572,0-0.574-0.002-0.574-0.579c-0.001-1.997-0.001-3.994,0.001-5.991c0-0.464,0.023-0.486,0.478-0.487
					c7.803-0.001,15.607-0.001,23.41,0c0.478,0,0.499,0.02,0.499,0.503c0.002,1.997,0.001,3.994,0,5.991
					C183.024,451.574,183.019,451.579,182.472,451.579z"/>
			</g>
			<g>
				<path style="fill:#FFFFFF;" d="M159.779,440.669v-7.897h2.779c0.375,0,0.726,0.061,1.053,0.182
					c0.327,0.121,0.612,0.292,0.855,0.513c0.242,0.221,0.434,0.483,0.573,0.789c0.14,0.305,0.21,0.642,0.21,1.009
					c0,0.375-0.07,0.715-0.21,1.02c-0.14,0.305-0.331,0.568-0.573,0.789c-0.243,0.221-0.528,0.392-0.855,0.513
					c-0.327,0.121-0.678,0.182-1.053,0.182h-1.29v2.901H159.779z M162.58,436.356c0.39,0,0.684-0.111,0.882-0.331
					c0.199-0.22,0.298-0.474,0.298-0.761c0-0.14-0.024-0.276-0.072-0.408c-0.048-0.132-0.121-0.248-0.221-0.347
					c-0.099-0.099-0.223-0.178-0.37-0.237c-0.147-0.059-0.32-0.089-0.518-0.089h-1.312v2.173H162.58z"/>
				<path style="fill:#FFFFFF;" d="M166.308,432.771h1.731l3.177,5.294h0.088l-0.088-1.522v-3.772h1.478v7.897h-1.566l-3.353-5.592
					h-0.088l0.088,1.522v4.07h-1.467V432.771z"/>
				<path style="fill:#FFFFFF;" d="M177.922,436.334h3.872c0.022,0.089,0.04,0.195,0.055,0.32c0.014,0.125,0.022,0.25,0.022,0.375
					c0,0.507-0.077,0.985-0.231,1.434c-0.154,0.449-0.397,0.849-0.728,1.202c-0.353,0.375-0.776,0.666-1.268,0.871
					c-0.493,0.206-1.055,0.309-1.688,0.309c-0.574,0-1.114-0.103-1.622-0.309c-0.507-0.206-0.948-0.492-1.323-0.86
					c-0.375-0.367-0.673-0.803-0.894-1.307c-0.221-0.504-0.331-1.053-0.331-1.649c0-0.595,0.11-1.145,0.331-1.649
					c0.221-0.504,0.518-0.939,0.894-1.307c0.375-0.367,0.816-0.654,1.323-0.86c0.507-0.206,1.048-0.309,1.622-0.309
					c0.64,0,1.211,0.11,1.715,0.331c0.504,0.221,0.935,0.526,1.296,0.915l-1.025,1.004c-0.258-0.272-0.544-0.48-0.861-0.623
					c-0.316-0.143-0.695-0.215-1.136-0.215c-0.361,0-0.703,0.065-1.026,0.193c-0.324,0.129-0.607,0.311-0.85,0.546
					c-0.242,0.235-0.436,0.52-0.579,0.855c-0.143,0.335-0.215,0.708-0.215,1.119c0,0.412,0.072,0.785,0.215,1.12
					c0.143,0.335,0.338,0.62,0.584,0.855c0.246,0.235,0.531,0.418,0.855,0.546c0.323,0.129,0.669,0.193,1.037,0.193
					c0.419,0,0.773-0.061,1.064-0.182c0.29-0.121,0.538-0.278,0.744-0.469c0.148-0.132,0.275-0.3,0.381-0.502
					c0.106-0.202,0.189-0.428,0.248-0.678h-2.482V436.334z"/>
			</g>
			<g>
				<path style="fill:#FFFFFF;" d="M224.019,431.299c-0.006-1.224-0.959-2.121-2.189-2.14c-0.924-0.014-0.832,0.12-0.834-0.867
					c-0.003-1.097-0.007-2.194,0.003-3.292c0.003-0.379-0.112-0.691-0.362-0.976c-2.342-2.668-4.678-5.342-7.019-8.011
					c-0.12-0.137-0.275-0.244-0.414-0.366c-6.214,0-12.427,0-18.641,0c-0.794,0.293-1.14,0.868-1.138,1.709
					c0.01,3.748,0.004,7.496,0.004,11.243c0,0.556-0.003,0.589-0.55,0.551c-1.497-0.102-2.516,0.986-2.497,2.492
					c0.044,3.476,0.013,6.953,0.014,10.429c0.001,1.58,0.867,2.443,2.45,2.449c0.582,0.002,0.582,0.002,0.582,0.6
					c0,2.219-0.001,4.438,0.001,6.657c0.001,1.192,0.58,1.771,1.768,1.771c8.013,0.001,16.027,0.001,24.04,0
					c1.168,0,1.755-0.583,1.757-1.745c0.002-2.256,0-4.512,0.001-6.768c0-0.512,0.002-0.511,0.52-0.515
					c0.271-0.002,0.541,0.008,0.809-0.058c0.997-0.246,1.69-1.044,1.694-2.069C224.034,438.696,224.036,434.997,224.019,431.299z
					 M195.568,417.162c5.337,0,10.674,0,16.01,0c0.548,0,0.554,0.007,0.554,0.561c0.001,2.243-0.001,4.486,0.001,6.73
					c0.001,0.811,0.249,1.059,1.06,1.059c1.91,0.001,3.821,0,5.731,0.001c0.458,0,0.479,0.021,0.481,0.483
					c0.003,0.887,0.002,1.775,0,2.662c-0.001,0.477-0.024,0.498-0.504,0.499c-3.895,0.001-7.79,0-11.684,0
					c-3.882,0-7.765,0-11.647,0c-0.55,0-0.552-0.001-0.552-0.561c-0.001-3.624-0.001-7.247,0-10.871
					C195.018,417.166,195.022,417.162,195.568,417.162z M218.854,451.579c-3.883,0.001-7.766,0-11.65,0c-3.871,0-7.742,0-11.613,0
					c-0.572,0-0.574-0.002-0.574-0.579c-0.001-1.997-0.001-3.994,0.001-5.991c0-0.464,0.023-0.486,0.478-0.487
					c7.803-0.001,15.607-0.001,23.41,0c0.478,0,0.499,0.02,0.499,0.503c0.002,1.997,0.001,3.994,0,5.991
					C219.406,451.574,219.401,451.579,218.854,451.579z"/>
			</g>
			<g>
				<path style="fill:#FFFFFF;" d="M205.111,432.771h1.699l2.967,7.897h-1.644l-0.651-1.886h-3.044l-0.651,1.886h-1.643
					L205.111,432.771z M206.997,437.415l-0.706-1.974l-0.287-0.96h-0.088l-0.287,0.96l-0.706,1.974H206.997z"/>
				<path style="fill:#FFFFFF;" d="M211.331,434.536c-0.125,0-0.245-0.024-0.359-0.072c-0.114-0.048-0.213-0.114-0.298-0.199
					c-0.084-0.084-0.151-0.182-0.198-0.292c-0.048-0.11-0.072-0.232-0.072-0.364s0.024-0.254,0.072-0.364
					c0.048-0.11,0.114-0.208,0.198-0.292c0.084-0.084,0.184-0.151,0.298-0.198c0.114-0.048,0.233-0.072,0.359-0.072
					c0.257,0,0.478,0.09,0.662,0.27c0.184,0.181,0.276,0.399,0.276,0.656s-0.092,0.476-0.276,0.656
					C211.809,434.446,211.589,434.536,211.331,434.536z M210.615,440.669v-5.404h1.445v5.404H210.615z"/>
			</g>
			<g>
				<path style="fill:#FFFFFF;" d="M261.044,431.299c-0.006-1.224-0.959-2.121-2.189-2.14c-0.924-0.014-0.832,0.12-0.834-0.867
					c-0.003-1.097-0.007-2.194,0.003-3.292c0.003-0.379-0.112-0.691-0.362-0.976c-2.342-2.668-4.678-5.342-7.019-8.011
					c-0.12-0.137-0.275-0.244-0.414-0.366c-6.214,0-12.427,0-18.641,0c-0.794,0.293-1.14,0.868-1.138,1.709
					c0.01,3.748,0.004,7.496,0.004,11.243c0,0.556-0.003,0.589-0.55,0.551c-1.497-0.102-2.516,0.986-2.497,2.492
					c0.044,3.476,0.013,6.953,0.014,10.429c0.001,1.58,0.867,2.443,2.45,2.449c0.582,0.002,0.582,0.002,0.582,0.6
					c0,2.219-0.001,4.438,0.001,6.657c0.001,1.192,0.58,1.771,1.768,1.771c8.013,0.001,16.027,0.001,24.04,0
					c1.168,0,1.755-0.583,1.757-1.745c0.002-2.256,0-4.512,0.001-6.768c0-0.512,0.002-0.511,0.52-0.515
					c0.271-0.002,0.541,0.008,0.809-0.058c0.996-0.246,1.69-1.044,1.694-2.069C261.059,438.696,261.061,434.997,261.044,431.299z
					 M232.593,417.162c5.337,0,10.674,0,16.01,0c0.548,0,0.554,0.007,0.554,0.561c0.001,2.243-0.001,4.486,0.001,6.73
					c0.001,0.811,0.249,1.059,1.06,1.059c1.91,0.001,3.821,0,5.731,0.001c0.458,0,0.479,0.021,0.481,0.483
					c0.003,0.887,0.002,1.775,0,2.662c-0.001,0.477-0.024,0.498-0.504,0.499c-3.895,0.001-7.79,0-11.684,0
					c-3.882,0-7.765,0-11.647,0c-0.55,0-0.552-0.001-0.552-0.561c-0.001-3.624-0.001-7.247,0-10.871
					C232.042,417.166,232.047,417.162,232.593,417.162z M255.878,451.579c-3.883,0.001-7.766,0-11.65,0c-3.871,0-7.742,0-11.613,0
					c-0.572,0-0.574-0.002-0.574-0.579c-0.001-1.997-0.001-3.994,0.001-5.991c0-0.464,0.023-0.486,0.478-0.487
					c7.803-0.001,15.607-0.001,23.41,0c0.478,0,0.499,0.02,0.499,0.503c0.002,1.997,0.001,3.994,0,5.991
					C256.431,451.574,256.426,451.579,255.878,451.579z"/>
			</g>
			<g>
				<path style="fill:#FFFFFF;" d="M236.361,440.845c-0.338,0-0.662-0.048-0.971-0.143c-0.309-0.095-0.592-0.239-0.849-0.43
					c-0.257-0.191-0.481-0.425-0.673-0.7c-0.191-0.276-0.342-0.597-0.452-0.965l1.401-0.551c0.103,0.397,0.283,0.726,0.54,0.987
					c0.257,0.261,0.596,0.392,1.015,0.392c0.154,0,0.303-0.02,0.447-0.061c0.143-0.04,0.272-0.099,0.386-0.176
					s0.204-0.175,0.27-0.292c0.066-0.118,0.099-0.254,0.099-0.408c0-0.147-0.026-0.279-0.077-0.397
					c-0.051-0.117-0.138-0.227-0.259-0.331c-0.121-0.103-0.28-0.202-0.475-0.298c-0.195-0.095-0.435-0.195-0.722-0.298l-0.485-0.176
					c-0.213-0.073-0.429-0.173-0.645-0.298c-0.217-0.125-0.413-0.276-0.59-0.452c-0.177-0.176-0.322-0.384-0.436-0.623
					c-0.114-0.239-0.171-0.509-0.171-0.81c0-0.309,0.06-0.597,0.182-0.866c0.121-0.268,0.294-0.503,0.518-0.706
					c0.224-0.202,0.492-0.36,0.805-0.474s0.66-0.171,1.042-0.171c0.397,0,0.74,0.053,1.031,0.16
					c0.291,0.107,0.537,0.243,0.739,0.408c0.202,0.165,0.366,0.348,0.491,0.546c0.125,0.199,0.217,0.386,0.276,0.563l-1.312,0.551
					c-0.074-0.221-0.208-0.419-0.402-0.596c-0.195-0.176-0.462-0.265-0.8-0.265c-0.324,0-0.592,0.075-0.805,0.226
					c-0.213,0.151-0.32,0.348-0.32,0.59c0,0.235,0.103,0.436,0.309,0.601c0.206,0.165,0.533,0.325,0.982,0.48l0.497,0.165
					c0.316,0.111,0.605,0.237,0.866,0.381c0.261,0.143,0.485,0.314,0.673,0.513c0.187,0.199,0.331,0.425,0.43,0.678
					c0.1,0.254,0.149,0.546,0.149,0.877c0,0.412-0.083,0.767-0.248,1.064c-0.165,0.298-0.377,0.542-0.634,0.734
					c-0.258,0.191-0.548,0.335-0.872,0.43C236.986,440.797,236.67,440.845,236.361,440.845z"/>
				<path style="fill:#FFFFFF;" d="M239.516,432.771h1.61l1.633,4.754l0.287,1.015h0.088l0.309-1.015l1.699-4.754h1.61l-2.879,7.897
					h-1.566L239.516,432.771z"/>
				<path style="fill:#FFFFFF;" d="M251.097,436.334h3.871c0.022,0.089,0.04,0.195,0.055,0.32c0.015,0.125,0.023,0.25,0.023,0.375
					c0,0.507-0.078,0.985-0.232,1.434c-0.154,0.449-0.397,0.849-0.728,1.202c-0.353,0.375-0.775,0.666-1.268,0.871
					c-0.493,0.206-1.055,0.309-1.688,0.309c-0.574,0-1.114-0.103-1.621-0.309c-0.507-0.206-0.949-0.492-1.324-0.86
					c-0.375-0.367-0.673-0.803-0.894-1.307c-0.22-0.504-0.331-1.053-0.331-1.649c0-0.595,0.11-1.145,0.331-1.649
					c0.221-0.504,0.518-0.939,0.894-1.307c0.375-0.367,0.816-0.654,1.324-0.86c0.507-0.206,1.047-0.309,1.621-0.309
					c0.64,0,1.211,0.11,1.715,0.331c0.504,0.221,0.936,0.526,1.296,0.915l-1.026,1.004c-0.257-0.272-0.544-0.48-0.861-0.623
					c-0.316-0.143-0.694-0.215-1.136-0.215c-0.36,0-0.702,0.065-1.026,0.193c-0.323,0.129-0.607,0.311-0.849,0.546
					c-0.243,0.235-0.436,0.52-0.579,0.855c-0.143,0.335-0.215,0.708-0.215,1.119c0,0.412,0.072,0.785,0.215,1.12
					c0.143,0.335,0.338,0.62,0.585,0.855c0.246,0.235,0.531,0.418,0.854,0.546c0.324,0.129,0.669,0.193,1.037,0.193
					c0.419,0,0.774-0.061,1.064-0.182c0.29-0.121,0.539-0.278,0.745-0.469c0.147-0.132,0.274-0.3,0.38-0.502
					c0.107-0.202,0.189-0.428,0.248-0.678h-2.482V436.334z"/>
			</g>
			<g>
				<path style="fill:#FFFFFF;" d="M297.3,431.299c-0.006-1.224-0.959-2.121-2.189-2.14c-0.924-0.014-0.832,0.12-0.834-0.867
					c-0.003-1.097-0.007-2.194,0.003-3.292c0.003-0.379-0.112-0.691-0.362-0.976c-2.342-2.668-4.678-5.342-7.019-8.011
					c-0.12-0.137-0.275-0.244-0.414-0.366c-6.214,0-12.427,0-18.641,0c-0.794,0.293-1.14,0.868-1.138,1.709
					c0.01,3.748,0.004,7.496,0.004,11.243c0,0.556-0.003,0.589-0.55,0.551c-1.497-0.102-2.516,0.986-2.497,2.492
					c0.044,3.476,0.013,6.953,0.014,10.429c0.001,1.58,0.867,2.443,2.45,2.449c0.582,0.002,0.582,0.002,0.582,0.6
					c0,2.219-0.001,4.438,0.001,6.657c0.001,1.192,0.58,1.771,1.768,1.771c8.013,0.001,16.027,0.001,24.04,0
					c1.168,0,1.755-0.583,1.757-1.745c0.002-2.256,0-4.512,0.001-6.768c0-0.512,0.002-0.511,0.52-0.515
					c0.271-0.002,0.541,0.008,0.809-0.058c0.996-0.246,1.69-1.044,1.694-2.069C297.315,438.696,297.318,434.997,297.3,431.299z
					 M268.85,417.162c5.337,0,10.674,0,16.01,0c0.548,0,0.554,0.007,0.554,0.561c0.001,2.243-0.001,4.486,0.001,6.73
					c0.001,0.811,0.249,1.059,1.06,1.059c1.91,0.001,3.821,0,5.731,0.001c0.458,0,0.479,0.021,0.481,0.483
					c0.003,0.887,0.002,1.775,0,2.662c-0.001,0.477-0.024,0.498-0.504,0.499c-3.895,0.001-7.79,0-11.684,0
					c-3.882,0-7.765,0-11.647,0c-0.55,0-0.552-0.001-0.552-0.561c-0.001-3.624-0.001-7.247,0-10.871
					C268.299,417.166,268.303,417.162,268.85,417.162z M292.135,451.579c-3.883,0.001-7.766,0-11.65,0c-3.871,0-7.742,0-11.613,0
					c-0.572,0-0.574-0.002-0.574-0.579c-0.001-1.997-0.001-3.994,0.001-5.991c0-0.464,0.023-0.486,0.478-0.487
					c7.803-0.001,15.607-0.001,23.41,0c0.478,0,0.499,0.02,0.499,0.503c0.001,1.997,0.001,3.994,0,5.991
					C292.687,451.574,292.682,451.579,292.135,451.579z"/>
			</g>
			<g>
				<path style="fill:#FFFFFF;" d="M272.966,434.183v1.831h3.165v1.412h-3.165v1.831h3.518v1.412h-5.007v-7.897h5.007v1.412H272.966
					z"/>
				<path style="fill:#FFFFFF;" d="M277.852,440.669v-7.897h2.779c0.375,0,0.726,0.061,1.053,0.182
					c0.327,0.121,0.612,0.292,0.855,0.513c0.243,0.221,0.434,0.483,0.574,0.789c0.14,0.305,0.209,0.642,0.209,1.009
					c0,0.375-0.07,0.715-0.209,1.02c-0.14,0.305-0.331,0.568-0.574,0.789c-0.243,0.221-0.528,0.392-0.855,0.513
					c-0.327,0.121-0.678,0.182-1.053,0.182h-1.29v2.901H277.852z M280.653,436.356c0.389,0,0.684-0.111,0.882-0.331
					c0.199-0.22,0.298-0.474,0.298-0.761c0-0.14-0.024-0.276-0.072-0.408c-0.048-0.132-0.121-0.248-0.221-0.347
					c-0.099-0.099-0.222-0.178-0.37-0.237c-0.147-0.059-0.32-0.089-0.518-0.089h-1.312v2.173H280.653z"/>
				<path style="fill:#FFFFFF;" d="M286.797,440.845c-0.338,0-0.662-0.048-0.971-0.143c-0.309-0.095-0.592-0.239-0.849-0.43
					c-0.257-0.191-0.482-0.425-0.673-0.7c-0.191-0.276-0.342-0.597-0.452-0.965l1.401-0.551c0.103,0.397,0.283,0.726,0.541,0.987
					c0.257,0.261,0.595,0.392,1.015,0.392c0.154,0,0.303-0.02,0.447-0.061c0.143-0.04,0.272-0.099,0.386-0.176
					c0.114-0.077,0.204-0.175,0.27-0.292c0.066-0.118,0.1-0.254,0.1-0.408c0-0.147-0.026-0.279-0.077-0.397
					c-0.051-0.117-0.138-0.227-0.259-0.331c-0.121-0.103-0.279-0.202-0.474-0.298c-0.195-0.095-0.436-0.195-0.723-0.298
					l-0.485-0.176c-0.213-0.073-0.428-0.173-0.645-0.298c-0.217-0.125-0.414-0.276-0.59-0.452c-0.176-0.176-0.322-0.384-0.436-0.623
					c-0.114-0.239-0.171-0.509-0.171-0.81c0-0.309,0.061-0.597,0.182-0.866c0.121-0.268,0.294-0.503,0.518-0.706
					c0.224-0.202,0.493-0.36,0.805-0.474c0.312-0.114,0.66-0.171,1.042-0.171c0.397,0,0.741,0.053,1.031,0.16
					c0.29,0.107,0.537,0.243,0.739,0.408c0.202,0.165,0.365,0.348,0.491,0.546c0.125,0.199,0.217,0.386,0.276,0.563l-1.312,0.551
					c-0.074-0.221-0.208-0.419-0.403-0.596c-0.195-0.176-0.462-0.265-0.799-0.265c-0.324,0-0.592,0.075-0.805,0.226
					c-0.213,0.151-0.32,0.348-0.32,0.59c0,0.235,0.103,0.436,0.309,0.601c0.206,0.165,0.533,0.325,0.982,0.48l0.496,0.165
					c0.316,0.111,0.605,0.237,0.866,0.381c0.261,0.143,0.485,0.314,0.673,0.513c0.187,0.199,0.331,0.425,0.43,0.678
					c0.099,0.254,0.149,0.546,0.149,0.877c0,0.412-0.083,0.767-0.248,1.064c-0.165,0.298-0.377,0.542-0.634,0.734
					c-0.258,0.191-0.548,0.335-0.872,0.43C287.422,440.797,287.105,440.845,286.797,440.845z"/>
			</g>
			<g>
				<path style="fill:#FFFFFF;" d="M321.394,439.168l4.004-4.985h-3.827v-1.412h5.559v1.5l-3.96,4.985h4.004v1.412h-5.779V439.168z"
					/>
				<path style="fill:#FFFFFF;" d="M328.409,432.771h1.489v7.897h-1.489V432.771z"/>
				<path style="fill:#FFFFFF;" d="M331.486,440.669v-7.897h2.779c0.375,0,0.726,0.061,1.053,0.182
					c0.327,0.121,0.612,0.292,0.855,0.513s0.434,0.483,0.574,0.789c0.14,0.305,0.209,0.642,0.209,1.009
					c0,0.375-0.07,0.715-0.209,1.02c-0.14,0.305-0.331,0.568-0.574,0.789c-0.243,0.221-0.528,0.392-0.855,0.513
					c-0.327,0.121-0.678,0.182-1.053,0.182h-1.29v2.901H331.486z M334.288,436.356c0.389,0,0.684-0.111,0.882-0.331
					c0.199-0.22,0.298-0.474,0.298-0.761c0-0.14-0.024-0.276-0.072-0.408c-0.048-0.132-0.121-0.248-0.221-0.347
					c-0.099-0.099-0.222-0.178-0.37-0.237c-0.147-0.059-0.32-0.089-0.518-0.089h-1.312v2.173H334.288z"/>
			</g>
		</g>
		<g style="opacity:0.61;">
			<path style="fill:#FFFFFF;" d="M300.133,433.27h9.067v2.242h-9.067V433.27z M300.133,437.136h9.067v2.243h-9.067V437.136z"/>
		</g>
	</g>
	<g style="opacity:0.61;">
		<path style="fill:#FFFFFF;" d="M156.756,478.878h1.607c1.263,0,2.114,0.812,2.114,1.974c0,1.161-0.851,1.973-2.114,1.973h-1.607
			V478.878z M158.34,482.464c1.049,0,1.725-0.665,1.725-1.612c0-0.947-0.677-1.613-1.725-1.613h-1.167v3.225H158.34z"/>
		<path style="fill:#FFFFFF;" d="M165.139,480.851c0-1.15,0.879-2.007,2.075-2.007c1.184,0,2.069,0.851,2.069,2.007
			c0,1.156-0.885,2.007-2.069,2.007C166.019,482.858,165.139,482.002,165.139,480.851z M168.866,480.851
			c0-0.942-0.705-1.635-1.652-1.635c-0.953,0-1.663,0.693-1.663,1.635c0,0.941,0.71,1.635,1.663,1.635
			C168.162,482.486,168.866,481.793,168.866,480.851z"/>
		<path style="fill:#FFFFFF;" d="M179.596,478.878l-1.331,3.947h-0.44l-1.156-3.366l-1.161,3.366h-0.434l-1.331-3.947h0.429
			l1.139,3.394l1.178-3.394h0.389l1.161,3.411l1.156-3.411H179.596z"/>
		<path style="fill:#FFFFFF;" d="M187.731,478.878v3.947h-0.344l-2.537-3.202v3.202h-0.417v-3.947h0.344l2.543,3.203v-3.203H187.731
			z"/>
		<path style="fill:#FFFFFF;" d="M193.093,478.878h0.417v3.586h2.21v0.361h-2.627V478.878z"/>
		<path style="fill:#FFFFFF;" d="M200.061,480.851c0-1.15,0.879-2.007,2.075-2.007c1.184,0,2.069,0.851,2.069,2.007
			c0,1.156-0.885,2.007-2.069,2.007C200.941,482.858,200.061,482.002,200.061,480.851z M203.788,480.851
			c0-0.942-0.705-1.635-1.652-1.635c-0.953,0-1.663,0.693-1.663,1.635c0,0.941,0.71,1.635,1.663,1.635
			C203.083,482.486,203.788,481.793,203.788,480.851z"/>
		<path style="fill:#FFFFFF;" d="M211.636,481.77h-2.199l-0.474,1.054h-0.434l1.804-3.947h0.412l1.804,3.947h-0.44L211.636,481.77z
			 M211.484,481.432l-0.947-2.12l-0.947,2.12H211.484z"/>
		<path style="fill:#FFFFFF;" d="M217.28,478.878h1.607c1.263,0,2.114,0.812,2.114,1.974c0,1.161-0.851,1.973-2.114,1.973h-1.607
			V478.878z M218.864,482.464c1.049,0,1.725-0.665,1.725-1.612c0-0.947-0.677-1.613-1.725-1.613h-1.167v3.225H218.864z"/>
		<path style="fill:#FFFFFF;" d="M234.041,481.77h-2.199l-0.474,1.054h-0.434l1.804-3.947h0.412l1.804,3.947h-0.44L234.041,481.77z
			 M233.889,481.432l-0.947-2.12l-0.947,2.12H233.889z"/>
		<path style="fill:#FFFFFF;" d="M239.685,478.878h0.417v3.586h2.21v0.361h-2.627V478.878z"/>
		<path style="fill:#FFFFFF;" d="M247.082,478.878h0.417v3.586h2.21v0.361h-2.627V478.878z"/>
		<path style="fill:#FFFFFF;" d="M260.449,479.239v1.551h2.041v0.361h-2.041v1.675h-0.417v-3.947h2.706v0.361H260.449z"/>
		<path style="fill:#FFFFFF;" d="M267.678,478.878h0.417v3.947h-0.417V478.878z"/>
		<path style="fill:#FFFFFF;" d="M273.456,478.878h0.417v3.586h2.21v0.361h-2.627V478.878z"/>
		<path style="fill:#FFFFFF;" d="M283.644,482.464v0.361h-2.791v-3.947h2.706v0.361h-2.289v1.404h2.041v0.355h-2.041v1.466H283.644z
			"/>
		<path style="fill:#FFFFFF;" d="M294.672,479.239v1.551h2.041v0.361h-2.041v1.675h-0.417v-3.947h2.706v0.361H294.672z"/>
		<path style="fill:#FFFFFF;" d="M301.5,480.851c0-1.15,0.879-2.007,2.075-2.007c1.184,0,2.069,0.851,2.069,2.007
			c0,1.156-0.885,2.007-2.069,2.007C302.379,482.858,301.5,482.002,301.5,480.851z M305.226,480.851
			c0-0.942-0.705-1.635-1.652-1.635c-0.953,0-1.663,0.693-1.663,1.635c0,0.941,0.71,1.635,1.663,1.635
			C304.522,482.486,305.226,481.793,305.226,480.851z"/>
		<path style="fill:#FFFFFF;" d="M313.351,482.825l-0.902-1.269c-0.102,0.011-0.203,0.017-0.316,0.017h-1.06v1.252h-0.417v-3.947
			h1.477c1.004,0,1.613,0.507,1.613,1.353c0,0.62-0.327,1.054-0.902,1.24l0.964,1.353H313.351z M313.328,480.231
			c0-0.632-0.417-0.992-1.207-0.992h-1.048v1.979h1.048C312.911,481.218,313.328,480.851,313.328,480.231z"/>
		<path style="fill:#FFFFFF;" d="M322.907,478.878v3.947h-0.4v-3.158l-1.551,2.656h-0.197l-1.551-2.639v3.14h-0.4v-3.947h0.344
			l1.714,2.926l1.697-2.926H322.907z"/>
		<path style="fill:#FFFFFF;" d="M330.744,481.77h-2.199l-0.473,1.054h-0.434l1.804-3.947h0.411l1.804,3.947h-0.44L330.744,481.77z
			 M330.592,481.432l-0.947-2.12l-0.947,2.12H330.592z"/>
		<path style="fill:#FFFFFF;" d="M336.957,479.239h-1.387v-0.361h3.192v0.361h-1.387v3.586h-0.417V479.239z"/>
		<path style="fill:#FFFFFF;" d="M343.063,482.346l0.164-0.321c0.282,0.276,0.784,0.479,1.302,0.479c0.739,0,1.06-0.31,1.06-0.699
			c0-1.083-2.43-0.417-2.43-1.877c0-0.581,0.451-1.083,1.455-1.083c0.446,0,0.908,0.13,1.224,0.35l-0.141,0.333
			c-0.338-0.22-0.733-0.327-1.083-0.327c-0.722,0-1.043,0.321-1.043,0.716c0,1.083,2.43,0.429,2.43,1.866
			c0,0.581-0.462,1.077-1.472,1.077C343.937,482.858,343.356,482.65,343.063,482.346z"/>
	</g>
</g>
<g>
</g>
<g>
	<g>
		<path style="fill:#EC1C24;" d="M109.39,202.287c23.053,0,44.017,5.48,59.629,14.43v-19.009
			c-15.612-8.949-36.576-14.43-59.629-14.43c-48.247,0-87.359,23.992-87.359,53.589c0,3.244,0.47,6.42,1.37,9.504
			C30.714,221.309,66.431,202.287,109.39,202.287z"/>
		<path style="fill:#034EA1;" d="M23.401,250.052l-0.99-3.392c-0.936-3.209-1.411-6.504-1.411-9.793
			c0-30.117,39.652-54.62,88.39-54.62c22.397,0,43.756,5.173,60.142,14.567l0.518,0.297v21.386l-1.544-0.885
			c-16.079-9.217-37.074-14.293-59.116-14.293c-41.924,0-77.671,18.228-84.999,43.342L23.401,250.052z M109.39,184.31
			c-47.601,0-86.328,23.577-86.328,52.557c0,1.94,0.176,3.883,0.525,5.808c9.657-24.198,44.881-41.419,85.803-41.419
			c21.699,0,42.425,4.856,58.598,13.702v-16.65C151.978,189.277,131.198,184.31,109.39,184.31z"/>
	</g>
	<g>
		<path style="fill:#EC1C24;" d="M109.39,290.455c-42.96,0-78.676-19.022-85.989-44.084c-0.9,3.085-1.37,6.261-1.37,9.504
			c0,29.596,39.112,53.589,87.359,53.589c23.053,0,44.017-5.48,59.629-14.43v-19.009
			C153.407,284.975,132.444,290.455,109.39,290.455z"/>
		<path style="fill:#034EA1;" d="M109.39,310.324c-48.644,0-88.219-24.425-88.219-54.448c0-3.273,0.473-6.552,1.404-9.745
			l0.825-2.827l0.825,2.827c7.349,25.185,43.165,43.465,85.164,43.465c22.072,0,43.097-5.084,59.202-14.316l1.287-0.737v20.989
			l-0.432,0.248C153.086,305.158,131.757,310.324,109.39,310.324z M23.53,249.449c-0.425,2.126-0.639,4.278-0.639,6.427
			c0,29.075,38.804,52.729,86.5,52.729c21.875,0,42.722-4.994,58.77-14.07v-17.04c-16.184,8.92-36.984,13.82-58.77,13.82
			C68.22,291.315,32.835,273.877,23.53,249.449z"/>
	</g>
	<g>
		<path style="fill:#EC1C24;" d="M418.34,202.287c23.053,0,44.017,5.48,59.629,14.43v-19.009
			c-15.612-8.949-36.576-14.43-59.629-14.43c-48.247,0-87.359,23.992-87.359,53.589c0,3.244,0.47,6.42,1.37,9.504
			C339.664,221.309,375.38,202.287,418.34,202.287z"/>
		<path style="fill:#034EA1;" d="M332.351,250.053l-0.99-3.394c-0.936-3.212-1.411-6.506-1.411-9.793
			c0-30.117,39.652-54.62,88.391-54.62c22.397,0,43.756,5.173,60.141,14.567l0.518,0.297v21.386l-1.544-0.885
			c-16.079-9.217-37.073-14.293-59.116-14.293c-41.924,0-77.672,18.228-85,43.342L332.351,250.053z M418.34,184.31
			c-47.602,0-86.329,23.577-86.329,52.557c0,1.939,0.176,3.882,0.525,5.807c9.656-24.198,44.88-41.418,85.804-41.418
			c21.7,0,42.425,4.856,58.597,13.702v-16.65C460.927,189.277,440.148,184.31,418.34,184.31z"/>
	</g>
	<g>
		<path style="fill:#EC1C24;" d="M418.34,290.455c-42.96,0-78.676-19.022-85.989-44.084c-0.9,3.085-1.37,6.261-1.37,9.504
			c0,29.596,39.112,53.589,87.359,53.589c23.053,0,44.017-5.48,59.629-14.43v-19.009
			C462.357,284.975,441.393,290.455,418.34,290.455z"/>
		<path style="fill:#034EA1;" d="M418.34,310.324c-48.644,0-88.219-24.425-88.219-54.448c0-3.271,0.473-6.549,1.404-9.745
			l0.825-2.828l0.825,2.828c7.348,25.185,43.166,43.465,85.165,43.465c22.072,0,43.097-5.084,59.201-14.316l1.287-0.737v20.989
			l-0.432,0.248C462.036,305.158,440.707,310.324,418.34,310.324z M332.48,249.449c-0.425,2.128-0.64,4.279-0.64,6.427
			c0,29.075,38.804,52.729,86.501,52.729c21.876,0,42.721-4.994,58.769-14.07v-17.04c-16.183,8.92-36.984,13.82-58.769,13.82
			C377.171,291.315,341.785,273.877,332.48,249.449z"/>
	</g>
	<path style="fill:#EC1C24;" d="M318.493,235.133c0.094-1.209,0.157-2.426,0.157-3.659v0c0-25.65-20.794-46.444-46.444-46.444
		h-77.293v18.535h79.585C294.943,203.565,312.289,216.782,318.493,235.133z"/>
	<path style="fill:#034EA1;" d="M319.128,240.231l-1.612-4.768c-6.241-18.463-23.529-30.867-43.019-30.867h-80.616v-20.598h78.325
		c26.178,0,47.475,21.297,47.475,47.475c0,1.14-0.052,2.363-0.16,3.74L319.128,240.231z M195.944,202.534h78.554
		c18.673,0,35.413,10.891,43.101,27.569c-0.728-24.409-20.81-44.042-45.392-44.042h-76.262V202.534z"/>
	<g>
		<path style="fill:#EC1C24;" d="M318.493,227.814c0.094,1.209,0.157,2.426,0.157,3.659v0c0,25.65-20.794,46.444-46.444,46.444
			h-77.293v-18.535h79.585C294.943,259.382,312.289,246.165,318.493,227.814z"/>
		<path style="fill:#034EA1;" d="M272.206,278.777h-78.153v-20.254h80.444c19.564,0,36.916-12.452,43.181-30.984l1.343-3.974
			l0.328,4.182c0.107,1.373,0.16,2.591,0.16,3.726C319.509,257.557,298.289,278.777,272.206,278.777z M195.772,277.058h76.434
			c24.958,0,45.294-20.162,45.581-45.052c-7.496,17.048-24.4,28.236-43.29,28.236h-78.725V277.058z"/>
	</g>
	
		<line style="fill:none;stroke:#034EA1;stroke-width:3.4829;stroke-miterlimit:10;" x1="194.913" y1="203.565" x2="194.913" y2="213.87"/>
	<g>
		<path style="fill:#781214;" d="M109.39,319.89c-48.739,0-88.39-24.502-88.39-54.62c0-30.117,39.652-54.62,88.39-54.62
			c22.401,0,43.76,5.171,60.143,14.562l-1.026,1.789c-16.076-9.214-37.07-14.289-59.117-14.289
			c-47.601,0-86.328,23.577-86.328,52.557c0,28.98,38.727,52.557,86.328,52.557c22.047,0,43.042-5.074,59.118-14.289l1.026,1.789
			C153.151,314.719,131.791,319.89,109.39,319.89z"/>
	</g>
	<g>
		<path style="fill:#781214;" d="M418.34,319.89c-48.738,0-88.39-24.502-88.39-54.62c0-30.117,39.652-54.62,88.39-54.62
			c22.401,0,43.76,5.171,60.143,14.562l-1.026,1.789c-16.075-9.214-37.071-14.289-59.118-14.289
			c-47.602,0-86.328,23.577-86.328,52.557c0,28.98,38.726,52.557,86.328,52.557c22.047,0,43.043-5.074,59.118-14.289l1.026,1.789
			C462.101,314.719,440.741,319.89,418.34,319.89z"/>
	</g>
	<path style="fill:#781214;" d="M281.19,212.838h-87.309v74.389v1.031v34.046h2.062v-34.046h85.247
		c20.719,0,37.574-16.856,37.574-37.574v-0.272C318.765,229.694,301.909,212.838,281.19,212.838z M316.702,250.685
		c0,19.581-15.93,35.512-35.512,35.512h-85.247V214.9h85.247c19.582,0,35.512,15.931,35.512,35.512V250.685z"/>
	<g>
		<path d="M25.653,157.11c1.341,0.816,2.138,1.224,2.391,1.224c0.117,0,0.418-0.282,0.904-0.846
			c0.427-0.505,0.709-0.875,0.846-1.108l-2.449-1.312c-1.05,0.817-1.565,1.225-1.545,1.225c-0.331,0-1.06-0.408-2.187-1.225
			c-0.972,1.069-1.545,1.72-1.72,1.954c1.03,0.661,1.837,1.079,2.42,1.254C25.011,157.635,25.458,157.246,25.653,157.11z"/>
		<path d="M69.91,159.472c0.117,0,0.875-0.738,2.274-2.216c-1.594-1.03-2.449-1.545-2.565-1.545c-0.098,0-0.462,0.326-1.094,0.977
			c-0.632,0.652-1.006,1.064-1.122,1.239c0.214,0.175,0.656,0.477,1.327,0.904C69.399,159.258,69.793,159.472,69.91,159.472z"/>
		<path d="M105.522,172.038c-0.71-0.641-1.123-0.962-1.239-0.962c-0.117,0-0.51,0.321-1.181,0.962
			c-0.671,0.641-1.006,1.02-1.006,1.137c0,0.116,0.325,0.437,0.977,0.962c0.651,0.525,1.064,0.797,1.239,0.816
			c1.516-0.856,2.274-1.439,2.274-1.749C106.586,173.068,106.231,172.679,105.522,172.038z"/>
		<path d="M106.732,159.938l-1.72,3.003c0.35,0.292,0.739,0.807,1.166,1.545c0.427,0.739,0.641,1.312,0.641,1.72
			c0,0.058-0.01,0.087-0.029,0.087h-5.015h-0.962h-2.536h-1.341h-2.157h-1.341H91.28h-1.341h-2.157H86.44h-2.157h-1.341h-2.157
			h-1.341h-2.128c-0.622,0-0.962,0-1.02,0c0.194-0.583,0.291-0.943,0.291-1.079c0-0.777-0.345-1.491-1.035-2.143
			c-0.69-0.651-1.424-0.977-2.201-0.977c-1.672,0-4.587,1.399-8.747,4.198h-0.641h-0.437c0.583-1.671,0.875-2.77,0.875-3.294
			l-0.058-0.729c-0.291,0.117-0.719,0.496-1.283,1.137c-0.564,0.641-0.846,1.098-0.846,1.37c0,0.544-0.127,1.05-0.379,1.516h-2.245
			h-1.05H56.09h-1.341h-2.157H51.25h-2.157h-1.341h-2.157h-1.341h-2.157h-1.341h-2.157h-1.341h-2.215h-1.283h-0.204
			c-0.758,0-1.215-0.223-1.37-0.671c-0.273-0.816-0.574-2.186-0.904-4.111c-0.37-2.235-0.641-3.693-0.816-4.373l-0.146-0.088
			l-1.749,3.003c0.058,0.272,0.155,0.564,0.292,0.875c-1.069,0.603-2.128,1.205-3.178,1.808c-0.739,0.467-1.283,1.02-1.633,1.662
			c-0.35,0.641-0.739,1.818-1.166,3.528l5.277,0.933c0.252,0.058,0.583-0.262,0.991-0.962c0.447-0.817,0.738-1.273,0.875-1.37
			c0.194,0.622,0.389,1.244,0.583,1.866c0.33,0.739,0.806,1.108,1.429,1.108h1.72h1.283h2.215h1.341h2.157h1.341h2.157h1.341h2.157
			h1.341h2.157h1.341h2.157h1.341h2.449h1.05h1.516c0.175,0,0.369-0.121,0.583-0.365c0.213-0.243,0.369-0.393,0.467-0.452
			c0.155,0.291,0.243,0.564,0.262,0.816h1.545h1.021h10.962h1.371h2.128h1.341h2.157h1.341h2.157h1.341h2.157h1.341h2.157h1.341
			h2.157h1.341h2.536h0.962h6.327c0.583,0,0.875-1.467,0.875-4.402c0-0.933-0.204-1.885-0.612-2.857
			C107.957,161.27,107.412,160.502,106.732,159.938z M26.76,164.691c0.428-0.369,0.797-0.622,1.108-0.758
			c0.622-0.583,1.059-1.059,1.312-1.429l0.525,2.566L26.76,164.691z M67.052,166.265c0.661-0.33,1.312-0.67,1.953-1.02
			c0.817-0.389,1.516-0.583,2.099-0.583c0.544,0,1.074,0.151,1.589,0.452c0.515,0.302,0.889,0.685,1.123,1.152H67.052z"/>
		<path d="M138.89,158.276l2.478,1.283c0.7-0.486,1.322-1.156,1.866-2.012l-2.595-1.429c-0.273,0.253-0.535,0.496-0.787,0.729
			c-0.408,0.37-0.67,0.554-0.787,0.554c-0.35,0-1.098-0.408-2.245-1.224c-0.603,0.564-1.215,1.224-1.837,1.983
			c1.069,0.758,1.943,1.205,2.624,1.341C138.054,159.015,138.482,158.607,138.89,158.276z"/>
		<path d="M149.299,157.693c-0.933-0.564-1.448-0.972-1.545-1.224c-0.097-0.252-0.156-0.573-0.175-0.962l-0.175-0.146
			c-0.622,0.681-1.312,1.818-2.07,3.411c0.31,0.389,0.612,0.69,0.904,0.904c0.175,0.428,0.389,1.453,0.641,3.076
			c0.252,1.623,0.379,2.707,0.379,3.251c0,0.097-0.029,0.194-0.087,0.291h-2.07h-0.992h-1.049c0.738-1.127,1.108-1.943,1.108-2.449
			c0-0.738-0.116-1.38-0.35-1.924c-0.311-0.7-0.787-1.05-1.429-1.05c-0.894,0-2.022,0.544-3.382,1.633
			c-1.244,0.991-2.109,1.924-2.595,2.799c-0.117,0.428-0.175,0.758-0.175,0.991h-1.312h-1.429h-2.07h-1.341h-2.157h-1.341h-2.157
			h-1.341h-2.157h-1.341h-2.099h-1.4h-0.146c-0.564,0-0.875-0.155-0.933-0.467c-0.253-1.03-0.467-2.731-0.641-5.102
			c-0.117-1.769-0.233-3.538-0.35-5.306c-0.194,0.175-0.564,0.612-1.108,1.312c-0.583,0.758-0.875,1.205-0.875,1.341l1.02,11.429
			h3.032h1.4h2.099h1.341h2.157h1.341h2.157h1.341h2.157h1.341h2.07h1.429h9.184h0.992h2.886c0.272-0.136,0.427-0.233,0.467-0.292
			c0.136-0.175,0.31-0.758,0.525-1.749c0.214-0.992,0.301-1.613,0.262-1.866l-0.35-3.936l2.274-2.945
			C150.639,158.48,150.017,158.141,149.299,157.693z M140.406,166.236c-0.389,0-0.807-0.087-1.254-0.262
			c-0.544-0.194-0.816-0.447-0.816-0.758c0-0.194,0.291-0.432,0.874-0.714c0.583-0.282,0.992-0.423,1.225-0.423
			c0.35,0,0.661,0.175,0.933,0.525c0.272,0.35,0.408,0.71,0.408,1.079C141.776,166.051,141.32,166.236,140.406,166.236z"/>
		<path d="M153.585,160.346l1.312,9.388c1.127-1.321,1.691-2.974,1.691-4.957c0-1.71-0.282-4.461-0.846-8.251
			C154.673,158.004,153.953,159.277,153.585,160.346z"/>
		<path d="M168.133,161.571c-0.564,1.302-0.953,2.294-1.166,2.974c1.672,1.691,2.507,2.731,2.507,3.12
			c0,0.719-0.695,1.662-2.084,2.828c-1.39,1.166-2.474,1.749-3.251,1.749c-0.564,0-1.487-0.292-2.77-0.875h-0.35
			c-0.058,0.117-0.087,0.223-0.087,0.321c0,0.427,0.836,0.972,2.507,1.633c1.574,0.602,2.653,0.904,3.236,0.904
			c1.205,0,2.264-0.923,3.178-2.77c0.797-1.575,1.195-3.042,1.195-4.403c0-1.147-0.262-2.167-0.787-3.062
			C169.853,163.291,169.143,162.485,168.133,161.571z"/>
		<path d="M250.626,165.186c-0.865-0.7-1.297-1.117-1.297-1.254c0-0.077,0.009-0.116,0.029-0.116l0.03,0.029
			c0.7-0.35,1.749-0.525,3.148-0.525c0.972,0,1.749,0.117,2.333,0.35c0.077,0.039,0.758,0.408,2.041,1.108
			c-0.253-1.127-0.729-2.099-1.429-2.916c-0.816-0.933-1.749-1.399-2.799-1.399c-0.875,0-1.978,0.51-3.309,1.531
			c-1.332,1.02-2.133,1.959-2.405,2.813c-0.097,0.661-0.146,1.157-0.146,1.487h-1.137h-1.021h-2.478h-1.341h-2.157h-1.342h-2.157
			h-1.341h-2.157h-1.342h-2.157h-1.341h-2.157h-1.341h-2.303h-0.816c-0.603,0-1.108-0.467-1.516-1.399
			c-0.35-0.777-0.515-1.497-0.495-2.158c-0.02-0.252-0.083-0.423-0.19-0.51c-0.107-0.088-0.316-0.131-0.627-0.131
			c-0.641,0-1.346,0.195-2.114,0.583c-0.768,0.389-1.404,0.836-1.91,1.341c-0.195,0.195-0.452,0.598-0.773,1.21
			c-0.321,0.612-0.549,0.967-0.685,1.064h-1.749h-1.254h-2.245h-1.341h-2.157h-1.341h-2.157h-1.341h-2.157h-1.341h-2.157h-1.341
			h-2.157h-1.341h-2.157h-1.341h-2.157h-1.341h-2.099h-1.4H177.2c-0.564,0-0.875-0.155-0.933-0.467
			c-0.253-1.03-0.467-2.731-0.641-5.102c-0.117-1.769-0.233-3.538-0.35-5.306c-0.194,0.175-0.564,0.612-1.108,1.312
			c-0.583,0.758-0.875,1.205-0.875,1.341l1.02,11.429h3.032h1.4h2.099h1.341h2.157h1.341h2.157h1.341h2.157h1.341h2.157h1.341h2.157
			h1.341h2.157h1.341h2.157h1.341h2.245h1.254h0.758c0.369,0,0.641-0.223,0.816-0.671c0.214-0.602,0.369-0.943,0.467-1.02
			l5.656,3.149c0.233-0.097,0.432-0.335,0.598-0.714c0.165-0.379,0.306-0.627,0.423-0.743h0.962h1.196h2.303h1.341h2.157h1.341
			h2.157h1.342h2.157h1.341h2.157h1.342h2.157h1.341h2.478h1.021h10.991l1.895-3.266h-6.385
			C252.011,166.236,251.49,165.886,250.626,165.186z M216.559,166.236c-0.214-0.019-0.535-0.155-0.962-0.408
			c-0.292-0.194-0.593-0.388-0.904-0.583c0.252-0.194,0.593-0.291,1.021-0.291c0.563,0,0.846,0.224,0.846,0.67V166.236z"/>
		<path d="M261.633,171.28c0.35-0.311,0.622-0.467,0.816-0.467l0.845,0.525c0.019-0.019,0.117-0.156,0.292-0.408
			c0.136-0.194,0.204-0.331,0.204-0.408c0-0.078-0.097-0.224-0.291-0.437c-0.214-0.097-0.389-0.146-0.525-0.146
			c-0.564,0-1.06,0.248-1.487,0.743c-0.428,0.496-0.632,1.025-0.612,1.589c0.544,0.291,0.971,0.467,1.283,0.525
			c-0.234,0.155-0.472,0.33-0.714,0.525c-0.244,0.194-0.404,0.408-0.481,0.641c1.186-0.816,2.245-1.224,3.178-1.224
			c0.33-0.408,0.544-0.71,0.641-0.904c-0.544,0-1.088,0-1.633,0C262.391,171.775,261.885,171.59,261.633,171.28z"/>
		<path d="M273.295,157.606c-0.486-0.272-0.972-0.544-1.457-0.816c-0.603-0.388-0.904-0.816-0.904-1.283
			c0-0.077,0.01-0.165,0.03-0.262c-1.4,1.808-2.099,2.848-2.099,3.12c0-0.058,0.117,0.136,0.35,0.583
			c0.233,0.447,0.35,0.856,0.35,1.224c0,0.972-0.243,1.808-0.729,2.507c-0.719-1.108-1.934-2.449-3.645-4.024
			c-2.002-1.808-3.469-2.701-4.402-2.682H260.7c-0.816,1.478-1.224,2.595-1.224,3.353c0,0.7,0.33,1.264,0.992,1.691
			c1.633,0.933,2.876,1.623,3.732,2.07c0.077-0.019,0.209-0.16,0.393-0.423c0.185-0.262,0.306-0.394,0.365-0.394
			c0.175,0,0.563,0.321,1.166,0.962c0.544,0.564,0.894,0.972,1.05,1.224c-0.04,0.35-0.516,0.739-1.429,1.166
			c-0.448,0.233-1.06,0.486-1.837,0.758c-0.544,1.38-0.933,2.42-1.167,3.12h7.639c0.156-1.05,0.234-1.817,0.234-2.303
			c0-0.835-0.35-1.943-1.05-3.324c0.914-0.992,1.535-2.206,1.866-3.645c0.233,0.078,0.505,0.156,0.816,0.233
			c0.233-0.33,0.467-0.651,0.7-0.962c0.272-0.408,0.408-0.767,0.408-1.078c0-0.097-0.005-0.238-0.015-0.423
			C273.328,157.815,273.314,157.684,273.295,157.606z M268.455,166.702c-0.622,0-1.186-0.019-1.691-0.058
			c0.602-0.486,1.039-0.875,1.312-1.166c0.35,0.525,0.593,0.933,0.729,1.224H268.455z"/>
		<path d="M276.356,160.346l1.312,9.388c1.127-1.321,1.691-2.974,1.691-4.957c0-1.71-0.282-4.461-0.845-8.251
			C277.444,158.004,276.725,159.277,276.356,160.346z"/>
		<path d="M290.554,159.472l-1.02,3.353c0.563,0.078,1.278,0.525,2.143,1.341c0.865,0.816,1.297,1.487,1.297,2.012
			c0,0.039-0.01,0.078-0.029,0.116h-5.685l-0.291,3.207h7.027c0.641,0,0.962-1.117,0.962-3.353
			C294.957,163.019,293.489,160.794,290.554,159.472z"/>
		<path d="M298.018,160.346l1.312,9.388c1.127-1.321,1.691-2.974,1.691-4.957c0-1.71-0.282-4.461-0.845-8.251
			C299.106,158.004,298.387,159.277,298.018,160.346z"/>
		<path d="M370.468,162.387c-0.078-0.33-0.146-0.661-0.204-0.992c-0.117-0.31-0.379-0.466-0.787-0.466
			c-0.777,0-1.706,0.384-2.785,1.152c-1.079,0.768-1.774,1.521-2.084,2.259c-0.505,1.186-0.826,1.837-0.962,1.954h-0.874h-1.312
			h-2.186h-1.341h-2.157h-1.342h-2.157h-1.341h-2.157h-1.342h-2.157h-1.341h-2.157h-1.342h-2.157h-1.341h-2.157h-1.342h-2.157
			h-1.341h-2.157h-1.342h-2.157h-1.341h-2.157h-1.342h-2.157h-1.341h-2.215h-1.284h-0.466c-0.525-3.343-1.448-5.015-2.77-5.015
			c-0.856,0-1.711,0.816-2.566,2.449c-0.758,1.458-1.137,2.644-1.137,3.557c0,0.855,0.496,1.448,1.487,1.778
			c0.136,0.058,0.981,0.224,2.537,0.496c-0.7,0.68-1.555,1.292-2.566,1.837c-1.147,0.602-2.148,0.904-3.003,0.904
			c-0.272,0-0.69-0.078-1.253-0.233c-0.564-0.156-0.992-0.233-1.283-0.233c-0.097,0-0.185,0.029-0.262,0.088v0.291
			c0.486,0.564,1.293,1.059,2.42,1.487c1.069,0.408,2.011,0.612,2.828,0.612c0.991,0,2.021-0.574,3.09-1.72
			c0.836-0.914,1.506-1.944,2.012-3.09h0.932h1.284h2.215h1.341h2.157h1.342h2.157h1.341h2.157h1.342h2.157h1.341h2.157h1.342h2.157
			h1.341h2.157h1.342h2.157h1.341h2.157h1.342h2.157h1.341h2.157h1.342h2.157h1.341h2.186h1.312h0.583
			c0.213,0,0.476-0.316,0.787-0.948c0.311-0.631,0.554-0.996,0.729-1.093c3.148,1.166,4.742,1.847,4.782,2.041
			c0.35-0.564,0.709-1.127,1.079-1.691c0.485-0.777,0.728-1.36,0.728-1.749c0-0.485-0.126-1.098-0.379-1.837
			C370.886,163.622,370.682,163.01,370.468,162.387z M309.068,166.236c-0.836,0-1.419-0.281-1.749-0.846c0-0.039,0-0.077,0-0.116
			c-0.019-0.136,0.102-0.33,0.365-0.583c0.262-0.252,0.461-0.379,0.597-0.379c0.291,0,0.573,0.233,0.846,0.7
			c0.038,0.039,0.213,0.399,0.524,1.079C309.457,166.188,309.262,166.236,309.068,166.236z M366.415,164.341
			c0.525-0.35,0.971-0.525,1.341-0.525l0.175,0.029c0.311,0.583,0.505,1.05,0.583,1.399L366.415,164.341z"/>
		<path d="M381.313,157.11c1.341,0.816,2.138,1.224,2.391,1.224c0.116,0,0.418-0.282,0.904-0.846
			c0.428-0.505,0.71-0.875,0.846-1.108l-2.45-1.312c-1.049,0.817-1.565,1.225-1.545,1.225c-0.331,0-1.06-0.408-2.187-1.225
			c-0.972,1.069-1.545,1.72-1.72,1.954c1.03,0.661,1.837,1.079,2.42,1.254C380.672,157.635,381.119,157.246,381.313,157.11z"/>
		<path d="M424.58,163c-1.147-0.913-2.284-1.827-3.411-2.741c2.76-0.835,4.829-1.458,6.21-1.866c0.35-1.166,0.632-2.235,0.846-3.207
			l-9.213,2.711c-0.156,0.641-0.311,1.273-0.467,1.895c-0.214,0.797-0.321,1.429-0.321,1.895c0,0.175,0.35,0.627,1.05,1.356
			c0.699,0.729,1.147,1.093,1.341,1.093c0.234,0,0.399-0.116,0.496-0.35l3.265,2.507h-5.627h-1.662h-1.836h-1.342h-2.157h-1.341
			h-2.157h-1.342h-2.157h-1.341h-2.157h-1.342h-2.157h-1.341h-2.157h-1.342h-2.215h-1.283h-0.204c-0.758,0-1.215-0.223-1.37-0.671
			c-0.273-0.816-0.573-2.186-0.904-4.111c-0.37-2.235-0.642-3.693-0.817-4.373l-0.146-0.088l-1.749,3.003
			c0.058,0.272,0.156,0.564,0.292,0.875c-1.069,0.603-2.129,1.205-3.178,1.808c-0.739,0.467-1.283,1.02-1.633,1.662
			c-0.35,0.641-0.739,1.818-1.167,3.528l5.277,0.933c0.252,0.058,0.583-0.262,0.992-0.962c0.447-0.817,0.738-1.273,0.875-1.37
			c0.194,0.622,0.389,1.244,0.583,1.866c0.33,0.739,0.806,1.108,1.429,1.108h1.72h1.283h2.215h1.342h2.157h1.341h2.157h1.342h2.157
			h1.341h2.157h1.342h2.157h1.341h2.157h1.342h1.836h1.662h7.435c0.622-2.002,0.933-3.149,0.933-3.441
			C427.117,165.478,426.271,164.457,424.58,163z M382.422,164.691c0.427-0.369,0.797-0.622,1.108-0.758
			c0.622-0.583,1.059-1.059,1.312-1.429l0.524,2.566L382.422,164.691z"/>
		<path d="M472.116,157.431c0.515,0.408,0.821,0.612,0.918,0.612c0.136,0,0.438-0.194,0.904-0.583
			c0.467-0.389,0.758-0.671,0.875-0.846c-1.05-1.03-1.653-1.545-1.808-1.545c-0.097,0-0.399,0.243-0.904,0.729
			c-0.506,0.486-0.759,0.778-0.759,0.875C471.344,156.77,471.601,157.023,472.116,157.431z"/>
		<path d="M473.093,159.705c1.496,0.856,2.303,1.283,2.42,1.283c0.136,0,0.456-0.291,0.962-0.874
			c0.447-0.505,0.729-0.875,0.846-1.108l-2.537-1.37c-0.252,0.253-0.515,0.496-0.787,0.729c-0.408,0.37-0.661,0.554-0.759,0.554
			c-0.252,0-0.972-0.408-2.158-1.224c-0.136,0.019-0.452,0.297-0.947,0.831c-0.495,0.535-0.791,0.899-0.889,1.093
			c1.128,0.856,1.954,1.293,2.479,1.312C472.345,160.385,472.802,159.977,473.093,159.705z"/>
		<path d="M477.204,163.466c-0.603,0.739-0.904,1.283-0.904,1.633c0,0.116,0.019,0.287,0.058,0.51
			c0.039,0.224,0.058,0.394,0.058,0.51c0,0.058-0.029,0.116-0.087,0.175h-2.07c-0.078-0.039-0.116-0.078-0.116-0.116
			c0-0.35,0.146-0.952,0.437-1.808c0.291-0.855,0.438-1.409,0.438-1.662v-0.204c-0.72,0.233-1.468,1.089-2.246,2.566
			c-0.156,0.544-0.233,0.953-0.233,1.224h-1.574h-1.196h-0.262c0.583-1.671,0.875-2.77,0.875-3.294l-0.058-0.729
			c-0.291,0.117-0.719,0.496-1.283,1.137s-0.845,1.098-0.845,1.37c0,0.544-0.127,1.05-0.379,1.516h-2.244h-1.051h-2.448h-1.341
			h-2.157h-1.342h-2.157h-1.341h-2.157h-1.342h-2.157h-1.341h-2.157h-1.342h-2.215h-0.554c-1.205,0-2.138-0.418-2.799-1.254
			c-0.583-0.875-1.166-1.749-1.749-2.624c-0.156,0.194-0.471,0.68-0.948,1.458c-0.476,0.777-0.714,1.224-0.714,1.341
			c0,0.039,0.282,0.423,0.846,1.152c0.563,0.729,0.845,1.259,0.845,1.589c0,0.681-0.806,1.56-2.419,2.639
			c-1.614,1.079-2.838,1.618-3.674,1.618c-0.544,0-1.166-0.194-1.866-0.583c-0.7-0.389-1.02-0.583-0.962-0.583
			c-0.097,0-0.146,0.019-0.146,0.058v0.379c0.525,0.583,1.473,1.214,2.843,1.895c1.37,0.68,2.415,1.02,3.134,1.02
			c1.069,0,2.05-0.632,2.944-1.895c0.602-1.069,1.205-2.128,1.808-3.178l0.146-0.175c0.486,0.233,0.865,0.35,1.137,0.35h0.845h1.283
			h2.215h1.342h2.157h1.341h2.157h1.342h2.157h1.341h2.157h1.342h2.157h1.341h2.448h1.051h1.515c0.175,0,0.369-0.121,0.583-0.365
			c0.214-0.243,0.369-0.393,0.467-0.452c0.155,0.291,0.243,0.564,0.262,0.816h1.37h1.196h1.224c0.213-0.214,0.369-0.369,0.467-0.467
			c0.155,0.175,0.263,0.331,0.32,0.467h4.432c0.252-0.641,0.495-1.273,0.729-1.895c0.252-0.7,0.379-1.37,0.379-2.012v-3.499
			C478.147,162.368,477.71,162.825,477.204,163.466z"/>
	</g>
	<g>
		<path d="M32.445,339.401l2.646,0.891c-0.405,1.566-1.08,2.73-2.023,3.49c-0.944,0.76-2.141,1.14-3.591,1.14
			c-1.794,0-3.27-0.651-4.425-1.953c-1.155-1.302-1.733-3.082-1.733-5.34c0-2.388,0.581-4.243,1.742-5.565
			c1.161-1.322,2.689-1.982,4.582-1.982c1.653,0,2.996,0.519,4.029,1.556c0.614,0.614,1.075,1.494,1.383,2.643l-2.701,0.685
			c-0.16-0.744-0.493-1.331-1-1.762c-0.507-0.431-1.123-0.646-1.848-0.646c-1.002,0-1.815,0.382-2.438,1.145
			c-0.624,0.764-0.936,2.001-0.936,3.71c0,1.814,0.307,3.106,0.922,3.876c0.615,0.77,1.414,1.155,2.397,1.155
			c0.725,0,1.349-0.245,1.871-0.734C31.842,341.221,32.217,340.451,32.445,339.401z"/>
		<path d="M36.879,337.59c0-1.462,0.206-2.689,0.618-3.68c0.307-0.731,0.726-1.387,1.258-1.968c0.532-0.581,1.114-1.011,1.747-1.292
			c0.842-0.378,1.813-0.568,2.913-0.568c1.991,0,3.585,0.656,4.78,1.967c1.196,1.312,1.793,3.136,1.793,5.472
			c0,2.316-0.593,4.129-1.779,5.437s-2.772,1.963-4.757,1.963c-2.01,0-3.608-0.651-4.794-1.953
			C37.472,341.667,36.879,339.874,36.879,337.59z M39.69,337.492c0,1.625,0.354,2.857,1.06,3.695
			c0.707,0.838,1.604,1.258,2.692,1.258c1.088,0,1.98-0.416,2.678-1.248s1.047-2.08,1.047-3.744c0-1.644-0.34-2.871-1.018-3.68
			c-0.679-0.809-1.581-1.214-2.706-1.214c-1.124,0-2.031,0.41-2.72,1.229C40.035,334.606,39.69,335.841,39.69,337.492z"/>
		<path d="M52.145,344.677v-14.35H54.8l5.532,9.583v-9.583h2.535v14.35h-2.738l-5.448-9.358v9.358H52.145z"/>
		<path d="M65.06,340.008l2.655-0.274c0.16,0.946,0.484,1.641,0.973,2.085c0.489,0.444,1.148,0.666,1.978,0.666
			c0.879,0,1.541-0.197,1.986-0.592c0.446-0.395,0.669-0.856,0.669-1.385c0-0.339-0.094-0.628-0.281-0.866
			c-0.188-0.238-0.515-0.445-0.982-0.622c-0.32-0.117-1.048-0.326-2.184-0.626c-1.463-0.385-2.489-0.858-3.079-1.419
			c-0.83-0.79-1.245-1.752-1.245-2.888c0-0.731,0.195-1.414,0.585-2.051c0.39-0.636,0.953-1.121,1.687-1.453
			c0.734-0.333,1.621-0.499,2.66-0.499c1.696,0,2.973,0.395,3.831,1.184c0.857,0.79,1.307,1.844,1.351,3.162l-2.729,0.128
			c-0.117-0.737-0.367-1.268-0.751-1.591c-0.385-0.323-0.961-0.485-1.729-0.485c-0.793,0-1.414,0.173-1.862,0.519
			c-0.289,0.222-0.434,0.519-0.434,0.891c0,0.339,0.136,0.63,0.406,0.871c0.344,0.307,1.18,0.626,2.507,0.959
			c1.327,0.333,2.309,0.677,2.945,1.033c0.636,0.356,1.134,0.842,1.494,1.459c0.359,0.617,0.539,1.379,0.539,2.285
			c0,0.822-0.215,1.592-0.645,2.31c-0.43,0.718-1.039,1.251-1.825,1.6c-0.787,0.349-1.767,0.524-2.941,0.524
			c-1.709,0-3.02-0.419-3.936-1.258C65.786,342.835,65.239,341.613,65.06,340.008z"/>
		<path d="M81.387,344.677v-11.922h-4.01v-2.427h10.74v2.427h-4.001v11.922H81.387z"/>
		<path d="M89.886,344.677v-14.35h5.743c1.445,0,2.494,0.129,3.148,0.386c0.655,0.258,1.178,0.716,1.572,1.376
			c0.393,0.659,0.59,1.413,0.59,2.261c0,1.077-0.298,1.966-0.894,2.667s-1.488,1.144-2.673,1.326
			c0.59,0.366,1.077,0.767,1.461,1.204c0.384,0.437,0.902,1.214,1.553,2.33l1.65,2.799h-3.263l-1.973-3.123
			c-0.7-1.116-1.18-1.819-1.438-2.109c-0.258-0.29-0.532-0.489-0.82-0.597c-0.289-0.108-0.747-0.161-1.374-0.161h-0.553v5.991
			H89.886z M92.615,336.396h2.019c1.309,0,2.127-0.059,2.452-0.176c0.326-0.117,0.581-0.32,0.765-0.607
			c0.184-0.287,0.277-0.646,0.277-1.077c0-0.483-0.122-0.873-0.365-1.17c-0.242-0.297-0.585-0.484-1.028-0.563
			c-0.221-0.033-0.885-0.049-1.991-0.049h-2.129V336.396z"/>
		<path d="M103.493,330.327h2.729v7.772c0,1.234,0.034,2.033,0.101,2.398c0.116,0.587,0.395,1.059,0.834,1.414
			c0.44,0.356,1.041,0.533,1.802,0.533c0.775,0,1.358-0.168,1.751-0.504c0.393-0.336,0.63-0.749,0.71-1.238
			c0.079-0.489,0.119-1.302,0.119-2.437v-7.938h2.729v7.537c0,1.723-0.074,2.94-0.222,3.651c-0.147,0.711-0.42,1.311-0.816,1.801
			c-0.396,0.49-0.926,0.88-1.59,1.17c-0.664,0.29-1.53,0.436-2.599,0.436c-1.291,0-2.27-0.158-2.936-0.475
			c-0.667-0.317-1.194-0.728-1.581-1.234c-0.387-0.505-0.642-1.036-0.765-1.591c-0.179-0.822-0.267-2.036-0.267-3.641V330.327z"/>
		<path d="M125.793,339.401l2.646,0.891c-0.405,1.566-1.08,2.73-2.023,3.49c-0.943,0.76-2.14,1.14-3.591,1.14
			c-1.794,0-3.269-0.651-4.425-1.953c-1.155-1.302-1.733-3.082-1.733-5.34c0-2.388,0.581-4.243,1.743-5.565
			c1.161-1.322,2.689-1.982,4.582-1.982c1.653,0,2.996,0.519,4.029,1.556c0.614,0.614,1.075,1.494,1.382,2.643l-2.701,0.685
			c-0.16-0.744-0.493-1.331-1-1.762s-1.123-0.646-1.848-0.646c-1.002,0-1.815,0.382-2.439,1.145
			c-0.624,0.764-0.935,2.001-0.935,3.71c0,1.814,0.307,3.106,0.922,3.876c0.614,0.77,1.413,1.155,2.397,1.155
			c0.725,0,1.349-0.245,1.872-0.734C125.191,341.221,125.565,340.451,125.793,339.401z"/>
		<path d="M133.823,344.677v-11.922h-4.01v-2.427h10.74v2.427h-4.001v11.922H133.823z"/>
		<path d="M142.23,344.677v-14.35h2.729v14.35H142.23z"/>
		<path d="M147.005,337.59c0-1.462,0.206-2.689,0.618-3.68c0.307-0.731,0.726-1.387,1.258-1.968
			c0.532-0.581,1.114-1.011,1.747-1.292c0.842-0.378,1.813-0.568,2.913-0.568c1.991,0,3.585,0.656,4.78,1.967
			c1.196,1.312,1.793,3.136,1.793,5.472c0,2.316-0.593,4.129-1.779,5.437s-2.772,1.963-4.757,1.963c-2.01,0-3.608-0.651-4.794-1.953
			C147.598,341.667,147.005,339.874,147.005,337.59z M149.817,337.492c0,1.625,0.354,2.857,1.06,3.695
			c0.707,0.838,1.604,1.258,2.692,1.258c1.088,0,1.98-0.416,2.678-1.248c0.698-0.832,1.047-2.08,1.047-3.744
			c0-1.644-0.34-2.871-1.018-3.68c-0.679-0.809-1.581-1.214-2.706-1.214c-1.124,0-2.031,0.41-2.719,1.229
			C150.161,334.606,149.817,335.841,149.817,337.492z"/>
		<path d="M162.272,344.677v-14.35h2.654l5.532,9.583v-9.583h2.535v14.35h-2.738l-5.448-9.358v9.358H162.272z"/>
		<path d="M181.124,344.677v-14.35h4.379c1.659,0,2.741,0.072,3.245,0.215c0.774,0.215,1.423,0.684,1.945,1.405
			c0.522,0.721,0.784,1.653,0.784,2.795c0,0.881-0.151,1.622-0.452,2.222c-0.301,0.6-0.684,1.072-1.148,1.414
			c-0.464,0.343-0.936,0.57-1.415,0.68c-0.651,0.137-1.594,0.205-2.83,0.205h-1.779v5.413H181.124z M183.853,332.754v4.072h1.494
			c1.075,0,1.794-0.075,2.157-0.225c0.363-0.15,0.646-0.385,0.853-0.705c0.206-0.32,0.309-0.692,0.309-1.116
			c0-0.522-0.144-0.953-0.433-1.292c-0.289-0.339-0.655-0.551-1.097-0.636c-0.326-0.065-0.981-0.098-1.964-0.098H183.853z"/>
		<path d="M193.726,344.677v-14.35h5.743c1.445,0,2.494,0.129,3.148,0.386c0.655,0.258,1.178,0.716,1.572,1.376
			c0.393,0.659,0.59,1.413,0.59,2.261c0,1.077-0.298,1.966-0.894,2.667s-1.488,1.144-2.673,1.326
			c0.59,0.366,1.077,0.767,1.461,1.204c0.384,0.437,0.902,1.214,1.553,2.33l1.65,2.799h-3.263l-1.973-3.123
			c-0.7-1.116-1.18-1.819-1.438-2.109c-0.258-0.29-0.532-0.489-0.82-0.597c-0.289-0.108-0.747-0.161-1.374-0.161h-0.553v5.991
			H193.726z M196.455,336.396h2.019c1.309,0,2.127-0.059,2.452-0.176c0.326-0.117,0.581-0.32,0.765-0.607
			c0.184-0.287,0.277-0.646,0.277-1.077c0-0.483-0.122-0.873-0.365-1.17c-0.242-0.297-0.585-0.484-1.028-0.563
			c-0.221-0.033-0.885-0.049-1.991-0.049h-2.129V336.396z"/>
		<path d="M206.798,337.59c0-1.462,0.206-2.689,0.618-3.68c0.307-0.731,0.727-1.387,1.259-1.968
			c0.532-0.581,1.114-1.011,1.747-1.292c0.842-0.378,1.813-0.568,2.914-0.568c1.991,0,3.584,0.656,4.78,1.967
			c1.195,1.312,1.793,3.136,1.793,5.472c0,2.316-0.593,4.129-1.78,5.437s-2.772,1.963-4.757,1.963c-2.009,0-3.608-0.651-4.793-1.953
			C207.391,341.667,206.798,339.874,206.798,337.59z M209.61,337.492c0,1.625,0.353,2.857,1.06,3.695
			c0.707,0.838,1.604,1.258,2.692,1.258c1.088,0,1.98-0.416,2.678-1.248c0.698-0.832,1.047-2.08,1.047-3.744
			c0-1.644-0.34-2.871-1.019-3.68c-0.679-0.809-1.581-1.214-2.705-1.214c-1.125,0-2.031,0.41-2.72,1.229
			C209.953,334.606,209.61,335.841,209.61,337.492z"/>
		<path d="M222.027,330.327h4.987c1.125,0,1.982,0.091,2.572,0.274c0.793,0.248,1.472,0.688,2.037,1.321
			c0.565,0.633,0.996,1.408,1.29,2.325c0.295,0.917,0.442,2.048,0.442,3.392c0,1.181-0.138,2.199-0.415,3.054
			c-0.338,1.044-0.82,1.889-1.447,2.535c-0.473,0.489-1.112,0.871-1.917,1.145c-0.602,0.202-1.408,0.303-2.415,0.303h-5.135V330.327
			z M224.756,332.754v9.505h2.037c0.762,0,1.312-0.046,1.65-0.137c0.442-0.117,0.81-0.317,1.102-0.597
			c0.291-0.281,0.53-0.742,0.714-1.385c0.185-0.642,0.277-1.519,0.277-2.628c0-1.109-0.092-1.961-0.277-2.555
			c-0.184-0.594-0.442-1.057-0.775-1.39c-0.332-0.333-0.753-0.558-1.263-0.675c-0.381-0.091-1.128-0.137-2.24-0.137H224.756z"/>
		<path d="M235.653,330.327h2.728v7.772c0,1.234,0.034,2.033,0.101,2.398c0.117,0.587,0.395,1.059,0.834,1.414
			c0.44,0.356,1.041,0.533,1.802,0.533c0.774,0,1.358-0.168,1.751-0.504c0.393-0.336,0.63-0.749,0.71-1.238
			c0.08-0.489,0.12-1.302,0.12-2.437v-7.938h2.729v7.537c0,1.723-0.074,2.94-0.222,3.651c-0.148,0.711-0.42,1.311-0.816,1.801
			c-0.397,0.49-0.926,0.88-1.59,1.17c-0.664,0.29-1.531,0.436-2.6,0.436c-1.29,0-2.269-0.158-2.936-0.475
			c-0.667-0.317-1.194-0.728-1.581-1.234c-0.387-0.505-0.642-1.036-0.765-1.591c-0.179-0.822-0.267-2.036-0.267-3.641V330.327z"/>
		<path d="M257.953,339.401l2.646,0.891c-0.405,1.566-1.08,2.73-2.023,3.49c-0.944,0.76-2.14,1.14-3.591,1.14
			c-1.794,0-3.269-0.651-4.425-1.953c-1.156-1.302-1.733-3.082-1.733-5.34c0-2.388,0.581-4.243,1.742-5.565
			c1.162-1.322,2.689-1.982,4.582-1.982c1.653,0,2.996,0.519,4.029,1.556c0.615,0.614,1.075,1.494,1.383,2.643l-2.701,0.685
			c-0.16-0.744-0.493-1.331-1-1.762c-0.508-0.431-1.124-0.646-1.849-0.646c-1.002,0-1.815,0.382-2.438,1.145
			c-0.624,0.764-0.936,2.001-0.936,3.71c0,1.814,0.307,3.106,0.922,3.876c0.614,0.77,1.413,1.155,2.397,1.155
			c0.725,0,1.349-0.245,1.872-0.734C257.35,341.221,257.725,340.451,257.953,339.401z"/>
		<path d="M265.982,344.677v-11.922h-4.01v-2.427h10.74v2.427h-4.001v11.922H265.982z"/>
		<path d="M273.781,340.008l2.655-0.274c0.16,0.946,0.484,1.641,0.973,2.085c0.489,0.444,1.147,0.666,1.977,0.666
			c0.879,0,1.541-0.197,1.987-0.592c0.445-0.395,0.668-0.856,0.668-1.385c0-0.339-0.093-0.628-0.281-0.866
			c-0.187-0.238-0.514-0.445-0.981-0.622c-0.32-0.117-1.048-0.326-2.185-0.626c-1.463-0.385-2.489-0.858-3.079-1.419
			c-0.83-0.79-1.245-1.752-1.245-2.888c0-0.731,0.195-1.414,0.585-2.051c0.39-0.636,0.953-1.121,1.687-1.453
			c0.734-0.333,1.621-0.499,2.66-0.499c1.696,0,2.973,0.395,3.83,1.184c0.858,0.79,1.308,1.844,1.351,3.162l-2.728,0.128
			c-0.117-0.737-0.368-1.268-0.752-1.591c-0.384-0.323-0.96-0.485-1.728-0.485c-0.793,0-1.414,0.173-1.862,0.519
			c-0.289,0.222-0.434,0.519-0.434,0.891c0,0.339,0.135,0.63,0.405,0.871c0.344,0.307,1.18,0.626,2.508,0.959
			c1.327,0.333,2.309,0.677,2.945,1.033c0.636,0.356,1.134,0.842,1.494,1.459c0.359,0.617,0.539,1.379,0.539,2.285
			c0,0.822-0.215,1.592-0.645,2.31c-0.43,0.718-1.039,1.251-1.825,1.6c-0.787,0.349-1.767,0.524-2.941,0.524
			c-1.708,0-3.02-0.419-3.936-1.258C274.506,342.835,273.96,341.613,273.781,340.008z"/>
		<path d="M292.32,344.677v-14.35h2.729v5.648h5.346v-5.648h2.729v14.35h-2.729v-6.274h-5.346v6.274H292.32z"/>
		<path d="M305.392,337.59c0-1.462,0.206-2.689,0.618-3.68c0.307-0.731,0.727-1.387,1.259-1.968
			c0.531-0.581,1.114-1.011,1.747-1.292c0.842-0.378,1.813-0.568,2.913-0.568c1.991,0,3.585,0.656,4.78,1.967
			c1.196,1.312,1.793,3.136,1.793,5.472c0,2.316-0.593,4.129-1.779,5.437s-2.772,1.963-4.757,1.963
			c-2.009,0-3.608-0.651-4.794-1.953C305.985,341.667,305.392,339.874,305.392,337.59z M308.203,337.492
			c0,1.625,0.354,2.857,1.061,3.695c0.706,0.838,1.604,1.258,2.692,1.258c1.088,0,1.98-0.416,2.678-1.248
			c0.698-0.832,1.046-2.08,1.046-3.744c0-1.644-0.34-2.871-1.018-3.68c-0.679-0.809-1.581-1.214-2.705-1.214
			c-1.125,0-2.031,0.41-2.72,1.229C308.548,334.606,308.203,335.841,308.203,337.492z"/>
		<path d="M320.704,344.677v-14.232h2.729v11.815h6.785v2.418H320.704z"/>
		<path d="M332.153,330.327h4.988c1.124,0,1.982,0.091,2.572,0.274c0.793,0.248,1.472,0.688,2.037,1.321
			c0.565,0.633,0.996,1.408,1.29,2.325c0.295,0.917,0.442,2.048,0.442,3.392c0,1.181-0.138,2.199-0.415,3.054
			c-0.338,1.044-0.82,1.889-1.447,2.535c-0.473,0.489-1.112,0.871-1.917,1.145c-0.602,0.202-1.407,0.303-2.415,0.303h-5.135V330.327
			z M334.882,332.754v9.505h2.037c0.762,0,1.312-0.046,1.65-0.137c0.442-0.117,0.81-0.317,1.102-0.597s0.53-0.742,0.714-1.385
			c0.185-0.642,0.277-1.519,0.277-2.628c0-1.109-0.092-1.961-0.277-2.555c-0.184-0.594-0.442-1.057-0.774-1.39
			c-0.332-0.333-0.753-0.558-1.263-0.675c-0.381-0.091-1.128-0.137-2.24-0.137H334.882z"/>
		<path d="M345.715,344.677v-14.35h2.728v14.35H345.715z"/>
		<path d="M351.07,344.677v-14.35h2.655l5.532,9.583v-9.583h2.535v14.35h-2.738l-5.448-9.358v9.358H351.07z"/>
		<path d="M370.964,339.401v-2.418h5.882v5.716c-0.572,0.587-1.4,1.105-2.485,1.551c-1.085,0.447-2.184,0.671-3.295,0.671
			c-1.414,0-2.646-0.315-3.697-0.945c-1.051-0.63-1.841-1.53-2.369-2.702c-0.529-1.171-0.793-2.445-0.793-3.822
			c0-1.494,0.295-2.822,0.885-3.984c0.59-1.162,1.453-2.052,2.591-2.673c0.867-0.476,1.945-0.714,3.236-0.714
			c1.678,0,2.988,0.374,3.932,1.121c0.943,0.747,1.55,1.78,1.821,3.098l-2.711,0.538c-0.19-0.705-0.548-1.261-1.073-1.669
			c-0.526-0.408-1.182-0.612-1.968-0.612c-1.192,0-2.14,0.401-2.844,1.204c-0.704,0.803-1.055,1.994-1.055,3.573
			c0,1.703,0.356,2.98,1.069,3.832c0.713,0.852,1.647,1.278,2.803,1.278c0.571,0,1.145-0.119,1.719-0.357s1.067-0.527,1.48-0.866
			v-1.821H370.964z"/>
		<path d="M393.255,339.401l2.646,0.891c-0.405,1.566-1.08,2.73-2.023,3.49c-0.944,0.76-2.14,1.14-3.591,1.14
			c-1.794,0-3.269-0.651-4.425-1.953c-1.156-1.302-1.733-3.082-1.733-5.34c0-2.388,0.581-4.243,1.742-5.565
			c1.162-1.322,2.689-1.982,4.582-1.982c1.653,0,2.996,0.519,4.029,1.556c0.615,0.614,1.075,1.494,1.383,2.643l-2.701,0.685
			c-0.16-0.744-0.493-1.331-1-1.762c-0.508-0.431-1.124-0.646-1.849-0.646c-1.002,0-1.815,0.382-2.438,1.145
			c-0.624,0.764-0.936,2.001-0.936,3.71c0,1.814,0.307,3.106,0.922,3.876c0.614,0.77,1.413,1.155,2.397,1.155
			c0.725,0,1.349-0.245,1.872-0.734C392.653,341.221,393.028,340.451,393.255,339.401z"/>
		<path d="M397.689,337.59c0-1.462,0.206-2.689,0.618-3.68c0.307-0.731,0.727-1.387,1.259-1.968
			c0.531-0.581,1.114-1.011,1.747-1.292c0.842-0.378,1.813-0.568,2.913-0.568c1.991,0,3.585,0.656,4.78,1.967
			c1.196,1.312,1.793,3.136,1.793,5.472c0,2.316-0.593,4.129-1.779,5.437s-2.772,1.963-4.757,1.963
			c-2.009,0-3.608-0.651-4.794-1.953C398.283,341.667,397.689,339.874,397.689,337.59z M400.501,337.492
			c0,1.625,0.354,2.857,1.061,3.695c0.706,0.838,1.604,1.258,2.692,1.258c1.088,0,1.98-0.416,2.678-1.248
			c0.698-0.832,1.046-2.08,1.046-3.744c0-1.644-0.34-2.871-1.018-3.68c-0.679-0.809-1.581-1.214-2.705-1.214
			c-1.125,0-2.031,0.41-2.719,1.229C400.845,334.606,400.501,335.841,400.501,337.492z"/>
		<path d="M412.891,344.677v-14.35h4.084l2.452,9.788l2.425-9.788h4.093v14.35h-2.535v-11.296l-2.683,11.296h-2.628l-2.673-11.296
			v11.296H412.891z"/>
		<path d="M428.655,344.677v-14.35h4.379c1.66,0,2.741,0.072,3.245,0.215c0.774,0.215,1.423,0.684,1.945,1.405
			c0.522,0.721,0.783,1.653,0.783,2.795c0,0.881-0.15,1.622-0.451,2.222c-0.301,0.6-0.684,1.072-1.148,1.414
			c-0.464,0.343-0.936,0.57-1.415,0.68c-0.652,0.137-1.595,0.205-2.83,0.205h-1.779v5.413H428.655z M431.383,332.754v4.072h1.493
			c1.075,0,1.795-0.075,2.158-0.225c0.362-0.15,0.646-0.385,0.853-0.705c0.206-0.32,0.309-0.692,0.309-1.116
			c0-0.522-0.144-0.953-0.433-1.292c-0.289-0.339-0.655-0.551-1.097-0.636c-0.326-0.065-0.981-0.098-1.964-0.098H431.383z"/>
		<path d="M452.033,344.677h-2.969l-1.18-3.26h-5.402l-1.116,3.26h-2.895l5.264-14.35h2.885L452.033,344.677z M447.009,338.999
			l-1.862-5.325l-1.825,5.325H447.009z"/>
		<path d="M453.508,344.677v-14.35h2.655l5.532,9.583v-9.583h2.535v14.35h-2.738l-5.448-9.358v9.358H453.508z"/>
		<path d="M470.664,344.677v-6.039l-4.95-8.31h3.199l3.181,5.677l3.116-5.677h3.144l-4.969,8.33v6.02H470.664z"/>
	</g>
</g>
</svg>
