<?xml version="1.0" standalone="no"?>
<!DOCTYPE svg PUBLIC "-//W3C//DTD SVG 20010904//EN"
 "http://www.w3.org/TR/2001/REC-SVG-20010904/DTD/svg10.dtd">
<svg version="1.0" xmlns="http://www.w3.org/2000/svg"
 width="3239.000000pt" height="2280.000000pt" viewBox="0 0 3239.000000 2280.000000"
 preserveAspectRatio="xMidYMid meet">

<g transform="translate(0.000000,2280.000000) scale(0.100000,-0.100000)"
fill="#000000" stroke="none">
<path d="M8555 14250 l-2850 -2850 2848 0 2847 0 0 -2845 c0 -1565 3 -2845 8
-2845 4 0 999 992 2212 2205 l2205 2205 -244 2 -244 3 -208 284 c-114 156
-212 288 -216 292 -4 4 -105 -124 -223 -286 l-215 -295 -243 0 c-192 0 -242 3
-236 13 5 6 151 205 326 440 175 235 318 432 318 438 0 7 -457 625 -553 747
-7 9 42 12 242 12 l251 0 160 -240 c88 -132 164 -240 168 -240 4 0 86 108 182
240 l174 240 239 0 c190 0 237 -3 230 -12 -5 -7 -132 -178 -282 -381 l-273
-368 69 -92 c38 -50 185 -249 328 -440 l258 -348 100 99 100 100 -47 54 c-97
107 -170 264 -197 422 -19 111 -7 293 26 396 49 153 111 254 222 361 111 108
218 170 370 215 110 32 302 43 420 24 79 -12 238 -64 249 -81 3 -5 9 -9 15 -9
5 0 9 350 9 915 l0 915 -30 0 -29 0 -3 126 -3 126 -48 -70 c-100 -147 -253
-221 -455 -222 -294 -1 -496 153 -574 435 -21 77 -22 100 -26 668 l-3 587 210
0 211 0 0 -437 c0 -594 14 -694 107 -795 60 -64 117 -82 230 -75 144 9 252 85
305 215 23 56 23 63 28 572 l5 515 38 3 37 3 0 955 0 954 -2848 0 -2847 0
-2850 -2850z m4770 1770 c204 -23 415 -107 532 -213 l22 -20 -150 -157 -150
-158 -49 47 c-122 117 -323 167 -511 127 -127 -27 -212 -86 -258 -178 -27 -52
-31 -72 -31 -138 0 -62 5 -86 26 -128 45 -91 124 -136 401 -228 305 -102 452
-181 568 -306 113 -122 155 -238 155 -429 0 -423 -280 -704 -744 -748 -338
-32 -686 76 -876 273 l-34 36 24 24 c14 12 85 78 158 145 l133 123 21 -28 c96
-126 240 -198 418 -210 202 -14 384 70 458 211 23 43 27 62 27 135 0 102 -18
142 -93 212 -69 65 -166 110 -392 185 -370 121 -510 214 -604 402 -58 114 -74
327 -36 476 95 371 506 599 985 545z m1835 -815 c231 -58 371 -206 420 -445
18 -88 20 -138 20 -658 l0 -562 -187 2 -188 3 -3 108 -3 109 -33 -44 c-66 -86
-166 -152 -286 -190 -62 -19 -98 -23 -205 -23 -151 0 -207 11 -323 66 -253
121 -351 403 -227 655 108 220 379 324 887 341 l190 6 -4 71 c-8 125 -72 205
-197 248 -54 18 -87 22 -176 22 -156 -1 -263 -40 -410 -149 -20 -14 -26 -9
-125 90 -88 89 -103 108 -94 123 18 29 145 120 219 156 78 38 154 62 259 82
96 18 377 12 466 -11z m-1412 -2847 l2 -198 -525 0 -525 0 0 -300 0 -300 495
0 495 0 0 -195 0 -195 -495 0 -495 0 0 -325 0 -325 555 0 555 0 0 -200 0 -200
-770 0 -770 0 0 1213 c0 668 3 1217 7 1220 3 4 335 6 737 5 l731 -3 3 -197z"/>
<path d="M14876 14269 c-139 -16 -256 -56 -310 -107 -64 -60 -75 -158 -27
-234 54 -84 177 -123 338 -106 137 15 238 80 290 186 24 49 28 72 32 165 l3
107 -128 -1 c-71 -1 -160 -5 -198 -10z"/>
<path d="M16518 11411 c-200 -66 -318 -239 -318 -466 0 -92 17 -164 56 -241
56 -110 21 -132 405 252 l340 339 -33 29 c-18 15 -67 45 -108 64 -70 34 -82
37 -180 39 -81 2 -118 -1 -162 -16z"/>
</g>
</svg>
