<?xml version="1.0" encoding="utf-8"?>
<!-- Generator: Adobe Illustrator 19.2.1, SVG Export Plug-In . SVG Version: 6.00 Build 0)  -->
<svg version="1.1" id="layer" xmlns="http://www.w3.org/2000/svg" xmlns:xlink="http://www.w3.org/1999/xlink" x="0px" y="0px"
	 viewBox="0 0 652 652" style="enable-background:new 0 0 652 652;" xml:space="preserve">
<style type="text/css">
	.st0{fill:#007A48;}
	.st1{fill-rule:evenodd;clip-rule:evenodd;fill:#ED1D24;}
	.st2{fill:#8DC63F;}
	.st3{fill:#FFFFFF;}
	.st4{fill:#ED1D24;}
</style>
<g>
	<path class="st0" d="M268.9,229.1c0-9.5-7.1-17.2-15.8-17.2c-4.3,0-9.7,2.3-12.8,5.5c-6.7-3.5-12.8-5.6-20.2-5.6
		c-26.8,0-48.7,23.1-48.7,51.5c0,28.9,21.8,52.4,48.6,52.4c7.7,0,15-2.7,20.3-5.3c3,3.4,7.4,5.3,12.3,5.4c8.1,0,14.5-5.2,15.9-12.7
		c0.2-0.4,0.3-0.8,0.3-1.3l0-71.9c0,0.1,0,0.1,0,0.2c0-0.3,0-0.6,0-0.8C268.9,229.2,268.9,229.1,268.9,229.1 M220.1,245.9
		c9,0,16.4,7.8,16.5,17.3c0,9.7-7.4,17.4-16.5,17.4c-9,0-16.4-7.8-16.4-17.4C203.6,253.7,211,245.9,220.1,245.9 M268.7,304.4
		C268.7,304.4,268.7,304.4,268.7,304.4C268.7,304.4,268.7,304.4,268.7,304.4"/>
	<path class="st0" d="M105.3,262c5.3,3.1,14.5,4,20.2,4c26.8,0,48.7-22.7,48.7-50.5c0-27.8-21.8-50.6-48.6-50.6
		c-7.1,0-13.9,1.6-20.2,4.6c-3-3.6-7.4-5.8-12-5.8c-8.9,0-16.2,7.5-16.2,16.8c0,0.1,0,0.3,0,0.4c0,0.4,0,0.8,0,1.3
		c0-0.1,0-0.2,0-0.3c0,18.7,0,116.3,0,116.9c0,9.2,5.9,16.7,14.7,16.7c8.9,0,13.6-7.5,13.6-16.8c0-0.6,0-2.4-0.1-3.8L105.3,262z
		 M125.5,232.6c-8,0-15-6.2-16.2-14.4v-5.3c1.2-8.2,8.2-14.4,16.2-14.4c9.1,0,16.5,7.7,16.5,17.1C142,224.9,134.6,232.6,125.5,232.6
		"/>
	<path class="st0" d="M371.2,263.1c0-28.4-17-50.7-44.3-50.7c-7.5,0-14.9,1.9-21.6,5.4c-2.9-2.9-6.8-4.6-10.9-4.6
		c-8.9,0-16.1,7.7-16.1,17.1c0,0.1,0,0.3,0,0.4c0,0.4,0,0.8,0,1.4c0-0.1,0-0.2,0-0.3l0,68.1c0,0,0,0.2,0,0.2
		c0.5,8.7,5.2,15.6,13.6,15.6c9,0,14.8-7.4,14.8-16.8v-0.3c0-0.3,0-0.6,0-1c0,0.1,0,0.2,0,0.2l0-39.3c0.4-9.2,9.5-16.6,18.3-16.6
		c8.8,0,18.1,7.5,18.4,16.7c0-0.1,0,41.3,0,41.3c0,0.1,0,0.2,0,0.2c0.6,8.8,5.5,15.6,14,15.6c9,0,13.8-7.4,13.8-16.8
		c0-0.1,0-0.4,0-0.5c0-0.4,0-0.9,0-1.4L371.2,263.1z"/>
	<path class="st0" d="M476.1,299.4l0-118.6c0-9.3-5.3-17.1-14.2-17.1c-8.8,0-13.9,7.8-13.9,17.1c0,0.5,0,1,0.1,1.4l0,35
		c-5.3-2-14.8-3.6-20.5-3.6c-26.8,0-48.7,22.6-48.7,50.5c0,28,22.2,51.7,48.6,51.8c7,0,14-1.7,20.5-4.9c3,3.1,7.3,5,12.1,5
		c9.3,0,16-6.5,16-15.5c0,0,0-0.1,0-0.2C476.1,299.9,476.1,299.6,476.1,299.4 M427.6,247c8.4,0,15.5,6.7,16.3,15.4v3.4
		c-0.8,8.8-7.9,15.3-16.4,15.3c-9.1,0-16.5-7.6-16.5-17C411.1,254.6,418.5,247,427.6,247"/>
	<path class="st1" d="M556.2,219.9c-7.2-4.1-15.4-6.3-23.6-6.3c-26.9,0-48.9,22.7-48.9,50.7c0,13.6,5.1,26.5,14.3,36.3
		c9.3,9.9,21.5,15.3,34.5,15.3c0,0,23.9,0,23.9,0c13.7,0,24.4-11.5,24.4-26.2v-26.8C580.9,260.8,581.4,234.8,556.2,219.9
		 M533.3,281.5c-8.6,0-15.6-7.3-15.6-16.4c0-9,7-16.3,15.6-16.3c8.6,0,15.6,7.3,15.6,16.4C548.9,274.2,541.9,281.5,533.3,281.5"/>
	<path class="st2" d="M589,189.8l-1.1-3.2l-2.7,1.8c-4.4,3-9,4.3-15.9,6.3c-3.3,1-7.1,2-11.6,3.5c-15.8,5.2-17.1,23.3-17.1,24.1
		l-0.1,2.1l1.9,0.6c8.1,2.6,28.4,1.6,39.8-9.7C593.7,203.8,589.2,190.3,589,189.8"/>
	<path class="st3" d="M543.5,222.5c0,0,8.4-12.1,21-15.1c14.1-3.4,21.6-13.3,21.7-16.2c0,0-0.9,10-20.3,16.8
		C562.7,209,554.1,210.5,543.5,222.5"/>
	<path class="st0" d="M267.9,229.2c0-9.5-7.1-17.2-15.9-17.2c-4.3,0-9.8,2.3-12.8,5.5c-6.7-3.5-12.8-5.6-20.3-5.6
		c-26.9,0-48.8,23.2-48.8,51.6c0,29,21.9,52.6,48.8,52.6c7.7,0,15-2.7,20.3-5.3c3,3.4,7.4,5.4,12.4,5.4c8.1,0,14.5-5.2,15.9-12.7
		c0.2-0.4,0.3-0.8,0.3-1.3l0-72.1c0,0.1,0,0.1,0,0.2c0-0.3,0-0.6,0-0.8C267.9,229.4,267.9,229.3,267.9,229.2 M219,246.1
		c9.1,0,16.5,7.8,16.5,17.4c0,9.7-7.4,17.5-16.5,17.5c-9.1,0-16.5-7.8-16.5-17.4C202.5,253.9,209.9,246.1,219,246.1 M267.7,304.8
		C267.7,304.8,267.7,304.8,267.7,304.8C267.7,304.8,267.7,304.8,267.7,304.8"/>
	<path class="st0" d="M370.6,263.4c0-28.5-17.1-50.9-44.4-50.9c-7.5,0-15,1.9-21.7,5.4c-2.9-2.9-6.8-4.6-10.9-4.6
		c-8.9,0-16.1,7.7-16.1,17.2c0,0.1,0,0.3,0,0.4c0,0.4,0,0.8,0,1.4c0-0.1,0-0.2,0-0.3l0,68.3c0,0,0,0.2,0,0.2
		c0.6,8.8,5.2,15.7,13.7,15.7c9,0,14.8-7.4,14.8-16.9V299c0-0.3,0-0.6,0-1c0,0.1,0,0.2,0,0.2l0-39.5c0.4-9.3,9.5-16.6,18.4-16.6
		c8.8,0,18.1,7.5,18.5,16.7c0-0.1,0,41.4,0,41.4c0,0.1,0,0.2,0,0.2c0.6,8.8,5.5,15.7,14,15.7c9,0,13.8-7.4,13.8-16.9
		c0-0.1,0-0.4,0-0.5c0-0.4,0-0.9,0-1.4L370.6,263.4z"/>
	<path class="st0" d="M475.8,299.8l0-119c0-9.3-5.4-17.2-14.2-17.2c-8.9,0-13.9,7.9-13.9,17.2c0,0.5,0,1,0.1,1.4l0,35.1
		c-5.3-2-14.9-3.7-20.5-3.7c-26.9,0-48.8,22.7-48.8,50.6c0,28.1,22.3,51.9,48.8,51.9c7,0,14.1-1.7,20.5-5c3,3.1,7.3,5,12.1,5
		c9.3,0,16-6.5,16-15.5c0,0,0-0.1,0-0.2C475.8,300.3,475.8,300,475.8,299.8 M427.1,247.2c8.4,0,15.6,6.8,16.4,15.4v3.4
		c-0.9,8.8-7.9,15.4-16.4,15.4c-9.1,0-16.5-7.6-16.5-17.1C410.6,254.9,418,247.2,427.1,247.2"/>
	<path class="st1" d="M556.1,220c-7.3-4.1-15.4-6.3-23.7-6.3c-27,0-49,22.8-49,50.9c0,13.6,5.1,26.5,14.3,36.4
		c9.3,9.9,21.6,15.4,34.6,15.4c0,0,23.9,0,23.9,0c13.7,0,24.5-11.5,24.5-26.2v-26.9C580.9,261.1,581.4,235,556.1,220 M533.2,281.8
		c-8.6,0-15.6-7.3-15.6-16.4c0-9,7-16.4,15.6-16.4c8.6,0,15.6,7.4,15.6,16.4C548.8,274.5,541.8,281.8,533.2,281.8"/>
	<path class="st2" d="M589,189.8l-1.1-3.2l-2.7,1.8c-4.4,3.1-9,4.4-15.9,6.3c-3.3,1-7.1,2-11.6,3.5c-15.9,5.2-17.1,23.4-17.2,24.2
		l-0.1,2.1l1.9,0.6c8.2,2.6,28.5,1.6,39.9-9.7C593.7,204,589.2,190.4,589,189.8"/>
	<path class="st3" d="M543.4,222.7c0,0,8.4-12.1,21.1-15.2c14.1-3.4,21.6-13.3,21.8-16.3c0,0-0.9,10-20.3,16.8
		C562.7,209.1,554,210.7,543.4,222.7"/>
	<path class="st2" d="M-10.8,298.6c0,0-20.8-111.4,64.6-174.3c99.4-73.2,270.9-48,270.9-48S188,72,79.1,152.7
		C-9.4,218.4-10.8,298.6-10.8,298.6"/>
	<path class="st4" d="M652.2,222.5c0,0,12.2,59.7-28,99.9c-56.9,56.9-182.3,39.9-182.3,39.9s99.5-1.9,155.6-49.4
		C650.2,268.3,652.2,222.5,652.2,222.5"/>
	<path class="st0" d="M388.8,443.6c4.1,10.6,9.3,9.8,14.9,9.8h7.6c4.6,0,7.3-4.1,7.3-4.6s-5.8-9.6-5.8-9.6l5.8-8.8c0,0,4,4.1,4,11.1
		v10.9c0,4.7-4.4,11.2-14.6,11.2h-9.7c-7.9,0-11.6-8.5-11.6-8.5s-6.7,8.5-18.7,8.5c-15,0-14.8-14.4-14.8-14.4s-7.4,12.8-16.8,12.8
		c-14.1,0-18.7-2.7-18.7-2.7s0-3.2,0.5-6.4c0.5-3.2,1.9-5.5,1.9-5.5s6.3,6.2,13.6,6.2c15.3,0,16.7-8.9,16.7-13.3
		c0-9.5-4.5-27.9-4.5-27.9l5.5-5.9c0,0,2.1,18.3,3.8,27.1c1.7,8.8,3.8,19.8,10,19.8h7.9C379.5,453.4,388.8,443.6,388.8,443.6"/>
	<path class="st0" d="M37.7,430.4l-5.8,8.8c0,0,5.8,9.1,5.8,9.6s-2.6,4.6-7.3,4.6H18c-5.6,0-6.8-2.1-8.6-12
		c-1.8-9.9-3.7-25.9-3.7-25.9l-4.4,5.9l1.1,5.1c0,0-6.4,2.9-12.1,8.7c-5.7,5.8-6.5,11.6-6.5,13.7c0,3.6,12.7,5.2,13.9,5.2
		s7.6-5.9,7.6-5.9s3.9,15.4,8.5,15.4h13.3c10.3,0,14.6-6.5,14.6-11.2v-10.9C41.7,434.5,37.7,430.4,37.7,430.4 M-0.8,443.2
		c-0.5,0-7.4-0.1-7.4-2.3c0-2.2,9-7.8,10.8-7.8c1.8,0,2.2,6.1,2.2,8.2C4.8,443.4,1.3,443.2-0.8,443.2"/>
	<path class="st0" d="M508.4,403.6c-7.9,5.2-9.3,10.6-9.3,11.9c0,1.2-1.4,5.8,11.1,14.3c12.5,8.4,16.9,14.9,16.9,16.5
		s-4.1,7.1-15,7.1h-20.7c-5.6,0-6.8-2.1-8.6-12c-1.8-9.9-3.7-25.9-3.7-25.9l-4.4,5.9l1.1,5.1c0,0-6.4,2.9-12.1,8.7
		c-5.7,5.8-6.5,11.6-6.5,13.7c0,3.6,12.7,5.2,13.9,5.2s7.6-5.9,7.6-5.9s3.9,15.4,8.5,15.4h27.9c10.3,0,16-9.4,16-15.9
		c0-8.8-2.6-16.8-13.8-23.8c-11.2-7.1-13.2-8.6-13.2-10s2.8-3.2,14.2-7.5c11.4-4.3,20.9-6.9,20.9-6.9s1.3-1.2,2.4-3.8s2-6.5,2-6.5
		S520.2,395.9,508.4,403.6 M472.7,443.2c-0.5,0-7.4-0.1-7.4-2.3c0-2.2,9-7.8,10.8-7.8c1.8,0,2.2,6.1,2.2,8.2
		C478.4,443.4,474.8,443.2,472.7,443.2"/>
	<path class="st0" d="M42.4,412v6.3c0,0-4.2-0.2-8.8,0.8c-4.6,1-10.9,3.3-10.9,3.3s-0.1-2.5,2-4.3c2.1-1.9,4.6-2.5,4.6-2.5
		s-5.1-4-5.1-8.2s6.4-10.2,10.1-10.2c3.7,0,7.4,0.9,7.4,3.3c0,2.5-2.5,6.3-2.5,6.3s-3.1-3.3-6.7-3.3c-3.6,0-3.4,1.5-1.9,3.4
		c1.5,1.9,4.2,5,7,5C40.5,411.9,42.4,412,42.4,412"/>
	<path class="st0" d="M63.1,423.3c0,0,1.9-2.2,3.2-4.1c1.4-1.9,2.1-4,2.1-4s2.1,1.8,4.2,2.9c2.1,1.1,4.4,2.4,4.4,2.4s-2,2.7-3.3,4.9
		c-1.4,2.2-2,3.3-2,3.3s-2-1.8-4.2-3.2C65.6,424.4,63.1,423.3,63.1,423.3"/>
	<path class="st0" d="M113,477.5c0,0,1.9-2.2,3.2-4.1c1.4-1.9,2.1-4,2.1-4s2.1,1.8,4.2,2.9c2.1,1.1,4.4,2.4,4.4,2.4s-2,2.7-3.3,4.9
		c-1.4,2.2-2,3.3-2,3.3s-2-1.8-4.2-3.2C115.5,478.5,113,477.5,113,477.5"/>
	<path class="st0" d="M169.9,422.7c0,0,1.9-2.2,3.2-4.1c1.4-1.8,2.3-3.8,2.3-3.8s2,1.6,4,2.7c2.1,1.1,4.4,2.4,4.4,2.4
		s-2,2.7-3.3,4.9c-1.4,2.2-2,3.3-2,3.3s-2.2-1.8-4.3-3C172.1,423.9,169.9,422.7,169.9,422.7"/>
	<path class="st0" d="M157.9,423.5c0,0,1.9-2.2,3.2-4.1c1.4-1.9,2.3-3.8,2.3-3.8s2,1.6,4,2.7c2.1,1.1,4.4,2.4,4.4,2.4
		s-2,2.7-3.3,4.9c-1.4,2.2-2,3.3-2,3.3s-2.2-1.8-4.3-3C160.2,424.8,157.9,423.5,157.9,423.5"/>
	<path class="st0" d="M473.1,401.9c0,0,1.9-2.2,3.2-4.1c1.4-1.9,2.3-3.8,2.3-3.8s2,1.6,4,2.7c2.1,1.1,4.4,2.4,4.4,2.4
		s-2,2.7-3.3,4.9c-1.4,2.2-2,3.3-2,3.3s-2.2-1.8-4.3-3C475.4,403.2,473.1,401.9,473.1,401.9"/>
	<path class="st0" d="M461.9,404.3c0,0,1.9-2.2,3.2-4.1c1.4-1.9,2.3-3.8,2.3-3.8s2,1.6,4,2.7c2.1,1.1,4.4,2.4,4.4,2.4
		s-2,2.7-3.3,4.9c-1.4,2.2-2,3.3-2,3.3s-2.2-1.8-4.3-3C464.1,405.6,461.9,404.3,461.9,404.3"/>
	<path class="st0" d="M379.6,420.7c0,0,1.9-2.2,3.2-4.1c1.4-1.9,2.3-3.8,2.3-3.8s2,1.6,4,2.7c2.1,1.1,4.4,2.4,4.4,2.4
		s-2,2.7-3.3,4.9c-1.4,2.2-2,3.3-2,3.3s-2.2-1.8-4.3-3C381.9,422,379.6,420.7,379.6,420.7"/>
	<path class="st0" d="M409.9,484c0,0,1.9-2.2,3.2-4.1c1.4-1.8,2.3-3.8,2.3-3.8s2,1.6,4,2.7c2.1,1.1,4.4,2.4,4.4,2.4s-2,2.7-3.3,4.9
		c-1.4,2.2-2,3.3-2,3.3s-2.2-1.8-4.3-3C412.1,485.3,409.9,484,409.9,484"/>
	<path class="st0" d="M636,416.1c0,0,1.9-2.2,3.2-4.1c1.4-1.9,2.3-3.8,2.3-3.8s2,1.6,4,2.7c2.1,1.1,4.4,2.4,4.4,2.4s-2,2.7-3.3,4.9
		c-1.4,2.2-2,3.3-2,3.3s-2.2-1.8-4.3-3C638.3,417.4,636,416.1,636,416.1"/>
	<path class="st0" d="M627.3,402.7c0,0,1.9-2.2,3.2-4.1c1.4-1.9,2.3-3.8,2.3-3.8s2,1.6,4,2.7c2.1,1.1,4.4,2.4,4.4,2.4
		s-2,2.7-3.3,4.9c-1.4,2.2-2,3.3-2,3.3s-2.2-1.8-4.3-3C629.5,404,627.3,402.7,627.3,402.7"/>
	<path class="st0" d="M624.4,417.1c0,0,1.9-2.2,3.2-4.1c1.4-1.9,2.3-3.8,2.3-3.8s2,1.6,4,2.7c2.1,1.1,4.4,2.4,4.4,2.4
		s-2,2.7-3.3,4.9c-1.4,2.2-2,3.3-2,3.3s-2.2-1.8-4.3-3C626.6,418.3,624.4,417.1,624.4,417.1"/>
	<path class="st0" d="M-0.2,402.2c0,0,1.9-2.2,3.2-4.1c1.4-1.8,2.3-3.8,2.3-3.8s2,1.6,4,2.7c2.1,1.1,4.4,2.4,4.4,2.4s-2,2.7-3.3,4.9
		c-1.4,2.2-2,3.3-2,3.3s-2.2-1.8-4.3-3C2.1,403.5-0.2,402.2-0.2,402.2"/>
	<path class="st0" d="M-11.3,404.1c0,0,1.9-2.2,3.2-4.1c1.4-1.8,2.3-3.8,2.3-3.8s2,1.6,4,2.7c2.1,1.1,4.4,2.4,4.4,2.4
		s-2,2.7-3.3,4.9c-1.4,2.2-2,3.3-2,3.3s-2.2-1.8-4.3-3C-9,405.4-11.3,404.1-11.3,404.1"/>
	<path class="st0" d="M46.6,494.5c-1.4-1.2-0.4-3.4,1.4-3.1c1.5,0.3,3.1,0.5,4.8,0.5c4.4,0,9.7-1.6,16.1-8.9
		c6.4-7.2,7.4-11.1,7.4-14.8c0-7-7.8-12-7.8-12l5.8-8.5c0,0,2.7,2.4,4.5,4.1c1.7,1.7,9.3,2.3,15.8,0.4c6.5-1.9,15.8-5.7,19.1-6.4
		s7-2,7-2s-11.2-6.4-18.8-6.4c-4.1,0-7.5,1.2-9.9,2.2c-1.1,0.5-2.2-0.7-1.7-1.8c2.1-4.3,6.3-11,12.1-11c8.6,0,17.3,6.8,25,9
		c11.8,3.2,26,2.9,26,2.9l-3.3,9.4l-12.5-0.5l-0.5,2.4c-0.3,1.8,1,3.4,2.7,3.4h18.9c6,0,16-9,16-9s1.8,9,7.9,9h7.9
		c5.6,0,10.1-4.5,9.6-14.2c-0.4-8-5.1-49.1-4.8-49.2c0.3-0.1,6.5-7.2,6.5-7.2s3.8,40.8,4.6,51.5c0.7,10.7,2.8,18.9,9.1,18.9h11.6
		c5.4,0,9.9-1.7,9.9-9.6c0-12-8.7-53.4-8.7-53.4l6.4-8.7l6.9,10.3c0,0-1.7,2.3-3.2,4.4c-1.5,2.2-2.1,3.6-1.6,7.2
		c0.5,3.6,4.7,36,4.8,41.5c0.2,5.5-3.6,18.7-15.5,18.7c-12,0-9.6-0.1-14.5-0.1c-6.8,0-9-15-9-15s-3.4,14.9-12.6,14.9h-6.8
		c-6.5,0-11.1-8.4-11.1-8.4s-7.1,8.4-14.3,8.4h-15.2c-6.9,0-11.4-5-10.8-9.4c0.4-3,1.4-6.3,1.4-6.3s-6.9-1.2-18.1,4.8
		c-11.1,6-19.7,10.4-25.1,10.9c-3.4,0.3-9.3,0-9.3,0s-0.5,15.1-5.6,23.4c-5,8.3-8.3,10.9-16.9,10.9
		C52.3,497.9,48.7,496.3,46.6,494.5"/>
	<path class="st0" d="M592.1,463.6h-9.3c0,0-0.5,15.1-5.6,23.4c-5,8.3-8.3,10.9-16.9,10.9c-6,0-9.6-1.7-11.7-3.4
		c-1.4-1.2-0.4-3.4,1.4-3.1c1.5,0.3,3.1,0.5,4.8,0.5c4.4,0,9.7-1.6,16.1-8.9c6.4-7.2,7.4-11.1,7.4-14.8c0-7-7.8-12-7.8-12l5.8-8.5
		c0,0,2.7,2.4,4.5,4.1c1.7,1.7,12.6,2.8,18.8,0.2c5-2,7.3-5.9,8.3-8.5c0.3-0.7,1.2-0.7,1.5,0c1.1,3.7,3.9,9.5,10,9.5
		c9,0,10.6-1.2,12.8-4.5c1.4-2.1,3.6-6.1,5.1-8.9c0.5-1,2-0.9,2.3,0.3c0.7,2.3,1.9,5.3,4.1,7.3c3.9,3.7,7.5,1.7,7.5,0.6
		c0-1.1-4-6.1-4-6.1l6.3-8.9c0,0,3.7,3.6,3.7,10.4s-4.2,16.2-11.1,16.2c-4.7,0-7.7-2.1-9-3.4c-0.5-0.5-1.4-0.4-1.8,0.2
		c-1.7,2.4-7.2,7.4-12.6,7.4h-6.4c-4.1,0-6.9-3.7-8.3-6.1c-0.5-0.9-1.6-1-2.4-0.3C603.1,459.5,597.8,463.6,592.1,463.6"/>
	<path class="st0" d="M288.5,426.7c-9.7,0-12.7,22.2-12.7,25.1c0,2.9,1.7,10.7,10.6,10.7c7.4,0,15.6-2.7,15.6-11
		S298.2,426.7,288.5,426.7 M288.5,451.2c-2.1,0-7.3,0-6.8-5.4c0.2-2.1,1.3-6.7,4.4-6.7c4.3,0,10.9,5.7,10.9,9.4
		C297,450.7,289.1,451.2,288.5,451.2"/>
	<path class="st0" d="M-15.9,557.8V509H2c3.1,0,5.5,0.2,7.2,0.5c2.3,0.4,4.3,1.2,5.8,2.3c1.6,1.1,2.8,2.7,3.8,4.7
		c1,2,1.4,4.2,1.4,6.7c0,4.1-1.3,7.7-3.8,10.5s-7.2,4.3-13.9,4.3H-9.6v19.8H-15.9z M-9.6,532.2H2.6c4,0,6.9-0.8,8.6-2.3
		c1.7-1.6,2.5-3.7,2.5-6.6c0-2-0.5-3.8-1.5-5.2c-1-1.5-2.3-2.4-4-2.9c-1.1-0.3-3-0.4-5.8-0.4H-9.6V532.2z"/>
	<path class="st0" d="M49.8,553.4c-2.2,1.9-4.2,3.2-6.2,4c-2,0.8-4.1,1.2-6.4,1.2c-3.8,0-6.7-0.9-8.7-2.8s-3-4.3-3-7.3
		c0-1.7,0.4-3.3,1.1-4.7c0.8-1.4,1.8-2.6,3-3.4c1.2-0.9,2.6-1.5,4.2-2c1.1-0.3,2.9-0.6,5.2-0.9c4.7-0.6,8.1-1.3,10.4-2.1
		c0-0.8,0-1.3,0-1.6c0-2.4-0.5-4.2-1.6-5.2c-1.5-1.4-3.7-2-6.6-2c-2.7,0-4.7,0.5-6.1,1.5c-1.3,1-2.3,2.7-2.9,5.2l-5.7-0.8
		c0.5-2.5,1.4-4.5,2.6-6.1c1.2-1.5,2.9-2.7,5.1-3.6c2.2-0.8,4.8-1.2,7.8-1.2c2.9,0,5.3,0.4,7.1,1.1s3.2,1.6,4,2.7
		c0.9,1.1,1.5,2.4,1.8,4.1c0.2,1,0.3,2.9,0.3,5.5v8c0,5.6,0.1,9.1,0.4,10.6c0.2,1.5,0.7,2.9,1.5,4.2H51
		C50.4,556.5,50,555.1,49.8,553.4 M49.3,540c-2.1,0.9-5.3,1.6-9.5,2.3c-2.4,0.4-4.1,0.8-5.1,1.2c-1,0.4-1.8,1.1-2.3,1.9
		c-0.5,0.9-0.8,1.8-0.8,2.8c0,1.6,0.6,2.9,1.8,4c1.2,1.1,2.9,1.6,5.1,1.6c2.2,0,4.2-0.5,6-1.5c1.7-1,3-2.4,3.8-4.1
		c0.6-1.4,0.9-3.3,0.9-6V540z"/>
	<path class="st0" d="M64.2,557.8v-35.3h5.2v5c2.5-3.9,6.2-5.8,10.9-5.8c2.1,0,4,0.4,5.7,1.1c1.7,0.8,3,1.8,3.9,3
		c0.9,1.2,1.5,2.7,1.8,4.4c0.2,1.1,0.3,3,0.3,5.8v21.7h-5.8v-21.5c0-2.4-0.2-4.3-0.7-5.5c-0.5-1.2-1.3-2.2-2.4-2.9s-2.5-1.1-4.1-1.1
		c-2.5,0-4.6,0.8-6.4,2.4c-1.8,1.6-2.7,4.7-2.7,9.2v19.3H64.2z"/>
	<path class="st0" d="M123.2,557.8v-4.5c-2.2,3.5-5.4,5.3-9.6,5.3c-2.7,0-5.2-0.8-7.5-2.3c-2.3-1.6-4.1-3.7-5.3-6.5
		c-1.3-2.8-1.9-6-1.9-9.6c0-3.5,0.6-6.7,1.7-9.6c1.1-2.9,2.9-5.1,5.1-6.6c2.3-1.5,4.8-2.3,7.6-2.3c2.1,0,3.9,0.4,5.5,1.3
		c1.6,0.9,2.9,2.1,3.9,3.5V509h5.8v48.8H123.2z M104.8,540.1c0,4.5,0.9,7.9,2.8,10.1c1.9,2.2,4,3.4,6.6,3.4c2.5,0,4.7-1.1,6.5-3.2
		c1.8-2.1,2.7-5.4,2.7-9.8c0-4.8-0.9-8.4-2.7-10.6c-1.8-2.3-4-3.4-6.7-3.4c-2.6,0-4.7,1.1-6.5,3.3
		C105.7,532,104.8,535.5,104.8,540.1"/>
	<path class="st0" d="M160.1,553.4c-2.2,1.9-4.2,3.2-6.2,4c-2,0.8-4.1,1.2-6.4,1.2c-3.8,0-6.7-0.9-8.7-2.8s-3-4.3-3-7.3
		c0-1.7,0.4-3.3,1.1-4.7c0.8-1.4,1.8-2.6,3-3.4c1.2-0.9,2.6-1.5,4.2-2c1.1-0.3,2.9-0.6,5.2-0.9c4.7-0.6,8.1-1.3,10.4-2.1
		c0-0.8,0-1.3,0-1.6c0-2.4-0.5-4.2-1.6-5.2c-1.5-1.4-3.7-2-6.6-2c-2.7,0-4.7,0.5-6.1,1.5c-1.3,1-2.3,2.7-2.9,5.2l-5.7-0.8
		c0.5-2.5,1.4-4.5,2.6-6.1c1.2-1.5,2.9-2.7,5.1-3.6c2.2-0.8,4.8-1.2,7.8-1.2c2.9,0,5.3,0.4,7.1,1.1c1.8,0.7,3.2,1.6,4,2.7
		c0.9,1.1,1.5,2.4,1.8,4.1c0.2,1,0.3,2.9,0.3,5.5v8c0,5.6,0.1,9.1,0.4,10.6c0.2,1.5,0.7,2.9,1.5,4.2h-6.1
		C160.6,556.5,160.2,555.1,160.1,553.4 M159.6,540c-2.1,0.9-5.3,1.6-9.5,2.3c-2.4,0.4-4.1,0.8-5.1,1.2c-1,0.4-1.8,1.1-2.3,1.9
		c-0.5,0.9-0.8,1.8-0.8,2.8c0,1.6,0.6,2.9,1.8,4c1.2,1.1,2.9,1.6,5.1,1.6c2.2,0,4.2-0.5,6-1.5s3-2.4,3.8-4.1c0.6-1.4,0.9-3.3,0.9-6
		V540z"/>
	<path class="st0" d="M193.7,557.8V509h21c4.2,0,7.4,0.4,9.6,1.3c2.2,0.9,3.9,2.4,5.3,4.6c1.3,2.2,2,4.7,2,7.4
		c0,3.5-1.1,6.4-3.3,8.7c-2.2,2.4-5.5,3.9-10.1,4.5c1.7,0.8,2.9,1.6,3.8,2.4c1.8,1.7,3.6,3.9,5.2,6.5l8.2,13.3h-7.9l-6.3-10.1
		c-1.8-2.9-3.3-5.2-4.5-6.7c-1.2-1.6-2.2-2.6-3.2-3.3c-0.9-0.6-1.9-1.1-2.9-1.3c-0.7-0.2-1.9-0.2-3.5-0.2h-7.3v21.7H193.7z
		 M199.9,530.5h13.5c2.9,0,5.1-0.3,6.7-0.9c1.6-0.6,2.8-1.6,3.7-2.9c0.8-1.3,1.3-2.8,1.3-4.4c0-2.3-0.8-4.2-2.4-5.7
		c-1.6-1.5-4.2-2.2-7.7-2.2h-15V530.5z"/>
	<path class="st0" d="M264,546.4l6,0.8c-0.9,3.6-2.7,6.4-5.3,8.4c-2.6,2-5.8,3-9.8,3c-5,0-9-1.6-11.9-4.8c-2.9-3.2-4.4-7.6-4.4-13.4
		c0-5.9,1.5-10.6,4.5-13.8c3-3.3,6.8-4.9,11.6-4.9c4.6,0,8.3,1.6,11.2,4.8c2.9,3.2,4.4,7.7,4.4,13.6c0,0.4,0,0.9,0,1.6h-25.6
		c0.2,3.9,1.3,6.9,3.2,8.9c1.9,2.1,4.3,3.1,7.2,3.1c2.1,0,3.9-0.6,5.5-1.7C261.9,550.8,263.1,548.9,264,546.4 M244.9,536.7h19.1
		c-0.3-3-1-5.2-2.2-6.7c-1.8-2.3-4.2-3.5-7.2-3.5c-2.7,0-4.9,0.9-6.7,2.8C246.1,531.2,245.1,533.6,244.9,536.7"/>
	<path class="st0" d="M290,552.4l0.8,5.3c-1.6,0.4-3.1,0.5-4.4,0.5c-2.1,0-3.7-0.3-4.9-1c-1.2-0.7-2-1.6-2.5-2.7
		c-0.5-1.1-0.7-3.5-0.7-7.1v-20.3h-4.3v-4.7h4.3v-8.7l5.8-3.6v12.3h5.8v4.7h-5.8v20.7c0,1.7,0.1,2.8,0.3,3.3c0.2,0.5,0.5,0.9,1,1.2
		c0.5,0.3,1.1,0.4,2,0.4C288.1,552.6,288.9,552.6,290,552.4"/>
	<path class="st0" d="M318,553.4c-2.2,1.9-4.2,3.2-6.2,4c-2,0.8-4.1,1.2-6.4,1.2c-3.8,0-6.7-0.9-8.7-2.8c-2-1.9-3-4.3-3-7.3
		c0-1.7,0.4-3.3,1.1-4.7c0.8-1.4,1.8-2.6,3-3.4c1.2-0.9,2.6-1.5,4.2-2c1.1-0.3,2.9-0.6,5.2-0.9c4.7-0.6,8.1-1.3,10.4-2.1
		c0-0.8,0-1.3,0-1.6c0-2.4-0.5-4.2-1.6-5.2c-1.5-1.4-3.7-2-6.6-2c-2.7,0-4.7,0.5-6,1.5c-1.3,1-2.3,2.7-2.9,5.2l-5.7-0.8
		c0.5-2.5,1.4-4.5,2.6-6.1c1.2-1.5,2.9-2.7,5.1-3.6c2.2-0.8,4.8-1.2,7.8-1.2c2.9,0,5.3,0.4,7.1,1.1s3.2,1.6,4,2.7
		c0.9,1.1,1.5,2.4,1.8,4.1c0.2,1,0.3,2.9,0.3,5.5v8c0,5.6,0.1,9.1,0.4,10.6c0.2,1.5,0.7,2.9,1.5,4.2h-6.1
		C318.6,556.5,318.2,555.1,318,553.4 M317.5,540c-2.1,0.9-5.3,1.6-9.5,2.3c-2.4,0.4-4.1,0.8-5.1,1.2c-1,0.4-1.8,1.1-2.3,1.9
		c-0.5,0.9-0.8,1.8-0.8,2.8c0,1.6,0.6,2.9,1.8,4s2.9,1.6,5.1,1.6c2.2,0,4.2-0.5,6-1.5s3-2.4,3.8-4.1c0.6-1.4,0.9-3.3,0.9-6V540z"/>
	<path class="st0" d="M332.4,509h5.8v6.9h-5.8V509z M332.4,522.4h5.8v35.3h-5.8V522.4z"/>
	<rect x="347" y="509" class="st0" width="5.8" height="48.8"/>
	<path class="st0" d="M414.6,540.7l6.3,1.6c-1.3,5.3-3.7,9.3-7.1,12.1c-3.4,2.8-7.6,4.2-12.5,4.2c-5.1,0-9.2-1.1-12.4-3.2
		c-3.2-2.1-5.6-5.2-7.3-9.3c-1.7-4.1-2.5-8.4-2.5-13.1c0-5.1,0.9-9.5,2.8-13.3c1.9-3.8,4.6-6.7,8-8.6c3.5-2,7.3-2.9,11.5-2.9
		c4.7,0,8.7,1.2,11.9,3.7c3.2,2.5,5.5,6,6.7,10.5l-6.2,1.5c-1.1-3.5-2.7-6.1-4.8-7.8c-2.1-1.6-4.7-2.4-7.9-2.4
		c-3.6,0-6.7,0.9-9.1,2.7c-2.4,1.8-4.2,4.2-5.1,7.2s-1.5,6.1-1.5,9.4c0,4.1,0.6,7.8,1.8,10.9c1.2,3.1,3,5.4,5.5,6.9
		c2.5,1.5,5.2,2.3,8,2.3c3.5,0,6.5-1,8.9-3.1S413.8,544.8,414.6,540.7"/>
	<path class="st0" d="M425.7,540.1c0-6.5,1.8-11.4,5.3-14.5c2.9-2.6,6.5-3.9,10.8-3.9c4.7,0,8.6,1.6,11.6,4.8
		c3,3.2,4.5,7.6,4.5,13.2c0,4.5-0.7,8.1-2,10.7c-1.3,2.6-3.2,4.6-5.8,6.1c-2.5,1.4-5.3,2.2-8.3,2.2c-4.8,0-8.7-1.6-11.6-4.8
		C427.2,550.6,425.7,546.1,425.7,540.1 M431.7,540.1c0,4.5,1,7.9,2.9,10.2c1.9,2.3,4.3,3.4,7.2,3.4c2.9,0,5.3-1.1,7.2-3.4
		c1.9-2.3,2.9-5.7,2.9-10.3c0-4.4-1-7.7-2.9-9.9c-1.9-2.2-4.3-3.4-7.2-3.4c-2.9,0-5.3,1.1-7.2,3.4
		C432.6,532.2,431.7,535.6,431.7,540.1"/>
	<path class="st0" d="M464.6,557.8v-35.3h5.2v5c1.1-1.7,2.5-3.1,4.3-4.2c1.8-1.1,3.8-1.6,6.1-1.6c2.5,0,4.6,0.5,6.2,1.6
		c1.6,1.1,2.8,2.6,3.4,4.6c2.7-4.1,6.2-6.2,10.6-6.2c3.4,0,6,1,7.8,2.9c1.8,1.9,2.7,4.9,2.7,9v24.3h-5.8v-22.3
		c0-2.4-0.2-4.1-0.6-5.2c-0.4-1.1-1.1-1.9-2-2.5c-1-0.6-2.2-1-3.5-1c-2.4,0-4.4,0.8-6,2.5c-1.6,1.7-2.4,4.3-2.4,7.9v20.5H485v-23
		c0-2.7-0.5-4.7-1.4-6c-0.9-1.3-2.5-2-4.6-2c-1.6,0-3.1,0.4-4.5,1.3c-1.4,0.9-2.4,2.2-3,3.9c-0.6,1.7-0.9,4.2-0.9,7.4v18.3H464.6z"
		/>
	<path class="st0" d="M519.7,571.3v-48.9h5.3v4.6c1.2-1.8,2.7-3.1,4.2-4c1.6-0.9,3.5-1.3,5.7-1.3c2.9,0,5.5,0.8,7.7,2.3
		c2.2,1.6,3.9,3.7,5.1,6.6c1.1,2.8,1.7,5.9,1.7,9.3c0,3.6-0.6,6.9-1.9,9.8c-1.3,2.9-3.1,5.1-5.5,6.7c-2.4,1.5-4.9,2.3-7.6,2.3
		c-1.9,0-3.7-0.4-5.2-1.3c-1.5-0.8-2.8-1.9-3.8-3.2v17.2H519.7z M524.9,540.3c0,4.5,0.9,7.9,2.7,10.1s3.9,3.3,6.5,3.3
		c2.6,0,4.8-1.1,6.6-3.4c1.8-2.3,2.8-5.7,2.8-10.5c0-4.5-0.9-7.9-2.7-10.1c-1.8-2.2-3.9-3.4-6.4-3.4c-2.5,0-4.7,1.2-6.6,3.6
		C525.9,532.3,524.9,535.8,524.9,540.3"/>
	<path class="st0" d="M578.8,553.4c-2.2,1.9-4.2,3.2-6.2,4s-4.1,1.2-6.4,1.2c-3.8,0-6.7-0.9-8.7-2.8c-2-1.9-3-4.3-3-7.3
		c0-1.7,0.4-3.3,1.1-4.7c0.8-1.4,1.8-2.6,3-3.4c1.2-0.9,2.6-1.5,4.2-2c1.1-0.3,2.9-0.6,5.2-0.9c4.7-0.6,8.1-1.3,10.4-2.1
		c0-0.8,0-1.3,0-1.6c0-2.4-0.5-4.2-1.6-5.2c-1.5-1.4-3.7-2-6.6-2c-2.7,0-4.7,0.5-6,1.5c-1.3,1-2.3,2.7-2.9,5.2l-5.7-0.8
		c0.5-2.5,1.4-4.5,2.6-6.1c1.2-1.5,2.9-2.7,5.1-3.6c2.2-0.8,4.8-1.2,7.8-1.2c2.9,0,5.3,0.4,7.1,1.1s3.2,1.6,4,2.7
		c0.9,1.1,1.5,2.4,1.8,4.1c0.2,1,0.3,2.9,0.3,5.5v8c0,5.6,0.1,9.1,0.4,10.6c0.2,1.5,0.7,2.9,1.5,4.2h-6.1
		C579.3,556.5,578.9,555.1,578.8,553.4 M578.3,540c-2.1,0.9-5.3,1.6-9.5,2.3c-2.4,0.4-4.1,0.8-5.1,1.2c-1,0.4-1.8,1.1-2.3,1.9
		c-0.5,0.9-0.8,1.8-0.8,2.8c0,1.6,0.6,2.9,1.8,4c1.2,1.1,2.9,1.6,5.1,1.6c2.2,0,4.2-0.5,6-1.5c1.7-1,3-2.4,3.8-4.1
		c0.6-1.4,0.9-3.3,0.9-6V540z"/>
	<path class="st0" d="M593.2,557.8v-35.3h5.2v5c2.5-3.9,6.2-5.8,10.9-5.8c2.1,0,4,0.4,5.7,1.1c1.7,0.8,3,1.8,3.9,3
		c0.9,1.2,1.5,2.7,1.8,4.4c0.2,1.1,0.3,3,0.3,5.8v21.7h-5.8v-21.5c0-2.4-0.2-4.3-0.7-5.5c-0.5-1.2-1.3-2.2-2.4-2.9
		c-1.2-0.7-2.5-1.1-4-1.1c-2.5,0-4.6,0.8-6.4,2.4c-1.8,1.6-2.7,4.7-2.7,9.2v19.3H593.2z"/>
	<path class="st0" d="M629.6,571.4l-0.6-5.6c1.3,0.4,2.4,0.5,3.3,0.5c1.3,0,2.3-0.2,3.1-0.7c0.8-0.4,1.4-1.1,1.9-1.9
		c0.4-0.6,1-2.1,1.8-4.5c0.1-0.3,0.3-0.8,0.5-1.5l-13-35.4h6.3l7.1,20.5c0.9,2.6,1.8,5.3,2.5,8.2c0.7-2.7,1.5-5.4,2.4-8.1l7.3-20.6
		h5.8l-13,35.9c-1.4,3.9-2.5,6.6-3.3,8c-1,2-2.2,3.4-3.5,4.3c-1.3,0.9-2.9,1.4-4.8,1.4C632.3,572.1,631,571.9,629.6,571.4"/>
</g>
</svg>
