<svg version="1.2" xmlns="http://www.w3.org/2000/svg" viewBox="0 0 1550 457" width="1550" height="457">
	<title>enaya_saudi_en-2-pdf-svg</title>
	<defs>
		<clipPath clipPathUnits="userSpaceOnUse" id="cp1">
			<path d="m-593.92-6488.6h5239.72v7409.6h-5239.72z"/>
		</clipPath>
	</defs>
	<style>
		.s0 { fill: #a2a9ab } 
		.s1 { fill: #1d8549 } 
		.s2 { fill: #0265a8 } 
	</style>
	<g id="Clip-Path: Page 1" clip-path="url(#cp1)">
		<g id="Page 1">
			<path id="Path 11" class="s0" d="m105.6 404.9c0-11.5-4.4-20.3-14.1-25.5-7-4.4-20.7-8-41.8-11.9q-15.8-2.7-22-6.2-7.9-3.9-7.9-11.9c0-4.4 0-17.1 32.6-17.1q17.1 0 25 4.4 9.3 5.3 10.6 21.5v2.2h15.4v-2.6c-0.5-26.8-17.6-40.5-51-40.5-31.7 0-48 11-48 32.1 0 11.5 5.7 19.8 17.2 25.6 5.2 2.6 14.9 5.7 29.4 8.8q19 3.5 23.8 5.2 8.3 2.2 11.9 5.3 3.5 3.5 3.5 10.1c0 6.6-3.5 11-11 14.6q-9.2 3.9-23.3 3.9c-26.9 0-39.6-8.8-39.6-26.4v-7h-15.9v7.5c0 14.9 6.2 25.5 18.5 32.5 9.3 5.3 21.6 8.4 37 8.4q18.5 0 31.6-6.6c11.9-5.7 18.1-14.5 18.1-26.4zm66.9-84.9l-56.8 117.9h17.6l16.3-35.2h36.9l7.1-14.5h-36.5l21.5-44.5 43.1 94.2h17.6l-54.5-117.9zm736.4 0l-56.7 117.9h17.6l16.3-35.2h36.9l7.1-14.5h-36.6l21.6-44.5 43.1 94.2h17.6l-54.5-117.9zm-606.3 102.9c-24.6 0-36.1-10.1-36.1-31.7v-72.6h-15.8v72.6c0 30.8 17.6 46.7 51.9 46.7 16.7 0 29.5-3.5 37.9-11 9.2-7.5 14-19.4 14-35.2v-73.1h-15.8v73.1c0 21.1-11.4 31.2-36.1 31.2z"/>
			<path id="Path 12" fill-rule="evenodd" class="s0" d="m468.5 422.9c-11.4 9.7-27.7 15-47.5 15h-42.6v-117.9h48.8c19.8 0 34.7 5.2 45.3 15.8 9.7 10.6 15 24.6 15 43.1 0 18.9-6.6 33.9-19 44zm3.1-44c0-14.5-3.5-25.5-11-33-7-7.5-18.5-11-33.4-11h-33v88h27.3c15.8 0 28.6-3.9 37.4-11 8.3-7.5 12.7-18.5 12.7-33zm37-58.9h15.8v117.9h-15.8zm130.2 102.9h78.7v15h-94.1v-117.9h93.3v14.9h-77.9v34.4h69.1v14.5h-69.1zm184.3-13.7l2.2 2.2v-91.5h15.4v117.9h-14l-74.8-89.3-1.8-2.6v91.9h-15.8v-117.9h14l0.9 0.9c9.3 11.9 22.9 28.2 40.1 48.4 15.8 18 26.4 30.8 33.8 40zm262.2-89.3l-57.6 62.1v55.8h-15.8v-55.8l-58.5-62.1h21.1l44.8 48 45.8-48zm46.6 0l54.6 117.9h-17.6l-43.1-93.7-21.6 44h36.5l-7 15h-37l-16.2 34.7h-17.6l56.7-117.9zm-971.4-33.4c-5.1 0-9.2-4.3-9.2-9.7 0-5.4 4.1-9.7 9.2-9.7 5.1 0 9.3 4.3 9.3 9.7 0 5.4-4.2 9.7-9.3 9.7zm-14.5-9.7c0 5.3-4 9.7-9.2 9.7h-0.5c-5.3 0-8.8-4.4-8.8-9.7 0-5.3 4-9.7 9.3-9.7 5.2 0 9.2 4 9.2 9.7zm758 9.7c-5.1 0-9.2-4.3-9.2-9.7 0-5.4 4.1-9.7 9.2-9.7 5.1 0 9.3 4.3 9.3 9.7 0 5.4-4.2 9.7-9.3 9.7zm-14.9-9.7c0 5.3-4 9.7-8.8 9.7h-0.5c-5.2 0-9.2-4.4-9.2-9.7 0-5.3 4.4-9.7 9.7-9.7 4.8 0 8.8 4 8.8 9.7zm-81-107.4c-5.1 0-9.2-4.3-9.2-9.6 0-5.4 4.1-9.7 9.2-9.7 5.1 0 9.3 4.3 9.3 9.7 0 5.3-4.2 9.6-9.3 9.6zm-14.5-9.6c0 5.7-4 9.6-9.2 9.6h-0.5c-5.3 0-9.2-3.9-9.2-9.6 0-5.3 4.4-9.7 9.7-9.7 5.2 0 9.2 4.4 9.2 9.7zm244.4 9.6c-5.2 0-9.5-4.3-9.5-9.6 0-5.4 4.3-9.7 9.5-9.7 5.2 0 9.4 4.3 9.4 9.7 0 5.3-4.2 9.6-9.4 9.6zm-973.2 0c-5.2 0-9.4-4.3-9.4-9.6 0-5.4 4.2-9.7 9.4-9.7 5.3 0 9.5 4.3 9.5 9.7 0 5.3-4.2 9.6-9.5 9.6zm-23.9 0c-5.2 0-9.3-4.3-9.3-9.6 0-5.4 4.1-9.7 9.3-9.7 5.1 0 9.2 4.3 9.2 9.7 0 5.3-4.1 9.6-9.2 9.6zm137.7 87.2l6.1-15h57.7l-6.2-26.8q-3.5-18.5-18.9-18.5c-5.3 0-11.5 2.6-15.4 5.3l-3.1 2.2-3.1-14.6 1.3-0.8c2.2-1.8 11.5-7.1 22-7.1 17.2 0 29.5 11 33.9 30.8l10.1 44.5z"/>
			<path id="Path 13" fill-rule="evenodd" class="s0" d="m586.4 246.5l-1.3-1.3-0.4 1.3c-4.4 6.1-11.5 10.1-18.9 10.1q-13.7 0-22-10.1l-0.9-1.3-0.9 1.3c-4.4 6.1-11.4 10.1-18.9 10.1h-179.5v0.9c-0.4 7.9-3.5 14.9-8.8 20.2-5.7 5.7-13.6 8.8-22.4 8.8h-2.7l-2.2-14.1 2.2-0.4c11-1.8 15-4.4 16.3-14.1v-1.3h-11.9c-21.5 0-35.6-14.5-35.6-36.1 0-23.3 14.1-39.6 34.7-39.6 20.7 0 30.8 11.5 30.8 35.2v25.5h55.9l-0.9-1.7c-5.3-7.9-7.9-17.6-7.9-28.6 0-28.6 20.2-48.9 49.3-48.9 10.5 0 18.9 2.7 23.3 4.9l0.4 0.4-3.9 14.1-0.9-0.4c-5.7-3.1-11.9-4.4-18.9-4.4-21.6 0-31.3 17.1-31.3 33.4 0 15 7.1 26.4 18.5 31.2h90.7c11 0 11.8-11.8 11.8-16.7v-31.2h17.6v32.5c0 7.5 5.3 15.4 13.7 15.4 7.4 0 11.8-6.1 11.8-16.7v-36.9h17.2v38.2c0 7.5 4.8 15.4 13.2 15.4 5.7 0 12.8-3.5 12.8-18.9v-41.8h17.1v45.3c0 7.1 4.9 15 13.7 15.4 5.7 0 12.3-3.5 12.3-18.9v-72.6h17.1v73.9c0 23.8-13.2 32.6-25 32.6q-14.1-0.4-22-10.6l-0.9-1.3-0.9 1.3c-6.6 9.7-16.7 10.6-19.4 10.6q-14 0-22-10.1zm-260-35.2c0-7.9-3.5-16.7-14.5-16.7-3.9 0-7.9 1.7-11 4.8-3.9 4-6.1 11-6.1 20.2 0.4 14.6 7.4 22 22.4 22h9.2zm366.5-61.1h17.2v106h-17.2zm51 65.1c0-21.1 15.9-33.8 43.2-33.8h36v41.3c0 13.7 3.1 18.9 11.5 18.9h49.2c5.8 0 12.8-3 12.8-18.9v-41.3h17.2v42.6c0 24.2-13.7 32.6-25.1 32.6h-55c-7 0-16.7-3.1-22.9-11.4-4.8-7.1-4.8-19.8-4.8-21.6v-27.7h-22c-6.6 0-22.5 1.7-22.5 18.9 0 17.2 17.2 18.5 22.5 18.5 1.7 0 11.9 0 13.2 0h4.4l-10.1 14.5c-3.1 0-5.8 0-7.1 0-0.6 0-1.9 0-2.2 0-17.6 0-38.3-8.4-38.3-32.6zm184.8 8.8v-73.9h17.2v72.6c0 18.9 8.8 18.9 11.9 18.9h60.7c7.4 0 11.8-6.1 11.8-16.7v-43.5h17.6v44.8c0 4.4 1.4 8.4 4.4 11.5 1.8 1.7 4.9 3.9 9.3 3.9h50.1l-1.3-1.7c-5.3-7.9-7.9-17.6-7.9-28.2 0-29 20.2-49.3 49.7-49.3 10.1 0 18.9 2.7 22.9 4.9l0.4 0.4-3.9 14.1-0.9-0.4q-7.9-4-18.5-4c-22 0-31.7 16.7-31.7 33.4 0 14.6 7.1 26 18.5 30.8h48l-7.1 15h-113.9q-13.7 0-22-10.1l-0.9-1.3-0.9 1.3c-4.4 6.6-11 10.1-18.9 10.1h-68.6c-11.9 0-26-8.4-26-32.6zm-928.3-8.8c0-21.1 16.3-33.8 43.2-33.8h36v41.3c0 13.7 3.1 18.9 11.9 18.9h48.8c5.8 0 12.8-3 12.8-18.9v-41.3h17.2v42.6c0 24.2-13.7 32.6-25.1 32.6h-55c-6.6 0-16.7-3.1-22.4-11.4-5.3-7.1-5.3-19.8-5.3-21.6v-27.7h-22c-6.6 0-22.5 1.7-22.5 18.9 0 17.2 17.2 18.5 22.5 18.5 2.2 0 11.9 0 13.2 0h4.4l-10.1 14.5c-2.7 0-5.8 0-7.1 0-0.3 0-1.6 0-2.2 0-17.6 0-38.3-8.4-38.3-32.6z"/>
			<path id="Path 14" class="s1" d="m1269.2 203.8c0 0-2.6 4.8-3.9 7-20.3 34.4-26.9 74.8-19.8 113.1 5.7 29.1 19.3 57.2 41.3 80.5q1.8 1.8 3.6 3.6c19.8 19.8 42.6 33.8 67.7 41.8q1.8 0.4 3.1 0.8 0.9 0 1.7 0.5c41.8 11 87.6 5.7 125.4-17.2 1.8-0.9 2.7-1.3 4.4-2.2l1.8-1.3c9.2-5.7 24.2-4.4 24.2-4.4 16.7 1.3 31.2 11.9 31.2 11.9l-52.8-52.8c0 0-6.6-7.5-19.3-7.9 0 0-10.1 0-16.3 3.5l-0.4 0.4c-1.4 0.9-1.8 0.9-2.7 1.8-32.1 18.9-71.7 18.9-103.8 0.9q-1.3-0.9-2.7-1.8c-0.8-0.4-1.3-0.9-2.2-1.3q-9.6-6.2-17.6-14.1-7.4-7-12.7-15.4-0.4-0.9-0.9-1.8-0.9-1.7-2.2-3c-18.9-32.6-18.9-73.1 0-105.6q1.3-1.4 2.2-3.1c9.2-14.1 1.8-29.1 1.8-29.1-2.7-6.6-18.5-20.2-18.5-20.2l-38.3-38.3c0 0 9.3 11 10.6 30.4 0 0 0.9 13.6-4.9 23.3z"/>
			<path id="Path 15" fill-rule="evenodd" class="s2" d="m1321.6 153.2c19.8-11.9 41.8-17.6 63.8-17.6 11.4 0 22.4 1.3 33 4.4q0.9 0 1.7 0.4 0.9 0.5 2.2 0.5c19.4 6.1 37.4 17.1 52.4 32.1q1.3 1.3 2.6 3.1h0.5c16.7 18 27.2 39.6 31.6 62.5 5.8 29.4 0.5 60.7-15.4 87.5-0.4 1.3-0.8 1.8-2.2 3.5l-0.4 0.5c-5.7 8.8-4 19.3-4 19.3 2.2 12.8 8 23.4 8 23.4l-29.5-29.5c0 0-9.7-9.7-14.1-18.1 0 0-5.3-11 1.3-20.2v-0.4c0.5-0.9 0.9-1.4 1.4-2.2 14.9-25.1 14.9-56.4 0-81.4q-0.5-1.4-1.4-2.2-0.4-0.9-0.8-1.8-4-6.2-9.7-11.4-6.2-6.6-13.7-11 0-0.5 0-0.5-0.8-0.4-1.7-0.9-0.9-0.4-2.2-0.8c-24.7-14.6-55.5-14.1-80.1 0.4l-2.6 1.3c-4.4 3.1-12.4 2.7-12.4 2.7-7.4-0.9-13.6-4.9-17.1-8-2.2-1.7-38.7-38.7-38.7-38.7 0 0 11.4 7.1 24.2 9.3 0 0 11 1.3 18.9-3.6zm74.8-48.8c-28.7 0-51.9-23.2-51.9-51.9 0-28.7 23.2-51.9 51.9-51.9 28.7 0 51.9 23.2 51.9 51.9 0 28.7-23.2 51.9-51.9 51.9z"/>
		</g>
	</g>
</svg>