<?xml version="1.0" encoding="utf-8"?>
<!-- Generator: Adobe Illustrator 24.3.0, SVG Export Plug-In . SVG Version: 6.00 Build 0)  -->
<svg version="1.1" id="Layer_1" xmlns="http://www.w3.org/2000/svg" xmlns:xlink="http://www.w3.org/1999/xlink" x="0px" y="0px"
	 viewBox="0 0 512 512" style="enable-background:new 0 0 512 512;" xml:space="preserve">
<style type="text/css">
	.st0{fill:#522D24;}
</style>
<g id="XMLID_1_">
	<path id="XMLID_2_" class="st0" d="M391.93,195.7v119.93H512V195.7H391.93L391.93,195.7z M436.67,216.32l29.46-9.4v87.11
		l-29.46,9.96V216.32z"/>
	<path id="XMLID_5_" class="st0" d="M16.97,280.57c-3.65,0-8.98,1.12-13.05,1.96l1.82,6.73c3.51-0.7,6.73-1.54,8.84-1.54
		c4.35,0,6.03,1.4,6.03,6.31v0.14C9.26,294.6,2.1,297.54,2.1,305.82c0,5.75,4.77,10.24,10.38,10.24c3.37,0,6.59-0.14,9.54-1.96
		c0.14,0.56,0.28,0.98,0.42,1.54l6.73-0.14c0-2.1,0-4.77,0-7.15v-15.57C29.46,281.97,23,280.57,16.97,280.57 M20.76,308.34
		c-1.4,1.26-3.51,1.82-5.19,1.82c-3.23,0-5.19-1.68-5.19-4.91c0-4.07,4.77-5.05,10.52-5.19v8.28L20.76,308.34L20.76,308.34z"/>
	<path id="XMLID_8_" class="st0" d="M186.99,280.57c-3.79,0-8.98,1.12-13.05,1.96l1.82,6.73c3.51-0.7,6.73-1.54,8.84-1.54
		c4.35,0,6.03,1.4,6.03,6.31v0.14c-11.36,0.42-18.52,3.37-18.52,11.64c0,5.75,4.77,10.24,10.38,10.24c3.37,0,6.59-0.14,9.54-1.96
		c0.14,0.56,0.28,0.98,0.42,1.54l6.59-0.14c0-2.1,0.14-4.77,0.14-7.15v-15.57C199.33,281.97,192.74,280.57,186.99,280.57
		 M190.77,308.34c-1.4,1.26-3.51,1.82-5.33,1.82c-3.23,0-5.19-1.68-5.19-4.91c0-4.07,4.77-5.05,10.52-5.19V308.34z"/>
	<path id="XMLID_11_" class="st0" d="M273.81,280.57c-3.79,0-8.98,1.12-13.05,1.96l1.82,6.73c3.51-0.7,6.73-1.54,8.84-1.54
		c4.35,0,6.03,1.4,6.03,6.31v0.14c-11.36,0.42-18.52,3.37-18.52,11.64c0,5.75,4.77,10.24,10.38,10.24c3.37,0,6.59-0.14,9.54-1.96
		c0.14,0.56,0.28,0.98,0.42,1.54l6.73-0.14c0-2.1,0-4.77,0-7.15v-15.57C286.16,281.97,279.57,280.57,273.81,280.57 M277.6,308.34
		c-1.4,1.26-3.51,1.82-5.19,1.82c-3.23,0-5.19-1.68-5.19-4.91c0-4.07,4.77-5.05,10.52-5.19v8.28L277.6,308.34L277.6,308.34z"/>
	<path id="XMLID_14_" class="st0" d="M237.62,280.57c-1.96,0-3.79,0.28-5.47,0.56l0.14-14.03h-8.7v47.13
		c4.91,1.4,8.28,1.96,13.47,1.96c9.54,0,16.83-6.45,16.83-17.81C253.9,284.07,247.16,280.57,237.62,280.57 M236.92,309.04
		c-1.54,0-3.09-0.14-4.77-0.42v-19.78c1.54-0.28,3.23-0.56,5.05-0.56c3.51,0,7.72,0.28,7.72,10.24
		C244.92,305.26,241.13,309.04,236.92,309.04"/>
	<polyline id="XMLID_17_" class="st0" points="351.53,295.72 363.59,281.83 354.05,281.83 341.57,296.7 341.57,267.1 332.87,267.1 
		332.87,315.64 341.57,315.64 341.57,299.93 344.37,299.93 353.63,315.64 363.73,315.64 351.53,295.72 	"/>
	<rect id="XMLID_18_" x="58.63" y="281.83" class="st0" width="8.7" height="33.67"/>
	<path id="XMLID_19_" class="st0" d="M62.98,267.94c-2.67,0-4.63,2.1-4.63,4.63c0,2.67,2.1,4.77,4.63,4.77
		c2.67,0,4.77-2.1,4.77-4.77C67.61,269.91,65.51,267.94,62.98,267.94"/>
	<path id="XMLID_20_" class="st0" d="M92.02,280.57c-5.75,0-12.34,1.12-16.27,2.1v32.96h8.7v-26.23c2.1-0.28,4.35-0.56,6.31-0.56
		c5.75,0,6.87,3.65,6.87,9.68v17.11h8.7v-20.48C106.47,285.9,101.98,280.57,92.02,280.57"/>
	<path id="XMLID_21_" class="st0" d="M310.29,280.57c-5.61,0-12.34,1.12-16.27,2.1v32.96h8.7v-26.23c1.96-0.28,4.35-0.56,6.31-0.56
		c5.75,0,6.73,3.65,6.73,9.68v17.11h8.7v-20.48C324.87,285.9,320.25,280.57,310.29,280.57"/>
	<path id="XMLID_22_" class="st0" d="M151.92,280.57c-3.79,0-8.42,0.98-12.06,2.67c-1.68-1.4-5.05-2.67-9.54-2.67
		c-5.33,0-12.06,1.12-15.99,2.1v32.96h8.7v-26.23c1.96-0.28,4.07-0.56,6.17-0.56c5.61,0,6.59,3.65,6.59,9.68v17.11h8.7v-20.48
		c0-1.26-0.14-2.1-0.28-3.23l-0.14-0.42c0-0.28-0.14-0.56-0.14-1.12c1.96-1.12,4.77-1.68,6.59-1.68c5.61,0,6.59,3.65,6.59,9.68
		v17.11h8.7v-20.48C166.22,285.76,161.74,280.57,151.92,280.57"/>
	<path id="XMLID_23_" class="st0" d="M50.36,308.9c-2.1,0-3.79-1.12-3.79-4.91V267.1h-8.7v37.17c0,10.1,5.47,11.36,9.68,11.36
		c1.54,0,3.09,0,5.47-0.14l-0.14-6.59C52.32,308.9,50.92,308.9,50.36,308.9"/>
	<path id="XMLID_24_" class="st0" d="M346.62,211.13c-9.82,0-14.31,5.05-14.31,14.03v6.03c0,4.07-1.82,5.33-4.07,5.33h-6.03
		c-1.26-12.91-6.31-20.76-18.66-20.76c-6.03,0-14.59,1.68-23.43,4.35v-4.35l-9.54,2.95v17.96h-11.5v-23.29h-9.54v24.41
		c0,8.98-7.01,12.06-11.5,12.06l1.96,7.15c7.43,0,15.57-3.79,18.24-13.33h73.08c4.63,0,7.29-1.4,8.98-4.63c0,0,0.42,0.56,0.98,0.98
		c2.38,2.67,5.75,4.07,8.98,4.07c7.43,0,12.2-4.91,12.2-13.61v-17.11C358.82,212.11,352.37,211.13,346.62,211.13 M280.13,236.52
		v-8.28c10.66-2.95,17.11-3.79,21.88-3.79c5.61,0,9.96,3.51,10.66,12.06L280.13,236.52L280.13,236.52z M353.07,230.77
		c0,4.07-0.98,6.03-3.51,6.03c-2.24,0-4.91-2.1-7.01-5.47c-0.28-0.56-0.56-1.12-0.56-1.12v-0.56c0-6.17,0.56-9.68,6.45-9.68
		c1.54,0,3.23,0.14,4.91,0.28v10.52L353.07,230.77L353.07,230.77z M224.02,205.94c2.81,0,5.05-2.24,5.05-5.05
		c0-2.81-2.24-5.05-5.05-5.05s-5.05,2.24-5.05,5.05C218.97,203.56,221.07,205.94,224.02,205.94z M149.39,195.7v47.83h9.54V195.7
		H149.39z M130.6,231.19c0,4.07-1.82,5.33-4.07,5.33h-5.33v-40.68h-7.01v40.68h-3.65l-2.1,7.01h21.32c7.15,0,10.38-3.51,10.38-12.06
		V195.7h-9.54L130.6,231.19L130.6,231.19z M117.83,250.27c0-0.7,0.7-1.12,1.68-1.12c0.14,0,0.28,0,0.42,0.14l0.56-2.1
		c-0.56-0.14-1.26-0.14-1.68-0.14c-1.82,0-3.93,0.98-3.93,2.95c0,0.56,0.14,1.12,0.28,1.54h-0.84l-0.56,2.1h6.59l0.56-2.1h-1.68
		C118.39,251.39,117.83,250.83,117.83,250.27z M238.33,213.1c-3.65-0.98-10.24-1.96-15.99-1.96c-9.82,0-14.31,5.19-14.31,14.31
		c0,3.65,1.96,7.72,4.49,10.8c-6.73,0-16.55,0.14-16.55,0.14c-3.51,0-6.17-1.82-6.17-5.33v-11.22l-9.54,3.09v9.4
		c0,6.45,5.19,11.08,11.36,11.08h31.98c0.28,0,0.28,0,0.28,0c8.14-0.14,14.03-3.37,14.03-12.06v-18.1h0.42V213.1z M228.79,231.19
		c0,3.37-1.54,5.19-4.77,5.19c-1.68,0-6.45-5.33-6.45-9.96c0-3.51,1.54-6.45,6.31-6.45c1.54,0,3.23,0.14,4.91,0.28V231.19z
		 M97.77,195.7c-2.81,0-5.05,2.24-5.05,5.05s2.24,5.05,5.05,5.05c2.81,0,5.05-2.24,5.05-5.05S100.58,195.7,97.77,195.7z
		 M13.61,233.02c0-2.24,2.67-3.51,5.61-3.51c0.56,0,1.26,0,1.68,0.14l2.1-7.29c-1.96-0.42-3.79-0.56-5.47-0.56
		c-6.17,0-13.47,3.09-13.47,9.82c0,1.96,0.56,3.51,1.26,5.05H2.1L0,243.68h21.88l2.1-7.01h-5.47
		C15.57,236.52,13.61,235.12,13.61,233.02z M93.14,231.19c0,4.07-2.24,5.33-5.05,5.33c-3.37,0-6.31-1.82-6.31-7.86v-15.29
		c-3.79-1.12-10.24-2.1-15.99-2.1c-9.82,0-14.31,5.05-14.31,14.03v6.03c0,4.07-1.82,5.33-4.07,5.33h-3.09
		c-2.24,0-4.07-1.26-4.07-5.33v-35.35h-9.54v35.63c0,8.28,3.23,12.06,10.24,12.06h9.68c4.63,0,7.29-1.4,8.98-4.63
		c0,0,0.42,0.56,0.98,0.98c2.38,2.67,5.61,4.07,8.98,4.07c3.65,0,6.73-1.26,8.84-3.51c4.35,3.09,7.01,3.09,11.78,3.09
		c6.31,0,12.34-1.12,12.34-12.06v-18.38h-9.26v17.96L93.14,231.19L93.14,231.19z M72.1,230.77c0,4.07-0.98,6.03-3.51,6.03
		c-2.24,0-4.77-2.1-7.01-5.47c-0.42-0.56-0.56-1.12-0.56-1.12v-0.56c0-6.17,0.7-9.68,6.45-9.68c1.54,0,3.23,0.14,4.91,0.28v10.52
		L72.1,230.77L72.1,230.77z"/>
</g>
</svg>
