<?xml version="1.0" encoding="UTF-8"?>
<svg xmlns="http://www.w3.org/2000/svg" id="Layer_1" data-name="Layer 1" version="1.1" viewBox="0 0 1027 355.7">
  <defs>
    <style>
      .cls-1 {
        fill: #0e416c;
      }

      .cls-1, .cls-2, .cls-3, .cls-4 {
        stroke-width: 0px;
      }

      .cls-2 {
        fill: #3da3db;
      }

      .cls-3 {
        fill: #fff;
      }

      .cls-4 {
        fill: #003b71;
      }
    </style>
  </defs>
  <path class="cls-1" d="M44.8,218.7h31.5c12.8,0,17.5,7.7,17.5,16.6s-2.4,12.1-8.5,13.3c5.2.9,9.5,6.1,9.5,14,0,11.5-5.2,18.2-18.3,18.2h-27.8c-2.2,0-4-1.8-4-4v-58.1ZM75.7,243.3c4.3,0,6.5-2.6,6.5-7s-3.5-7.1-6.5-7.1h-18.9v14.1h18.9ZM76.1,270.3c3.6,0,6.9-1.7,6.9-8.3s-1.8-8.7-6.9-8.7h-19.4v17h19.4Z"></path>
  <path class="cls-1" d="M126,218.7h7.8c1.7,0,3.2,1.1,3.8,2.7l19.3,59.3h-9.7c-1.7,0-3.3-1.1-3.8-2.8l-3.5-11h-20.3l-3.6,11c-.5,1.6-2.1,2.7-3.8,2.7h-9.9l20-59.3c.5-1.6,2.1-2.7,3.8-2.7M137,256.5l-7-22.1-7.5,22.1h14.4Z"></path>
  <path class="cls-1" d="M172.2,218.7h8.1l24.6,40.1v-36.1c0-2.2,1.8-4,4-4h7.9v62h-11.9l-24.7-39.6v39.6h-8c-2.2,0-4-1.8-4-4v-54.1c0-2.2,1.8-4,4-4"></path>
  <path class="cls-1" d="M230.8,218.7h7.4c2.2,0,4,1.8,4,4v22h5l14.6-24c.7-1.2,2-1.9,3.4-1.9h11.6l-19,31.1,19,31h-11.6c-1.4,0-2.7-.7-3.4-1.9l-14.6-23.7h-4.9v21.7c0,2.2-1.8,4-4,4h-7.5v-62Z"></path>
  <path class="cls-1" d="M336.9,218.7h7.8c1.7,0,3.2,1.1,3.8,2.7l19.3,59.3h-9.7c-1.7,0-3.3-1.1-3.8-2.8l-3.5-11h-20.3l-3.6,11c-.5,1.6-2.1,2.7-3.8,2.7h-9.9l20-59.3c.5-1.6,2.1-2.7,3.8-2.7M347.8,256.5l-7-22.1-7.5,22.1h14.4Z"></path>
  <path class="cls-1" d="M391,269.8h22.5c2.2,0,4,1.8,4,4v7h-34.4c-2.2,0-4-1.8-4-4v-58.1h7.9c2.2,0,4,1.8,4,4v47.1Z"></path>
  <path class="cls-1" d="M427.1,269.6c7.7.7,12.1.9,12.1-8v-38.9c0-2.2,1.8-4,4-4h7.9v48.1c0,4-.3,9.7-4.5,12.5-3.6,2.3-11.4,2.9-16.6,1.9-1.8-.3-3.1-2-3-3.8v-7.8Z"></path>
  <path class="cls-1" d="M486.6,218.7h7.8c1.7,0,3.3,1.1,3.8,2.7l19.3,59.3h-9.7c-1.7,0-3.3-1.1-3.8-2.8l-3.5-11h-20.3l-3.6,11c-.5,1.6-2.1,2.7-3.8,2.7h-9.9l20-59.3c.5-1.6,2.1-2.7,3.8-2.7M497.6,256.5l-7-22.1-7.5,22.1h14.4Z"></path>
  <path class="cls-1" d="M526,269.8l28.4-40.2h-28.4v-7c0-2.2,1.8-4,4-4h34.8c2.2,0,4,1.8,4,4v7l-27,40.2h27v7c0,2.2-1.8,4-4,4h-34.8c-2.2,0-4-1.8-4-4v-7Z"></path>
  <path class="cls-1" d="M585,218.7h7.9v62h-7.9c-2.2,0-4-1.8-4-4v-54.1c0-2.2,1.8-4,4-4"></path>
  <path class="cls-1" d="M606.1,218.7h31.1c9.7,0,16.9,4.5,16.9,19.3s-6.4,17.2-9.9,18.3l11.7,24.4h-10.8c-1.6,0-3-.9-3.6-2.4l-9.2-21.1h-14.4v19.5c0,2.2-1.8,4-4,4h-7.9v-62ZM636,246.8c4.1,0,6.1-1.2,6.1-8.7s-2.4-8.8-6.1-8.8h-18v17.5h18Z"></path>
  <path class="cls-1" d="M688.9,218.7h7.8c1.7,0,3.2,1.1,3.8,2.7l19.3,59.3h-9.7c-1.7,0-3.3-1.1-3.8-2.8l-3.5-11h-20.3l-3.6,11c-.5,1.6-2.1,2.7-3.8,2.7h-9.9l20-59.3c.5-1.6,2.1-2.7,3.8-2.7M699.9,256.5l-7-22.1-7.5,22.1h14.4Z"></path>
  <path class="cls-1" d="M690.4,171.5c-5,0-8.7,4-8.7,8.9s3.8,8.9,8.7,8.9,9-4,9-8.9-4.1-8.9-9-8.9"></path>
  <path class="cls-1" d="M652.7,93.1c4.9,0,8.9-4,8.9-8.9s-4-8.9-8.9-8.9-8.8,4-8.8,8.9,3.9,8.9,8.8,8.9"></path>
  <path class="cls-1" d="M564.5,110.1v-3.1h-25.6v-4.9c0-7.6,3.2-11.5,9.8-11.5s4.1.7,6,2.1c1.7,1.3,4,1.3,5.5-.3l4.1-4.1c-4.6-4.7-9.1-7.4-14.4-7.4-13.4,0-21.3,10-21.3,22.7v3.4c-2.4,0-4.4,2-4.4,4.4v5.4h33.5c3.7,0,6.7-3,6.7-6.7"></path>
  <path class="cls-1" d="M267.6,93.1c4.9,0,8.9-4,8.9-8.9s-4-8.9-8.9-8.9-8.8,4-8.8,8.9,4,8.9,8.8,8.9"></path>
  <path class="cls-1" d="M187.8,171.9c-3.2.8-5.7,3.4-6.4,6.6-1.4,6.2,3.5,11.7,9.7,10.9,3.7-.5,6.9-3.3,7.6-6.9,1.3-6.4-4.6-12-10.9-10.5"></path>
  <path class="cls-1" d="M212.3,171.7c-4.9,0-8.7,4-8.7,8.9s3.8,8.8,8.7,8.8,8.9-4,8.9-8.8-4-8.9-8.9-8.9"></path>
  <path class="cls-1" d="M77.6,93.1c3.7-.5,6.9-3.3,7.6-6.9,1.3-6.4-4.6-12-10.9-10.5-3.2.8-5.7,3.4-6.4,6.6-1.4,6.2,3.5,11.7,9.7,10.9"></path>
  <path class="cls-1" d="M98.8,93.1c4.9,0,8.9-4,8.9-8.8s-4-8.9-8.9-8.9-8.7,4-8.7,8.9,3.8,8.8,8.7,8.8"></path>
  <path class="cls-1" d="M325.6,171.5c-4.7,0-8.7,4-8.7,8.9s4,8.9,8.7,8.9,9-4,9-8.9-4.2-8.9-9-8.9"></path>
  <path class="cls-1" d="M442.9,75.4h-10.7v84.7h10.7c2.3,0,4.2-1.9,4.2-4.2v-76.3c0-2.3-1.9-4.2-4.2-4.2"></path>
  <path class="cls-1" d="M45.4,141c0,15.7,10.2,30.6,30.6,30.6h11.7c15.8,0,30.7-10.2,30.7-30.6v-30.7h-42.4c-20.4,0-30.6,15-30.6,30.7M103.8,141c0,10.6-8.3,15.9-16,15.9h-11.7c-10.6,0-15.9-8.3-15.9-15.9s5.4-16,15.9-16h27.7v16Z"></path>
  <path class="cls-1" d="M224.2,114.6v13.1h0v17.6h-69.7v-10.3h0s0,0,0,0v-24.8h-10.5c-2.4,0-4.4,2-4.4,4.4v55c0,5.9-2.3,10.4-5.6,13.5-2,1.8-2.5,4.7-1.2,7l5.1,7.4c10.3-5.1,16.7-14.8,16.7-30.4v-7h80.3c2.4,0,4.3-1.9,4.3-4.3v-45.5h-10.6c-2.4,0-4.3,1.9-4.3,4.3"></path>
  <path class="cls-1" d="M417.8,75.4h-10.6c-2.4,0-4.3,1.9-4.3,4.3v52.3h0v13.4h-30.8c1.1-27.3-19.4-54.3-64.3-51.3v10.3c0,1.9,1.5,3.5,3.4,3.6,31.6,1,45.7,16.8,45.7,35.3v2.1c0,0-81.8,0-81.8,0v-17.7h0v-17.4h-10.5c-2.4,0-4.4,1.9-4.4,4.3v55c0,5.9-2.3,10.4-5.6,13.5-2,1.8-2.5,4.7-1.2,7l5.1,7.4c10.3-5.1,16.7-14.8,16.7-30.4v-7h138.5c2.4,0,4.3-1.9,4.3-4.3v-23.8s0,0,0,0,0,0,0,0v-56.6Z"></path>
  <path class="cls-1" d="M719.9,131.9v-21.7h-10.7c-2.4,0-4.3,1.9-4.3,4.3v30.9h-44.8v-35.2h-10.4c-2.4,0-4.3,1.9-4.3,4.3v30.9h-42v-13.5h0v-56.7h-9.4c-3.1,0-5.6,2.5-5.6,5.6v64.5h-84v-35.2h-9.3c-3.1,0-5.6,2.5-5.6,5.6v16c0,0,0,.1,0,.2s0,.1,0,.2v22h0c.2,3.3,2.9,6,6.3,6h219.9c2.4-.1,4.3-2,4.3-4.4v-23.7h0"></path>
  <path class="cls-3" d="M776.1,89.3c.3-4.6,5.5-14,15.1-14h49.1c3.2,9.6,19,50.9,24.2,59.6,5.5,9.2,18.7,27.5,19.5,28.5l1.1,1.5c1.4-.2,4-.7,5-.8h.5c0,0,.7.3.7.3.3.2.5.3,1,.6l.7.4v3l4.8,7.3,20.3-3c1.4-1.9,6-6.4,9.6-11.4l4.3-3-.9.9c0,.3.2.6.3.9.2.7.4,1.4.6,1.9,1,1.5,3.5,3.1,16,9.8l.4.2c3.8,2.1,9.1,4.9,12,6.6l1.1.7-.5,1.2c-1.6,4.2-5.5,13.1-6.9,15.4-.1.2-12.8,21.4-14.4,24.1v.2c-.1,0-.3.2-.3.2-.4.4-2.7,2.5-5,4.7-2.3,2.2-4.7,4.4-5.3,5l-.3.2h-.3c-1.5.5-12.9,4.2-14.9,4.8l-6.7,5.9c-.1.9-.7,4.4-.7,4.4l-.6.4c-1.9,1.1-10.5,5.9-17.3,9.7-4.7,2.6-9.1,5.1-9.4,5.3h-.2c0,.1-.2.2-.2.2-.7.2-16.4,4.7-26.8,7.7l-19.3,12.1-8.6-23.1.2-10.1-16.1-27.3-13.3-10.7-6.7-26.8-9-6.9-2.7-5.2v-81.2Z"></path>
  <path class="cls-4" d="M823.9,247.6l-16.1-27.3-13.3-10.7-6.7-26.8-9-6.9-2.7-5.2v94.4c0,8.7,7,15.7,15.7,15.7h40.5l-8.6-23,.2-10.1Z"></path>
  <path class="cls-2" d="M981.5,91c0-8.7-7-15.7-15.7-15.7h-125.6c3.2,9.6,19,50.9,24.2,59.7,5.5,9.2,18.7,27.5,19.5,28.5l1.1,1.5c1.4-.2,4-.7,5-.8h.5c0,0,.7.3.7.3.3.2.5.3,1,.6l.7.4v3l4.8,7.3,20.3-3c1.4-1.9,6-6.4,9.6-11.4l4.3-3-.9.9c0,.3.2.6.3.9.2.7.4,1.4.6,1.9,1,1.5,3.5,3.1,16,9.8l.4.2c3.8,2.1,9.1,4.9,12,6.6l1.1.6-.5,1.2c-1.6,4.2-5.5,13.1-6.9,15.4-.1.2-12.8,21.4-14.4,24.1v.2c-.1,0-.3.2-.3.2-.4.4-2.7,2.5-5,4.7-2.3,2.2-4.7,4.4-5.3,5l-.3.2h-.3c-1.5.5-12.9,4.2-14.9,4.8l-6.7,5.9c-.1.9-.7,4.4-.7,4.4l-.6.4c-1.9,1.1-10.5,5.9-17.3,9.7-4.7,2.6-9.1,5.1-9.4,5.3h-.2c0,.1-.2.2-.2.2-.7.2-16.4,4.7-26.8,7.7l-19.2,12.1h133.5c8.7,0,15.9-7.1,15.7-16.3V91Z"></path>
</svg>
