<?xml version="1.0" encoding="utf-8"?>
<!-- Generator: Adobe Illustrator 26.3.1, SVG Export Plug-In . SVG Version: 6.00 Build 0)  -->
<svg version="1.1" id="Layer_1" xmlns="http://www.w3.org/2000/svg" xmlns:xlink="http://www.w3.org/1999/xlink" x="0px" y="0px"
	 viewBox="0 0 222.7 126.9" style="enable-background:new 0 0 222.7 126.9;" xml:space="preserve">
<style type="text/css">
	.st0{fill:#005A9B;}
	.st1{clip-path:url(#SVGID_00000145759574233938720000000000833695188843300262_);}
	.st2{fill:#005B9C;}
	.st3{fill:#005C9C;}
	.st4{fill:#005D9C;}
	.st5{fill:#005E9E;}
	.st6{fill:#005F9F;}
	.st7{fill:#00609F;}
	.st8{fill:#0060A0;}
	.st9{fill:#0061A0;}
	.st10{fill:#0062A0;}
	.st11{fill:#0063A2;}
	.st12{fill:#0064A2;}
	.st13{fill:#0064A3;}
	.st14{fill:#0065A3;}
	.st15{fill:#0066A4;}
	.st16{fill:#0468A5;}
	.st17{fill:#0469A6;}
	.st18{fill:#1169A6;}
	.st19{fill:#0E6AA7;}
	.st20{fill:#156AA7;}
	.st21{fill:#1D6AA7;}
	.st22{fill:#1A6CA8;}
	.st23{fill:#216CA8;}
	.st24{fill:#256CA8;}
	.st25{fill:#246DA8;}
	.st26{fill:#2A6FAA;}
	.st27{fill:#2B70AB;}
	.st28{fill:#3071AB;}
	.st29{fill:#3272AC;}
	.st30{fill:#3672AC;}
	.st31{fill:#3574AD;}
	.st32{fill:#3874AD;}
	.st33{fill:#3875AE;}
	.st34{fill:#3C75AE;}
	.st35{fill:#3B77AF;}
	.st36{fill:#3F77B0;}
	.st37{fill:#4177B0;}
	.st38{fill:#4178B0;}
	.st39{fill:#4479B0;}
	.st40{fill:#467BB1;}
	.st41{fill:#4A7CB3;}
	.st42{fill:#497DB4;}
	.st43{fill:#4B7EB4;}
	.st44{fill:#4F7EB4;}
	.st45{fill:#4E80B5;}
	.st46{fill:#5180B5;}
	.st47{fill:#5280B6;}
	.st48{fill:#5681B6;}
	.st49{fill:#5682B7;}
	.st50{fill:#5784B9;}
	.st51{fill:#5A84B9;}
	.st52{fill:#5A85B9;}
	.st53{fill:#5C85BA;}
	.st54{fill:#5F86BA;}
	.st55{fill:#5E87BB;}
	.st56{fill:#6088BB;}
	.st57{fill:#648ABD;}
	.st58{fill:#638BBE;}
	.st59{fill:#668CBE;}
	.st60{fill:#688CBE;}
	.st61{fill:#688DBF;}
	.st62{fill:#6A8EBF;}
	.st63{fill:#6C90C0;}
	.st64{fill:#6F90C0;}
	.st65{fill:#6F92C2;}
	.st66{fill:#7193C2;}
	.st67{fill:#7393C3;}
	.st68{fill:#7395C4;}
	.st69{fill:#7595C4;}
	.st70{fill:#7896C4;}
	.st71{fill:#7797C5;}
	.st72{fill:#7A98C5;}
	.st73{fill:#7B9AC6;}
	.st74{fill:#7C9BC8;}
	.st75{fill:#7F9CC8;}
	.st76{fill:#809EC9;}
	.st77{fill:#829EC9;}
	.st78{fill:#82A0CA;}
	.st79{fill:#84A0CA;}
	.st80{fill:#87A1CB;}
	.st81{fill:#86A3CC;}
	.st82{fill:#8AA5CE;}
	.st83{fill:#8CA7CF;}
	.st84{fill:#8FA7CF;}
	.st85{fill:#90A8CF;}
	.st86{fill:#90AAD0;}
	.st87{fill:#93AAD0;}
	.st88{fill:#95ACD1;}
	.st89{fill:#96ADD3;}
	.st90{fill:#98AED3;}
	.st91{fill:#98B0D4;}
	.st92{fill:#9AB0D4;}
	.st93{fill:#9DB1D4;}
	.st94{fill:#9DB2D5;}
	.st95{fill:#9FB3D5;}
	.st96{fill:#A1B6D7;}
	.st97{fill:#A5B8D9;}
	.st98{fill:#A7BBDA;}
	.st99{fill:#AABBDA;}
	.st100{fill:#ACBDDB;}
	.st101{fill:#AFBEDC;}
	.st102{fill:#AEC0DD;}
	.st103{fill:#B0C1DD;}
	.st104{fill:#B1C2DE;}
	.st105{fill:#B4C3DF;}
	.st106{fill:#B4C4DF;}
	.st107{fill:#B7C5E0;}
	.st108{fill:#B9C7E1;}
	.st109{fill:#BCC8E1;}
	.st110{fill:#BECAE2;}
	.st111{fill:#C2CDE5;}
	.st112{fill:#C2CFE6;}
	.st113{fill:#C4D0E6;}
	.st114{fill:#C7D1E6;}
	.st115{fill:#C7D2E7;}
	.st116{fill:#CAD3E7;}
	.st117{fill:#CCD6E9;}
	.st118{fill:#CFD7E9;}
	.st119{fill:#D1D9EB;}
	.st120{fill:#D3DBEC;}
	.st121{fill:#D5DCEC;}
	.st122{fill:#D6DEED;}
	.st123{fill:#D7DFED;}
	.st124{fill:#DAE0ED;}
	.st125{fill:#DDE2EF;}
	.st126{fill:#E0E4EF;}
	.st127{fill:#E3E7F2;}
	.st128{fill:#E3E8F3;}
	.st129{fill:#E6E9F3;}
	.st130{fill:#E8EAF4;}
	.st131{fill:#E8ECF5;}
	.st132{fill:#EBEDF5;}
	.st133{fill:#EDEEF5;}
	.st134{fill:#EDF0F6;}
	.st135{fill:#F0F1F7;}
	.st136{fill:#F3F4FA;}
	.st137{fill:#F6F8FC;}
	.st138{fill:#FAFAFC;}
	.st139{fill:#FFFFFF;}
</style>
<g id="Group_163" transform="translate(-2973.214 -66.092)">
	<g id="Group_35" transform="translate(2004.597 -7298.41)">
		<g id="Group_31">
			<path id="Path_104" class="st0" d="M971.7,7484.3c0-4.2,0.3-5,1.7-5v-0.4c-0.9,0-1.8,0.1-2.6,0.1c-0.9,0-1.7-0.1-2.5-0.1v0.4
				c1.6,0,1.7,0.7,1.7,5.2v3c0,4-0.4,4.3-1.6,4.4v0.4c0.9,0,1.7-0.1,2.5-0.1s1.7,0.1,2.5,0.1v-0.4c-1.1-0.2-1.6-0.1-1.6-3.1
				L971.7,7484.3L971.7,7484.3z"/>
			<path id="Path_105" class="st0" d="M980.6,7489.9c0,1.7-0.1,1.9-0.7,1.9v0.4c0.6,0,1.2-0.1,1.8-0.1c0.6,0,1.2,0.1,1.8,0.1v-0.4
				c-1,0-1.2-0.8-1.2-1.6v-4.5c0.2-1.6-1-3-2.5-3.1c0,0-0.1,0-0.1,0c-0.9,0-1.8,0.4-2.5,1.1v-1.1h-0.2c-0.9,0.3-1.8,0.4-2.8,0.4v0.4
				c1,0,1.3,0.6,1.3,2.2v4.4c0,1.3,0,1.9-1.3,1.9v0.4c0.6,0,1.3-0.1,1.9-0.1c0.6,0,1.3,0.1,1.9,0.1v-0.4c-0.6,0-0.9-0.3-0.9-1.2
				v-6.2c0.5-0.5,1.2-0.9,2-0.9c0.6,0,1.6,0.6,1.6,2.1L980.6,7489.9L980.6,7489.9z"/>
			<path id="Path_106" class="st0" d="M985.3,7483h-0.9l-0.3,0.9l1.2-0.1v5.5c0,2.3,1.1,3,2.4,3c0.6,0,1.2-0.2,1.7-0.6l-0.3-0.6
				c-0.2,0.1-0.5,0.2-0.8,0.2c-1.1,0-1.4-1-1.4-1.9v-5.5h0.9c0.4,0,0.9,0.1,1.3,0.1l0.3-0.9h-2.5v-2.2h-0.3
				c-0.4,0.2-0.9,0.2-1.3,0.2L985.3,7483L985.3,7483z"/>
			<path id="Path_107" class="st0" d="M992,7485.9c0-0.7,0.4-2.5,1.8-2.5c1,0.1,1.7,0.9,1.7,1.8c0,0.6-0.2,0.7-0.9,0.7
				C994.6,7485.9,992,7485.9,992,7485.9z M996.6,7490.9c-0.6,0.4-1.2,0.6-1.9,0.6c-1.6,0-2.8-1.8-2.8-4v-1h5
				c0.1-0.3,0.1-0.6,0.1-0.8c0.1-1.7-1.1-3.1-2.8-3.2c-0.1,0-0.1,0-0.2,0c-2.9,0-3.9,2.7-3.9,5c0,2.8,1.2,4.8,4,4.8
				c1,0,2-0.3,2.8-0.8L996.6,7490.9L996.6,7490.9z"/>
			<path id="Path_108" class="st0" d="M999,7489.9c0,1.2,0,1.7-1.2,1.9v0.4c0.8,0,1.6-0.1,2.5-0.1s1.7,0.1,2.5,0.1v-0.4
				c-1.7,0-2.1-0.9-2.1-2.3v-4.3c0.3-0.7,1-1.1,1.7-1.2c0.5,0,0.7,0.3,1.1,0.3c0.5,0,1-0.8,1-1.1c0-0.4-0.7-0.6-1.2-0.6
				c-1,0-1.8,0.6-2.5,1.7c0-0.6,0-1.1,0.1-1.7h-0.3c-0.9,0.3-1.8,0.4-2.7,0.4v0.4c0.8,0,1.2,0.3,1.2,2.1V7489.9L999,7489.9z"/>
			<path id="Path_109" class="st0" d="M1011.4,7489.9c0,1.7-0.1,1.9-0.7,1.9v0.4c0.6,0,1.2-0.1,1.8-0.1c0.6,0,1.2,0.1,1.8,0.1v-0.4
				c-1,0-1.2-0.8-1.2-1.6v-4.5c0.1-1.6-1-3-2.5-3.1c-0.1,0-0.1,0-0.2,0c-0.9,0-1.8,0.4-2.5,1.1v-1.1h-0.2c-0.9,0.3-1.8,0.4-2.8,0.4
				v0.4c1,0,1.3,0.6,1.3,2.2v4.4c0,1.3,0,1.9-1.3,1.9v0.4c0.6,0,1.3-0.1,1.9-0.1s1.3,0.1,1.9,0.1v-0.4c-0.6,0-0.9-0.3-0.9-1.2v-6.2
				c0.5-0.5,1.2-0.9,2-0.9c0.7,0,1.6,0.6,1.6,2.1L1011.4,7489.9L1011.4,7489.9z"/>
			<path id="Path_110" class="st0" d="M1020.3,7490.8c-0.5,0.4-1.1,0.6-1.7,0.5c-0.9,0.1-1.6-0.6-1.7-1.5c0,0,0-0.1,0-0.1
				c0-1.7,1.4-1.9,3.3-2.5V7490.8z M1015.9,7485.4h0.3c-0.1-1.1,0.8-2,1.8-2c0.1,0,0.2,0,0.3,0c0.9-0.1,1.8,0.5,1.9,1.5
				c0,0.2,0,0.3,0,0.5v1.1c-1.3,0.8-5,1.1-5,3.7c0,1.4,0.7,2.3,2.5,2.3c0.9,0,1.8-0.3,2.5-0.8l0.1,0.7c0.5-0.1,1-0.1,1.5-0.1h1.1
				l0-0.4c-0.8-0.1-1-0.6-1-1.4v-4.6c0.3-1.5-0.8-3-2.3-3.2c-0.3-0.1-0.6-0.1-0.9,0c-1,0-2,0.3-2.9,0.8L1015.9,7485.4L1015.9,7485.4
				z"/>
			<path id="Path_111" class="st0" d="M1025.2,7483h-0.9l-0.3,0.9l1.3-0.1v5.5c0,2.3,1.1,3,2.4,3c0.6,0,1.2-0.2,1.7-0.6l-0.3-0.6
				c-0.2,0.1-0.5,0.2-0.8,0.2c-1.1,0-1.4-1-1.4-1.9v-5.5h0.9c0.4,0,0.9,0.1,1.2,0.1l0.3-0.9h-2.5v-2.2h-0.3
				c-0.4,0.2-0.8,0.2-1.3,0.2L1025.2,7483L1025.2,7483z"/>
			<path id="Path_112" class="st0" d="M1032.4,7478.9c-0.5,0-1,0.5-0.9,1c0,0,0,0.1,0,0.1c0,0.6,0.4,1,0.9,1.1h0
				c0.6-0.1,1-0.6,0.9-1.1C1033.3,7479.4,1032.9,7478.9,1032.4,7478.9L1032.4,7478.9 M1030,7483.5c0.8,0,1.2,0.2,1.2,2v4.4
				c0,1.6-0.2,1.9-1.2,1.9v0.4c0.7,0,1.3-0.1,2-0.1c0.6,0,1.3,0.1,1.9,0.1v-0.4c-0.9,0-1.1-0.5-1.1-1.2v-6.2c0-0.5,0-1.1,0.1-1.6
				h-0.3c-0.9,0.3-1.8,0.4-2.7,0.4V7483.5z"/>
			<path id="Path_113" class="st0" d="M1038.9,7483.3c2.1,0,2.2,3.5,2.2,4.4c0,2.5-0.6,3.8-2.1,3.8s-2.2-2-2.2-4.5
				C1036.8,7484.5,1037.5,7483.3,1038.9,7483.3 M1039.1,7482.5c-2.5,0-4,2-4,4.9s1.6,4.9,3.8,4.9c2.8,0,4-2.4,4-5
				S1041.5,7482.5,1039.1,7482.5"/>
			<path id="Path_114" class="st0" d="M1050.3,7489.9c0,1.7-0.1,1.9-0.7,1.9v0.4c0.6,0,1.2-0.1,1.8-0.1s1.2,0.1,1.8,0.1v-0.4
				c-1,0-1.2-0.8-1.2-1.6v-4.5c0.2-1.6-1-2.9-2.5-3.1c-0.1,0-0.1,0-0.2,0c-0.9,0-1.8,0.4-2.5,1.1v-1.1h-0.2
				c-0.9,0.3-1.8,0.4-2.8,0.4v0.4c1,0,1.3,0.6,1.3,2.2v4.4c0,1.3,0,1.9-1.3,1.9v0.4c0.6,0,1.3-0.1,1.9-0.1s1.3,0.1,1.9,0.1v-0.4
				c-0.6,0-0.9-0.3-0.9-1.2v-6.2c0.5-0.5,1.2-0.9,2-0.9c0.7,0,1.6,0.6,1.6,2.1L1050.3,7489.9L1050.3,7489.9z"/>
			<path id="Path_115" class="st0" d="M1059.2,7490.8c-0.5,0.4-1.1,0.6-1.7,0.5c-0.9,0.1-1.6-0.6-1.7-1.5c0,0,0-0.1,0-0.1
				c0-1.7,1.4-1.9,3.3-2.5V7490.8z M1054.9,7485.4h0.3c-0.1-1,0.7-2,1.8-2c0.1,0,0.2,0,0.3,0c0.9-0.1,1.8,0.5,1.9,1.5
				c0,0.2,0,0.3,0,0.5v1.1c-1.3,0.8-5,1.1-5,3.7c0,1.4,0.7,2.3,2.5,2.3c0.9,0,1.8-0.3,2.5-0.8l0.1,0.7c0.5-0.1,1-0.1,1.4-0.1h1.1
				l0-0.4c-0.8-0.1-1.1-0.6-1.1-1.4v-4.6c0.3-1.5-0.8-3-2.3-3.2c-0.3-0.1-0.6-0.1-0.9,0c-1,0-2,0.3-2.8,0.8L1054.9,7485.4
				L1054.9,7485.4z"/>
			<path id="Path_116" class="st0" d="M1063,7477.9c0.8,0,1.2,0.1,1.2,1.9v9.9c0,1.5-0.4,2.1-1.2,2.1v0.4c0.7,0,1.3-0.1,1.9-0.1
				s1.3,0.1,2,0.1v-0.4c-0.9-0.1-1.1-0.4-1.1-2.3v-8.8c0-0.3,0.1-2.8,0.1-3.6h-0.4c-0.8,0.2-1.7,0.3-2.6,0.4L1063,7477.9
				L1063,7477.9z"/>
			<path id="Path_117" class="st0" d="M1071.9,7479.3c2.1,0.2,2.2,0.7,2.2,1.6c0,0.9-0.3,5.7-0.5,7.6c-0.2,2.6-0.7,3.2-1.8,3.4v0.4
				c0.7,0,1.5-0.1,2.3-0.1s1.5,0.1,2.3,0.1v-0.4c-1.4-0.2-1.8-0.8-1.7-2.4l0.4-7.9l4.6,10.7h1.1l4.5-10.7c0.1,1.3,0.5,6.7,0.5,8
				c0,1.5-0.5,2.1-2,2.2v0.4c0.9,0,1.9-0.1,2.8-0.1c0.9,0,1.8,0.1,2.8,0.1v-0.4c-1.2-0.1-1.6-1-1.7-2.2c-0.1-1.4-0.5-6.7-0.5-7.6
				c0-1.6,0.2-2.6,2-2.8v-0.4c-0.6,0-1.2,0.1-1.9,0.1c-0.6,0-1.2-0.1-1.9-0.1l-4.7,11l-4.8-11c-0.7,0-1.3,0.1-2,0.1
				c-0.7,0-1.3-0.1-1.9-0.1C1071.9,7478.9,1071.9,7479.3,1071.9,7479.3z"/>
			<path id="Path_118" class="st0" d="M1091.9,7485.9c0-0.7,0.4-2.5,1.8-2.5c1,0.1,1.7,0.9,1.7,1.8c0,0.6-0.2,0.7-0.9,0.7H1091.9z
				 M1096.5,7490.9c-0.6,0.4-1.2,0.6-1.9,0.6c-1.6,0-2.8-1.8-2.8-4v-1h5c0.1-0.3,0.1-0.6,0.1-0.8c0.1-1.7-1.1-3.1-2.8-3.2
				c-0.1,0-0.1,0-0.2,0c-2.9,0-3.9,2.7-3.9,5c0,2.8,1.3,4.8,4,4.8c1,0,2-0.3,2.8-0.8L1096.5,7490.9L1096.5,7490.9z"/>
			<path id="Path_119" class="st0" d="M1104.1,7490.5c-0.5,0.5-1.1,0.8-1.8,0.8c-1.5,0-2.5-1.9-2.5-4.7c0-2.8,1.6-3.4,2.2-3.4
				s1.3,0.4,2.1,1.4V7490.5L1104.1,7490.5z M1102.6,7477.9c1.4-0.1,1.5,0.2,1.5,2.7v2.6c-0.6-0.4-1.4-0.7-2.2-0.8
				c-2.6,0-3.9,2.7-3.9,4.7c0,2.5,1.3,5.1,3.6,5.1c0.9,0,1.8-0.4,2.5-1.1c0,0.3,0.1,0.7,0.2,1c0.9-0.1,1.8-0.1,2.8-0.1v-0.4
				c-1.1,0-1.3-0.5-1.3-1.6v-13h-0.3c-0.9,0.2-1.9,0.4-2.8,0.4L1102.6,7477.9L1102.6,7477.9z"/>
			<path id="Path_120" class="st0" d="M1110.3,7478.9c-0.5,0-1,0.5-0.9,1c0,0,0,0.1,0,0.1c0,0.6,0.4,1,1,1.1c0.6-0.1,1-0.6,0.9-1.1
				C1111.2,7479.4,1110.8,7478.9,1110.3,7478.9L1110.3,7478.9 M1107.9,7483.5c0.8,0,1.2,0.2,1.2,2v4.5c0,1.6-0.2,1.9-1.2,1.9v0.4
				c0.7,0,1.3-0.1,2-0.1s1.3,0.1,2,0.1v-0.4c-0.9,0-1.1-0.5-1.1-1.2v-6.2c0-0.6,0-1.1,0.1-1.6h-0.3c-0.9,0.3-1.8,0.4-2.7,0.3V7483.5
				z"/>
			<path id="Path_121" class="st0" d="M1119.3,7490.7c-0.5,0.4-1,0.6-1.6,0.6c-0.8,0-3-0.6-3-4.4c0-2,0.6-3.7,2.7-3.7
				c1.7,0,2.1,1,2.2,1.8h0.4v-2.4c-0.9-0.2-1.7-0.3-2.6-0.3c-3.9,0-4.3,3.8-4.3,5.1c-0.3,2.4,1.4,4.5,3.8,4.7c0.1,0,0.2,0,0.2,0
				c1,0,2-0.4,2.9-1L1119.3,7490.7L1119.3,7490.7z"/>
			<path id="Path_122" class="st0" d="M1126,7490.8c-0.5,0.4-1.1,0.6-1.7,0.5c-0.9,0.1-1.6-0.6-1.7-1.5c0-0.1,0-0.1,0-0.2
				c0-1.7,1.4-1.9,3.4-2.5L1126,7490.8L1126,7490.8z M1121.7,7485.4h0.3c-0.1-1.1,0.8-2,1.8-2c0.1,0,0.2,0,0.3,0
				c0.9-0.1,1.8,0.5,1.9,1.5c0,0.2,0,0.3,0,0.5v1.1c-1.3,0.8-5,1.1-5,3.7c0,1.4,0.7,2.3,2.5,2.3c0.9,0,1.8-0.3,2.5-0.8l0.1,0.7
				c0.5-0.1,1-0.1,1.5-0.1h1.1l0-0.4c-0.8-0.1-1-0.6-1-1.4v-4.6c0.3-1.5-0.8-3-2.3-3.2c-0.3-0.1-0.6-0.1-0.9,0c-1,0-2,0.3-2.8,0.8
				L1121.7,7485.4L1121.7,7485.4z"/>
			<path id="Path_123" class="st0" d="M1129.8,7477.9c0.9,0,1.2,0.1,1.2,1.9v9.9c0,1.5-0.4,2.1-1.2,2.1v0.4c0.7,0,1.3-0.1,2-0.1
				c0.7,0,1.3,0.1,1.9,0.1v-0.4c-0.9-0.1-1.1-0.4-1.1-2.3v-8.8c0-0.3,0-2.8,0.1-3.6h-0.4c-0.8,0.2-1.7,0.3-2.6,0.4
				C1129.8,7477.5,1129.8,7477.9,1129.8,7477.9z"/>
			<path id="Path_124" class="st0" d="M1151.1,7488.5c-0.2,1.8-1.9,3.2-3.8,2.9h0c-3.3,0-6-2.6-6-5.9c0-0.2,0-0.3,0-0.5
				c-0.2-2.8,2-5.2,4.9-5.4c0.2,0,0.4,0,0.6,0c3.5,0,4,2.3,4,3.2h0.4c0-1.3,0.1-2.6,0.2-3.8c-1,0-3.2-0.2-4.8-0.2
				c-5.8,0-7.4,4-7.4,6.5c0,3.3,2.1,7.1,7.6,7.1c1.3,0,2.5-0.2,3.7-0.5c0.4-1.1,0.7-2.2,0.9-3.4H1151.1L1151.1,7488.5z"/>
			<path id="Path_125" class="st0" d="M1154.8,7485.9c0-0.7,0.4-2.5,1.8-2.5c1,0.1,1.7,0.9,1.7,1.8c0,0.6-0.2,0.7-0.9,0.7H1154.8
				L1154.8,7485.9z M1159.5,7490.9c-0.6,0.4-1.2,0.6-1.9,0.6c-1.6,0-2.8-1.8-2.8-4v-1h5c0.1-0.3,0.1-0.6,0.1-0.8
				c0.1-1.6-1.1-3.1-2.7-3.2c-0.1,0-0.1,0-0.2,0c-2.9,0-3.9,2.7-3.9,5c0,2.8,1.2,4.8,4,4.8c1,0,2-0.3,2.8-0.8L1159.5,7490.9
				L1159.5,7490.9z"/>
			<path id="Path_126" class="st0" d="M1167.2,7489.9c0,1.7-0.1,1.9-0.7,1.9v0.4c0.6,0,1.2-0.1,1.8-0.1s1.2,0.1,1.8,0.1v-0.4
				c-1,0-1.2-0.8-1.2-1.6v-4.5c0.2-1.6-1-3-2.6-3.1c0,0-0.1,0-0.1,0c-0.9,0-1.8,0.4-2.5,1.1v-1.1h-0.2c-0.9,0.3-1.8,0.4-2.8,0.4v0.4
				c1,0,1.3,0.7,1.3,2.2v4.4c0,1.3,0,1.9-1.2,1.9v0.4c0.6,0,1.2-0.1,1.9-0.1c0.6,0,1.3,0.1,1.9,0.1v-0.4c-0.6,0-0.9-0.3-0.9-1.2
				v-6.2c0.5-0.5,1.2-0.9,2-0.9c0.6,0,1.6,0.6,1.6,2.1L1167.2,7489.9L1167.2,7489.9z"/>
			<path id="Path_127" class="st0" d="M1171.9,7483h-0.9l-0.3,0.9l1.2-0.1v5.5c0,2.3,1.1,3,2.4,3c0.6,0,1.2-0.2,1.7-0.6l-0.3-0.6
				c-0.2,0.1-0.5,0.2-0.8,0.2c-1.1,0-1.4-1-1.4-1.9v-5.5h0.9c0.4,0,0.9,0.1,1.2,0.1l0.3-0.9h-2.5v-2.2h-0.3
				c-0.4,0.2-0.8,0.2-1.3,0.2V7483L1171.9,7483z"/>
			<path id="Path_128" class="st0" d="M1178.6,7485.9c0-0.7,0.4-2.5,1.8-2.5c1,0,1.7,0.9,1.7,1.8c0,0.6-0.2,0.7-0.9,0.7H1178.6
				L1178.6,7485.9z M1183.3,7490.9c-0.6,0.4-1.2,0.6-1.9,0.6c-1.6,0-2.8-1.8-2.8-4v-1h5c0.1-0.3,0.1-0.6,0.1-0.8
				c0.1-1.6-1.1-3.1-2.7-3.2c-0.1,0-0.1,0-0.2,0c-2.9,0-3.9,2.7-3.9,5c0,2.8,1.3,4.8,4,4.8c1,0,2-0.3,2.8-0.8L1183.3,7490.9
				L1183.3,7490.9z"/>
			<path id="Path_129" class="st0" d="M1185.6,7489.9c0,1.2,0,1.7-1.2,1.9v0.4c0.8,0,1.7-0.1,2.5-0.1c0.8,0,1.7,0.1,2.5,0.1v-0.4
				c-1.7,0-2.1-0.9-2.1-2.3v-4.3c0.5-0.7,1-1.2,1.7-1.2c0.5,0,0.7,0.3,1.1,0.3c0.5,0,1-0.8,1-1.1c0-0.4-0.7-0.6-1.2-0.6
				c-1,0-1.8,0.6-2.6,1.7c0-0.6,0-1.1,0.1-1.7h-0.3c-0.9,0.3-1.8,0.4-2.7,0.4v0.4c0.8,0,1.2,0.3,1.2,2.1L1185.6,7489.9
				L1185.6,7489.9z"/>
			<path id="Path_130" class="st0" d="M1051,7397.9c0-16,25.7-30,28.7-31.5h-0.4c1.2,0.6,28.7,15.1,28.7,31.5v41.8l0.4-0.4h-57.9
				l0.4,0.4L1051,7397.9L1051,7397.9z M1050.6,7440.1h58.3v-42.2c0-16.7-26.2-30.8-29.2-32.3l-0.2-0.1l-0.2,0.1
				c-3,1.6-29.2,15.8-29.2,32.3v42.2L1050.6,7440.1L1050.6,7440.1z"/>
		</g>
		<g id="Group_33">
			<g>
				<defs>
					<path id="SVGID_1_" d="M1052.6,7398.2v39.4l54.1,0v-39.4c0-16.2-27.1-29.9-27.1-29.9S1052.6,7382,1052.6,7398.2"/>
				</defs>
				<clipPath id="SVGID_00000111184297535357043620000002913603827174346925_">
					<use xlink:href="#SVGID_1_"  style="overflow:visible;"/>
				</clipPath>
				<g style="clip-path:url(#SVGID_00000111184297535357043620000002913603827174346925_);">
					<g id="Group_32">
						<rect id="Rectangle_16" x="1052.6" y="7368.4" class="st0" width="54.1" height="69.3"/>
						<path id="Path_131" class="st0" d="M1099.3,7379c10.9,10.9,10.9,28.5,0,39.4c-10.9,10.9-28.5,10.9-39.4,0
							c-10.9-10.9-10.9-28.5,0-39.4S1088.4,7368.1,1099.3,7379L1099.3,7379"/>
						<path id="Path_132" class="st0" d="M1099.2,7379.1c10.8,10.8,10.8,28.4,0,39.3s-28.4,10.8-39.3,0s-10.8-28.4,0-39.3l0,0
							C1070.8,7368.3,1088.4,7368.3,1099.2,7379.1"/>
						<path id="Path_133" class="st0" d="M1099.2,7379.2c10.8,10.8,10.8,28.3,0,39.1c-10.8,10.8-28.3,10.8-39.1,0
							c-10.8-10.8-10.8-28.3,0-39.1C1070.9,7368.4,1088.4,7368.4,1099.2,7379.2L1099.2,7379.2"/>
						<path id="Path_134" class="st0" d="M1099.1,7379.3c10.8,10.8,10.8,28.2,0,39c-10.8,10.8-28.2,10.8-38.9,0
							c-10.8-10.8-10.8-28.2,0-39C1070.9,7368.5,1088.3,7368.5,1099.1,7379.3"/>
						<path id="Path_135" class="st0" d="M1099,7379.3c10.7,10.7,10.7,28.1,0,38.8c-10.7,10.7-28.1,10.7-38.8,0
							c-10.7-10.7-10.7-28.1,0-38.8l0,0C1070.9,7368.6,1088.3,7368.6,1099,7379.3"/>
						<path id="Path_136" class="st2" d="M1098.9,7379.4c10.7,10.7,10.7,28,0,38.6c-10.7,10.7-28,10.7-38.6,0
							c-10.7-10.7-10.7-28,0-38.6C1071,7368.7,1088.3,7368.7,1098.9,7379.4L1098.9,7379.4"/>
						<path id="Path_137" class="st2" d="M1098.9,7379.5c10.6,10.6,10.6,27.9,0,38.5c-10.6,10.6-27.9,10.6-38.5,0
							c-10.6-10.6-10.6-27.9,0-38.5S1088.2,7368.9,1098.9,7379.5"/>
						<path id="Path_138" class="st3" d="M1098.8,7379.6c10.6,10.6,10.6,27.8,0,38.3c-10.6,10.6-27.8,10.6-38.3,0
							c-10.6-10.6-10.6-27.8,0-38.3l0,0C1071,7369,1088.2,7369,1098.8,7379.6"/>
						<path id="Path_139" class="st3" d="M1098.7,7379.6c10.5,10.5,10.5,27.6,0,38.2c-10.5,10.5-27.6,10.5-38.2,0
							c-10.5-10.5-10.5-27.6,0-38.2l0,0C1071.1,7369.1,1088.2,7369.1,1098.7,7379.6"/>
						<path id="Path_140" class="st3" d="M1098.6,7379.7c10.5,10.5,10.5,27.5,0,38s-27.5,10.5-38,0s-10.5-27.5,0-38l0,0
							C1071.1,7369.2,1088.1,7369.2,1098.6,7379.7"/>
						<path id="Path_141" class="st3" d="M1098.5,7379.8c10.5,10.5,10.5,27.4,0,37.9c-10.5,10.5-27.4,10.5-37.9,0
							c-10.5-10.5-10.5-27.4,0-37.9C1071.1,7369.3,1088.1,7369.3,1098.5,7379.8L1098.5,7379.8"/>
						<path id="Path_142" class="st4" d="M1098.5,7379.9c10.4,10.4,10.4,27.3,0,37.7c-10.4,10.4-27.3,10.4-37.7,0
							c-10.4-10.4-10.4-27.3,0-37.7C1071.2,7369.5,1088.1,7369.5,1098.5,7379.9"/>
						<path id="Path_143" class="st5" d="M1098.4,7379.9c10.4,10.4,10.4,27.2,0,37.6c-10.4,10.4-27.2,10.4-37.6,0
							c-10.4-10.4-10.4-27.2,0-37.5C1071.2,7369.6,1088,7369.6,1098.4,7379.9"/>
						<path id="Path_144" class="st5" d="M1098.3,7380c10.3,10.3,10.3,27.1,0,37.4c-10.3,10.3-27.1,10.3-37.4,0
							c-10.3-10.3-10.3-27.1,0-37.4C1071.2,7369.7,1088,7369.7,1098.3,7380L1098.3,7380"/>
						<path id="Path_145" class="st5" d="M1098.2,7380.1c10.3,10.3,10.3,27,0,37.2c-10.3,10.3-27,10.3-37.2,0
							c-10.3-10.3-10.3-27,0-37.2S1088,7369.8,1098.2,7380.1"/>
						<path id="Path_146" class="st5" d="M1098.2,7380.2c10.2,10.2,10.2,26.9,0,37.1c-10.2,10.2-26.9,10.2-37.1,0
							c-10.2-10.2-10.2-26.9,0-37.1l0,0C1071.3,7369.9,1087.9,7369.9,1098.2,7380.2L1098.2,7380.2"/>
						<path id="Path_147" class="st5" d="M1098.1,7380.3c10.2,10.2,10.2,26.7,0,37c-10.2,10.2-26.7,10.2-36.9,0
							c-10.2-10.2-10.2-26.7,0-37C1071.3,7370.1,1087.9,7370.1,1098.1,7380.3L1098.1,7380.3"/>
						<path id="Path_148" class="st6" d="M1098,7380.3c10.2,10.2,10.2,26.6,0,36.8s-26.6,10.2-36.8,0s-10.2-26.6,0-36.8
							S1087.9,7370.2,1098,7380.3"/>
						<path id="Path_149" class="st6" d="M1097.9,7380.4c10.1,10.1,10.1,26.5,0,36.6c-10.1,10.1-26.5,10.1-36.6,0
							c-10.1-10.1-10.1-26.5,0-36.6C1071.4,7370.3,1087.8,7370.3,1097.9,7380.4"/>
						<path id="Path_150" class="st6" d="M1097.9,7380.5c10.1,10.1,10.1,26.4,0,36.5c-10.1,10.1-26.4,10.1-36.5,0
							c-10.1-10.1-10.1-26.4,0-36.5l0,0C1071.4,7370.4,1087.8,7370.4,1097.9,7380.5L1097.9,7380.5"/>
						<path id="Path_151" class="st6" d="M1097.8,7380.6c10,10,10,26.3,0,36.3c-10,10-26.3,10-36.3,0c-10-10-10-26.3,0-36.3
							C1071.5,7370.5,1087.7,7370.5,1097.8,7380.6L1097.8,7380.6"/>
						<path id="Path_152" class="st7" d="M1097.7,7380.6c10,10,10,26.2,0,36.2c-10,10-26.2,10-36.2,0c-10-10-10-26.2,0-36.2
							C1071.5,7370.7,1087.7,7370.7,1097.7,7380.6L1097.7,7380.6"/>
						<path id="Path_153" class="st7" d="M1097.6,7380.7c9.9,9.9,9.9,26.1,0,36c-9.9,9.9-26.1,9.9-36,0s-9.9-26.1,0-36
							C1071.6,7370.8,1087.7,7370.8,1097.6,7380.7"/>
						<path id="Path_154" class="st8" d="M1097.5,7380.8c9.9,9.9,9.9,26,0,35.9c-9.9,9.9-26,9.9-35.9,0c-9.9-9.9-9.9-26,0-35.9
							C1071.6,7370.9,1087.6,7370.9,1097.5,7380.8"/>
						<path id="Path_155" class="st9" d="M1097.5,7380.9c9.9,9.9,9.9,25.9,0,35.7s-25.8,9.9-35.7,0s-9.9-25.9,0-35.7l0,0
							C1071.6,7371,1087.6,7371,1097.5,7380.9"/>
						<path id="Path_156" class="st9" d="M1097.4,7381c9.8,9.8,9.8,25.7,0,35.5c-9.8,9.8-25.7,9.8-35.6,0c-9.8-9.8-9.8-25.7,0-35.5
							C1071.7,7371.1,1087.6,7371.1,1097.4,7381L1097.4,7381"/>
						<path id="Path_157" class="st9" d="M1097.3,7381c9.8,9.8,9.8,25.6,0,35.4c-9.8,9.8-25.6,9.8-35.4,0c-9.8-9.8-9.8-25.6,0-35.4
							l0,0C1071.7,7371.3,1087.5,7371.3,1097.3,7381"/>
						<path id="Path_158" class="st9" d="M1097.2,7381.1c9.7,9.7,9.7,25.5,0,35.2s-25.5,9.7-35.2,0s-9.7-25.5,0-35.2
							S1087.5,7371.4,1097.2,7381.1"/>
						<path id="Path_159" class="st10" d="M1097.2,7381.2c9.7,9.7,9.7,25.4,0,35.1c-9.7,9.7-25.4,9.7-35.1,0
							c-9.7-9.7-9.7-25.4,0-35.1l0,0C1071.8,7371.5,1087.5,7371.5,1097.2,7381.2"/>
						<path id="Path_160" class="st11" d="M1097.1,7381.3c9.7,9.6,9.7,25.3,0,34.9c-9.6,9.6-25.3,9.6-34.9,0s-9.7-25.3,0-34.9l0,0
							C1071.8,7371.6,1087.4,7371.6,1097.1,7381.3L1097.1,7381.3"/>
						<path id="Path_161" class="st11" d="M1097,7381.3c9.6,9.6,9.6,25.2,0,34.8c-9.6,9.6-25.2,9.6-34.8,0c-9.6-9.6-9.6-25.2,0-34.8
							l0,0C1071.8,7371.7,1087.4,7371.7,1097,7381.3"/>
						<path id="Path_162" class="st11" d="M1096.9,7381.4c9.6,9.6,9.6,25.1,0,34.6c-9.6,9.6-25.1,9.6-34.6,0
							c-9.6-9.6-9.6-25.1,0-34.6l0,0C1071.9,7371.9,1087.4,7371.9,1096.9,7381.4"/>
						<path id="Path_163" class="st11" d="M1096.9,7381.5c9.5,9.5,9.5,24.9,0,34.5c-9.5,9.5-24.9,9.5-34.5,0
							c-9.5-9.5-9.5-24.9,0-34.4C1071.9,7372,1087.3,7372,1096.9,7381.5L1096.9,7381.5"/>
						<path id="Path_164" class="st12" d="M1096.8,7381.6c9.5,9.5,9.5,24.8,0,34.3s-24.8,9.5-34.3,0c-9.5-9.5-9.5-24.8,0-34.3l0,0
							C1071.9,7372.1,1087.3,7372.1,1096.8,7381.6L1096.8,7381.6"/>
						<path id="Path_165" class="st13" d="M1096.7,7381.6c9.4,9.4,9.4,24.7,0,34.2c-9.4,9.4-24.7,9.4-34.2,0
							c-9.4-9.4-9.4-24.7,0-34.2C1072,7372.2,1087.3,7372.2,1096.7,7381.6L1096.7,7381.6"/>
						<path id="Path_166" class="st13" d="M1096.6,7381.7c9.4,9.4,9.4,24.6,0,34s-24.6,9.4-34,0s-9.4-24.6,0-34
							C1072,7372.3,1087.2,7372.3,1096.6,7381.7L1096.6,7381.7"/>
						<path id="Path_167" class="st14" d="M1096.5,7381.8c9.3,9.4,9.3,24.5,0,33.9c-9.4,9.4-24.5,9.4-33.9,0
							c-9.3-9.4-9.3-24.5,0-33.9l0,0C1072,7372.4,1087.2,7372.4,1096.5,7381.8"/>
						<path id="Path_168" class="st14" d="M1096.5,7381.9c9.3,9.3,9.3,24.4,0,33.7c-9.3,9.3-24.4,9.3-33.7,0
							c-9.3-9.3-9.3-24.4,0-33.7C1072.1,7372.6,1087.2,7372.6,1096.5,7381.9L1096.5,7381.9"/>
						<path id="Path_169" class="st14" d="M1096.4,7382c9.3,9.3,9.3,24.3,0,33.5c-9.3,9.3-24.3,9.3-33.5,0c-9.3-9.3-9.3-24.3,0-33.5
							C1072.1,7372.7,1087.1,7372.7,1096.4,7382"/>
						<path id="Path_170" class="st15" d="M1096.3,7382c9.2,9.2,9.2,24.2,0,33.4c-9.2,9.2-24.2,9.2-33.4,0c-9.2-9.2-9.2-24.2,0-33.4
							l0,0C1072.1,7372.8,1087.1,7372.8,1096.3,7382"/>
						<path id="Path_171" class="st15" d="M1096.2,7382.1c9.2,9.2,9.2,24.1,0,33.2c-9.2,9.2-24.1,9.2-33.2,0s-9.2-24.1,0-33.2l0,0
							C1072.2,7372.9,1087.1,7372.9,1096.2,7382.1"/>
						<path id="Path_172" class="st15" d="M1096.2,7382.2c9.1,9.1,9.1,23.9,0,33.1c-9.1,9.1-23.9,9.1-33.1,0
							c-9.1-9.1-9.1-23.9,0-33.1C1072.2,7373.1,1087,7373.1,1096.2,7382.2"/>
						<path id="Path_173" class="st15" d="M1096.1,7382.3c9.1,9.1,9.1,23.8,0,32.9c-9.1,9.1-23.8,9.1-32.9,0
							c-9.1-9.1-9.1-23.8,0-32.9C1072.3,7373.2,1087,7373.2,1096.1,7382.3"/>
						<path id="Path_174" class="st15" d="M1096,7382.3c9.1,9.1,9.1,23.7,0,32.8c-9.1,9.1-23.7,9.1-32.8,0c-9-9-9-23.7,0-32.8l0,0
							C1072.3,7373.3,1086.9,7373.3,1096,7382.3"/>
						<path id="Path_175" class="st16" d="M1095.9,7382.4c9,9,9,23.6,0,32.6c-9,9-23.6,9-32.6,0c-9-9-9-23.6,0-32.6l0,0
							C1072.3,7373.4,1086.9,7373.4,1095.9,7382.4"/>
						<path id="Path_176" class="st16" d="M1095.8,7382.5c9,9,9,23.5,0,32.5c-9,9-23.5,9-32.5,0s-9-23.5,0-32.5h0
							C1072.4,7373.5,1086.9,7373.5,1095.8,7382.5"/>
						<path id="Path_177" class="st17" d="M1095.8,7382.6c8.9,8.9,8.9,23.4,0,32.3c-8.9,8.9-23.4,8.9-32.3,0
							c-8.9-8.9-8.9-23.4,0-32.3C1072.4,7373.7,1086.8,7373.7,1095.8,7382.6L1095.8,7382.6"/>
						<path id="Path_178" class="st18" d="M1095.7,7382.7c8.9,8.9,8.9,23.3,0,32.1c-8.9,8.9-23.3,8.9-32.1,0
							c-8.9-8.9-8.9-23.3,0-32.1C1072.4,7373.8,1086.8,7373.8,1095.7,7382.7L1095.7,7382.7"/>
						<path id="Path_179" class="st18" d="M1095.6,7382.7c8.8,8.8,8.8,23.2,0,32c-8.8,8.8-23.2,8.8-32,0c-8.8-8.8-8.8-23.2,0-32
							C1072.4,7373.9,1086.8,7373.9,1095.6,7382.7L1095.6,7382.7"/>
						<path id="Path_180" class="st19" d="M1095.5,7382.8c8.8,8.8,8.8,23,0,31.8c-8.8,8.8-23.1,8.8-31.8,0c-8.8-8.8-8.8-23,0-31.8
							C1072.5,7374,1086.7,7374,1095.5,7382.8L1095.5,7382.8"/>
						<path id="Path_181" class="st20" d="M1095.5,7382.9c8.8,8.8,8.8,22.9,0,31.7s-22.9,8.8-31.7,0s-8.8-22.9,0-31.7l0,0
							C1072.5,7374.1,1086.7,7374.1,1095.5,7382.9"/>
						<path id="Path_182" class="st20" d="M1095.4,7383c8.7,8.7,8.7,22.8,0,31.5c-8.7,8.7-22.8,8.7-31.5,0c-8.7-8.7-8.7-22.8,0-31.5
							S1086.7,7374.2,1095.4,7383L1095.4,7383"/>
						<path id="Path_183" class="st20" d="M1095.3,7383c8.7,8.7,8.7,22.7,0,31.4c-8.7,8.7-22.7,8.6-31.4,0c-8.7-8.7-8.7-22.7,0-31.4
							C1072.6,7374.4,1086.6,7374.4,1095.3,7383L1095.3,7383"/>
						<path id="Path_184" class="st21" d="M1095.2,7383.1c8.6,8.6,8.6,22.6,0,31.2s-22.6,8.6-31.2,0s-8.6-22.6,0-31.2
							C1072.6,7374.5,1086.6,7374.5,1095.2,7383.1L1095.2,7383.1"/>
						<path id="Path_185" class="st22" d="M1095.2,7383.2c8.6,8.6,8.6,22.5,0,31.1c-8.6,8.6-22.5,8.6-31.1,0
							c-8.6-8.6-8.6-22.5,0-31.1l0,0C1072.7,7374.6,1086.6,7374.6,1095.2,7383.2"/>
						<path id="Path_186" class="st22" d="M1095.1,7383.3c8.5,8.5,8.6,22.4,0,30.9c-8.5,8.5-22.4,8.6-30.9,0
							c-8.5-8.5-8.6-22.4,0-30.9l0,0C1072.7,7374.7,1086.5,7374.7,1095.1,7383.3"/>
						<path id="Path_187" class="st23" d="M1095,7383.3c8.5,8.5,8.5,22.3,0,30.8c-8.5,8.5-22.3,8.5-30.8,0c-8.5-8.5-8.5-22.3,0-30.8
							C1072.7,7374.9,1086.5,7374.9,1095,7383.3"/>
						<path id="Path_188" class="st23" d="M1094.9,7383.4c8.4,8.5,8.4,22.1,0,30.6c-8.5,8.4-22.2,8.4-30.6,0
							c-8.5-8.5-8.5-22.2,0-30.6C1072.8,7375,1086.5,7375,1094.9,7383.4"/>
						<path id="Path_189" class="st24" d="M1094.8,7383.5c8.4,8.4,8.4,22,0,30.5c-8.4,8.4-22,8.4-30.4,0c-8.4-8.4-8.4-22,0-30.5
							S1086.4,7375.1,1094.8,7383.5"/>
						<path id="Path_190" class="st25" d="M1094.8,7383.6c8.4,8.4,8.4,21.9,0,30.3c-8.4,8.4-21.9,8.4-30.3,0
							c-8.4-8.4-8.4-21.9,0-30.3C1072.8,7375.2,1086.4,7375.2,1094.8,7383.6L1094.8,7383.6"/>
						<path id="Path_191" class="st25" d="M1094.7,7383.7c8.3,8.3,8.3,21.8,0,30.1c-8.3,8.3-21.8,8.3-30.1,0
							c-8.3-8.3-8.3-21.8,0-30.1C1072.9,7375.3,1086.4,7375.3,1094.7,7383.7L1094.7,7383.7"/>
						<path id="Path_192" class="st26" d="M1094.6,7383.7c8.3,8.3,8.3,21.7,0,30c-8.3,8.3-21.7,8.3-30,0c-8.3-8.3-8.3-21.7,0-30
							C1072.9,7375.5,1086.3,7375.5,1094.6,7383.7L1094.6,7383.7"/>
						<path id="Path_193" class="st26" d="M1094.5,7383.8c8.2,8.2,8.2,21.6,0,29.8c-8.2,8.2-21.6,8.2-29.8,0
							c-8.2-8.2-8.2-21.6,0-29.8l0,0C1072.9,7375.6,1086.3,7375.6,1094.5,7383.8"/>
						<path id="Path_194" class="st26" d="M1094.5,7383.9c8.2,8.2,8.2,21.5,0,29.7c-8.2,8.2-21.5,8.2-29.7,0
							c-8.2-8.2-8.2-21.5,0-29.7l0,0C1073,7375.7,1086.3,7375.7,1094.5,7383.9L1094.5,7383.9"/>
						<path id="Path_195" class="st27" d="M1094.4,7384c8.2,8.1,8.2,21.4,0,29.5s-21.4,8.1-29.5,0s-8.2-21.4,0-29.5l0,0
							C1073,7375.8,1086.2,7375.8,1094.4,7384"/>
						<path id="Path_196" class="st27" d="M1094.3,7384c8.1,8.1,8.1,21.3,0,29.4c-8.1,8.1-21.3,8.1-29.4,0c-8.1-8.1-8.1-21.3,0-29.4
							h0C1073,7375.9,1086.2,7375.9,1094.3,7384"/>
						<path id="Path_197" class="st27" d="M1094.2,7384.1c8.1,8.1,8.1,21.2,0,29.2c-8.1,8.1-21.2,8.1-29.2,0
							c-8.1-8.1-8.1-21.1,0-29.2l0,0C1073.1,7376,1086.2,7376,1094.2,7384.1"/>
						<path id="Path_198" class="st28" d="M1094.1,7384.2c8,8,8,21,0,29.1c-8,8-21,8-29.1,0c-8-8-8-21,0-29.1l0,0
							C1073.1,7376.2,1086.1,7376.2,1094.1,7384.2L1094.1,7384.2"/>
						<path id="Path_199" class="st28" d="M1094.1,7384.3c8,8,8,20.9,0,28.9c-8,8-20.9,8-28.9,0c-8-8-8-20.9,0-28.9l0,0
							C1073.1,7376.3,1086.1,7376.3,1094.1,7384.3"/>
						<path id="Path_200" class="st29" d="M1094,7384.4c7.9,7.9,7.9,20.8,0,28.8c-7.9,7.9-20.8,7.9-28.8,0c-7.9-7.9-7.9-20.8,0-28.8
							l0,0C1073.2,7376.4,1086.1,7376.4,1094,7384.4"/>
						<path id="Path_201" class="st29" d="M1093.9,7384.4c7.9,7.9,7.9,20.7,0,28.6c-7.9,7.9-20.7,7.9-28.6,0
							c-7.9-7.9-7.9-20.7,0-28.6C1073.2,7376.5,1086,7376.5,1093.9,7384.4L1093.9,7384.4"/>
						<path id="Path_202" class="st29" d="M1093.8,7384.5c7.9,7.9,7.9,20.6,0,28.4c-7.8,7.9-20.6,7.9-28.4,0s-7.8-20.6,0-28.4l0,0
							C1073.3,7376.7,1086,7376.7,1093.8,7384.5"/>
						<path id="Path_203" class="st30" d="M1093.8,7384.6c7.8,7.8,7.8,20.5,0,28.3c-7.8,7.8-20.5,7.8-28.3,0
							c-7.8-7.8-7.8-20.5,0-28.3C1073.3,7376.8,1085.9,7376.8,1093.8,7384.6L1093.8,7384.6"/>
						<path id="Path_204" class="st30" d="M1093.7,7384.7c7.8,7.8,7.8,20.4,0,28.1c-7.8,7.8-20.4,7.8-28.1,0
							c-7.8-7.8-7.8-20.4,0-28.1l0,0C1073.3,7376.9,1085.9,7376.9,1093.7,7384.7"/>
						<path id="Path_205" class="st31" d="M1093.6,7384.7c7.7,7.7,7.7,20.2,0,28s-20.2,7.7-28,0s-7.7-20.2,0-28l0,0
							C1073.4,7377,1085.9,7377,1093.6,7384.7"/>
						<path id="Path_206" class="st32" d="M1093.5,7384.8c7.7,7.7,7.7,20.1,0,27.8c-7.7,7.7-20.2,7.7-27.8,0
							c-7.7-7.7-7.7-20.1,0-27.8l0,0C1073.4,7377.1,1085.8,7377.1,1093.5,7384.8"/>
						<path id="Path_207" class="st33" d="M1093.5,7384.9c7.6,7.6,7.6,20,0,27.7s-20,7.6-27.7,0s-7.6-20,0-27.7l0,0
							C1073.4,7377.3,1085.8,7377.3,1093.5,7384.9"/>
						<path id="Path_208" class="st34" d="M1093.4,7385c7.6,7.6,7.6,19.9,0,27.5c-7.6,7.6-19.9,7.6-27.5,0c-7.6-7.6-7.6-19.9,0-27.5
							l0,0C1073.5,7377.4,1085.8,7377.4,1093.4,7385L1093.4,7385"/>
						<path id="Path_209" class="st35" d="M1093.3,7385c7.5,7.6,7.5,19.8,0,27.4c-7.6,7.6-19.8,7.6-27.4,0c-7.5-7.5-7.5-19.8,0-27.4
							C1073.5,7377.5,1085.7,7377.5,1093.3,7385"/>
						<path id="Path_210" class="st35" d="M1093.2,7385.1c7.5,7.5,7.5,19.7,0,27.2c-7.5,7.5-19.7,7.5-27.2,0
							c-7.5-7.5-7.5-19.7,0-27.2C1073.5,7377.6,1085.7,7377.6,1093.2,7385.1L1093.2,7385.1"/>
						<path id="Path_211" class="st36" d="M1093.1,7385.2c7.5,7.5,7.5,19.6,0,27c-7.5,7.5-19.6,7.5-27.1,0c-7.5-7.5-7.5-19.6,0-27
							C1073.6,7377.7,1085.7,7377.7,1093.1,7385.2"/>
						<path id="Path_212" class="st36" d="M1093.1,7385.3c7.4,7.4,7.4,19.5,0,26.9c-7.4,7.4-19.5,7.4-26.9,0
							c-7.4-7.4-7.4-19.5,0-26.9l0,0C1073.6,7377.8,1085.6,7377.8,1093.1,7385.3L1093.1,7385.3"/>
						<path id="Path_213" class="st37" d="M1093,7385.4c7.4,7.4,7.4,19.4,0,26.7c-7.4,7.4-19.3,7.4-26.7,0c-7.4-7.4-7.4-19.3,0-26.7
							C1073.6,7378,1085.6,7378,1093,7385.4L1093,7385.4"/>
						<path id="Path_214" class="st38" d="M1092.9,7385.4c7.3,7.3,7.3,19.2,0,26.6c-7.3,7.3-19.2,7.3-26.6,0
							c-7.3-7.3-7.3-19.2,0-26.6C1073.7,7378.1,1085.6,7378.1,1092.9,7385.4L1092.9,7385.4"/>
						<path id="Path_215" class="st38" d="M1092.8,7385.5c7.3,7.3,7.3,19.1,0,26.4c-7.3,7.3-19.1,7.3-26.4,0
							c-7.3-7.3-7.3-19.1,0-26.4l0,0C1073.7,7378.2,1085.5,7378.2,1092.8,7385.5"/>
						<path id="Path_216" class="st39" d="M1092.8,7385.6c7.3,7.3,7.3,19,0,26.3c-7.3,7.3-19,7.3-26.3,0c-7.3-7.3-7.3-19,0-26.3l0,0
							C1073.7,7378.3,1085.5,7378.3,1092.8,7385.6"/>
						<path id="Path_217" class="st39" d="M1092.7,7385.7c7.2,7.2,7.2,18.9,0,26.1c-7.2,7.2-18.9,7.2-26.1,0
							c-7.2-7.2-7.2-18.9,0-26.1l0,0C1073.8,7378.5,1085.5,7378.4,1092.7,7385.7L1092.7,7385.7"/>
						<path id="Path_218" class="st39" d="M1092.6,7385.7c7.2,7.2,7.2,18.8,0,26c-7.2,7.2-18.8,7.2-26,0s-7.2-18.8,0-26
							C1073.8,7378.6,1085.4,7378.6,1092.6,7385.7L1092.6,7385.7"/>
						<path id="Path_219" class="st40" d="M1092.5,7385.8c7.1,7.1,7.1,18.7,0,25.8c-7.1,7.1-18.7,7.1-25.8,0
							c-7.1-7.1-7.1-18.7,0-25.8l0,0C1073.8,7378.7,1085.4,7378.7,1092.5,7385.8"/>
						<path id="Path_220" class="st40" d="M1092.4,7385.9c7.1,7.1,7.1,18.6,0,25.7c-7.1,7.1-18.6,7.1-25.7,0
							c-7.1-7.1-7.1-18.6,0-25.7l0,0C1073.9,7378.8,1085.4,7378.8,1092.4,7385.9L1092.4,7385.9"/>
						<path id="Path_221" class="st41" d="M1092.4,7386c7,7,7,18.5,0,25.5c-7,7-18.5,7-25.5,0s-7-18.5,0-25.5l0,0
							C1073.9,7378.9,1085.3,7378.9,1092.4,7386"/>
						<path id="Path_222" class="st41" d="M1092.3,7386.1c7,7,7,18.4,0,25.4s-18.4,7-25.4,0s-7-18.4,0-25.4l0,0
							C1073.9,7379.1,1085.3,7379.1,1092.3,7386.1L1092.3,7386.1"/>
						<path id="Path_223" class="st42" d="M1092.2,7386.1c7,7,7,18.2,0,25.2c-7,7-18.2,7-25.2,0c-7-7-7-18.2,0-25.2l0,0
							C1074,7379.2,1085.2,7379.2,1092.2,7386.1L1092.2,7386.1"/>
						<path id="Path_224" class="st43" d="M1092.1,7386.2c6.9,6.9,6.9,18.1,0,25c-6.9,6.9-18.1,6.9-25,0c-6.9-6.9-6.9-18.1,0-25
							C1074,7379.3,1085.2,7379.3,1092.1,7386.2"/>
						<path id="Path_225" class="st43" d="M1092.1,7386.3c6.9,6.9,6.9,18,0,24.9s-18,6.9-24.9,0c-6.9-6.9-6.9-18,0-24.9l0,0
							C1074,7379.4,1085.2,7379.4,1092.1,7386.3"/>
						<path id="Path_226" class="st44" d="M1092,7386.4c6.8,6.8,6.8,17.9,0,24.7c-6.8,6.8-17.9,6.8-24.7,0c-6.8-6.8-6.8-17.9,0-24.7
							h0C1074.1,7379.5,1085.2,7379.5,1092,7386.4"/>
						<path id="Path_227" class="st44" d="M1091.9,7386.4c6.8,6.8,6.8,17.8,0,24.6c-6.8,6.8-17.8,6.8-24.6,0
							c-6.8-6.8-6.8-17.8,0-24.6l0,0C1074.1,7379.6,1085.1,7379.6,1091.9,7386.4L1091.9,7386.4"/>
						<path id="Path_228" class="st45" d="M1091.8,7386.5c6.7,6.7,6.7,17.7,0,24.4c-6.7,6.8-17.7,6.8-24.4,0
							c-6.7-6.7-6.7-17.7,0-24.4C1074.1,7379.8,1085.1,7379.8,1091.8,7386.5L1091.8,7386.5"/>
						<path id="Path_229" class="st46" d="M1091.8,7386.6c6.7,6.7,6.7,17.6,0,24.3c-6.7,6.7-17.6,6.7-24.3,0
							c-6.7-6.7-6.7-17.6,0-24.3C1074.2,7379.9,1085,7379.9,1091.8,7386.6L1091.8,7386.6"/>
						<path id="Path_230" class="st46" d="M1091.7,7386.7c6.7,6.7,6.7,17.5,0,24.1c-6.7,6.7-17.5,6.7-24.1,0
							c-6.7-6.7-6.7-17.5,0-24.1l0,0C1074.2,7380,1085,7380,1091.7,7386.7"/>
						<path id="Path_231" class="st46" d="M1091.6,7386.7c6.6,6.6,6.6,17.3,0,24c-6.6,6.6-17.3,6.6-24,0c-6.6-6.6-6.6-17.3,0-24
							C1074.2,7380.1,1085,7380.1,1091.6,7386.7L1091.6,7386.7"/>
						<path id="Path_232" class="st47" d="M1091.5,7386.8c6.6,6.6,6.6,17.2,0,23.8c-6.6,6.6-17.2,6.6-23.8,0
							c-6.6-6.6-6.6-17.2,0-23.8C1074.3,7380.3,1084.9,7380.2,1091.5,7386.8L1091.5,7386.8"/>
						<path id="Path_233" class="st47" d="M1091.4,7386.9c6.5,6.5,6.5,17.1,0,23.6c-6.5,6.5-17.1,6.5-23.6,0
							c-6.5-6.5-6.5-17.1,0-23.6C1074.3,7380.4,1084.9,7380.4,1091.4,7386.9"/>
						<path id="Path_234" class="st48" d="M1091.4,7387c6.5,6.5,6.5,17,0,23.5c-6.5,6.5-17,6.5-23.5,0c-6.5-6.5-6.5-17,0-23.5
							C1074.4,7380.5,1084.9,7380.5,1091.4,7387L1091.4,7387"/>
						<path id="Path_235" class="st48" d="M1091.3,7387.1c6.4,6.5,6.4,16.9,0,23.3c-6.5,6.4-16.9,6.4-23.3,0
							c-6.4-6.5-6.4-16.9,0-23.3C1074.4,7380.6,1084.8,7380.6,1091.3,7387.1"/>
						<path id="Path_236" class="st49" d="M1091.2,7387.1c6.4,6.4,6.4,16.8,0,23.2c-6.4,6.4-16.8,6.4-23.2,0
							c-6.4-6.4-6.4-16.8,0-23.2l0,0C1074.4,7380.7,1084.8,7380.7,1091.2,7387.1"/>
						<path id="Path_237" class="st50" d="M1091.1,7387.2c6.4,6.4,6.4,16.7,0,23c-6.4,6.4-16.7,6.4-23,0c-6.4-6.4-6.4-16.7,0-23l0,0
							C1074.5,7380.9,1084.8,7380.9,1091.1,7387.2"/>
						<path id="Path_238" class="st50" d="M1091,7387.3c6.3,6.3,6.3,16.6,0,22.9c-6.3,6.3-16.6,6.3-22.9,0c-6.3-6.3-6.3-16.6,0-22.9
							l0,0C1074.5,7381,1084.7,7381,1091,7387.3L1091,7387.3"/>
						<path id="Path_239" class="st51" d="M1091,7387.4c6.3,6.3,6.3,16.5,0,22.7c-6.3,6.3-16.4,6.3-22.7,0c-6.3-6.3-6.3-16.5,0-22.7
							l0,0C1074.5,7381.1,1084.7,7381.1,1091,7387.4"/>
						<path id="Path_240" class="st51" d="M1090.9,7387.4c6.2,6.2,6.2,16.3,0,22.6s-16.3,6.2-22.6,0c-6.2-6.2-6.2-16.3,0-22.6
							C1074.6,7381.2,1084.7,7381.2,1090.9,7387.4L1090.9,7387.4"/>
						<path id="Path_241" class="st52" d="M1090.8,7387.5c6.2,6.2,6.2,16.2,0,22.4c-6.2,6.2-16.2,6.2-22.4,0
							c-6.2-6.2-6.2-16.2,0-22.4l0,0C1074.6,7381.3,1084.6,7381.3,1090.8,7387.5L1090.8,7387.5"/>
						<path id="Path_242" class="st53" d="M1090.7,7387.6c6.2,6.2,6.2,16.1,0,22.3s-16.1,6.1-22.3,0s-6.2-16.1,0-22.3l0,0
							C1074.6,7381.4,1084.6,7381.4,1090.7,7387.6"/>
						<path id="Path_243" class="st53" d="M1090.7,7387.7c6.1,6.1,6.1,16,0,22.1c-6.1,6.1-16,6.1-22.1,0c-6.1-6.1-6.1-16,0-22.1
							C1074.7,7381.6,1084.6,7381.6,1090.7,7387.7"/>
						<path id="Path_244" class="st54" d="M1090.6,7387.8c6.1,6.1,6.1,15.9,0,22c-6.1,6.1-15.9,6.1-21.9,0c-6.1-6.1-6.1-15.9,0-22
							C1074.7,7381.7,1084.5,7381.7,1090.6,7387.8"/>
						<path id="Path_245" class="st54" d="M1090.5,7387.8c6,6,6,15.8,0,21.8c-6,6-15.8,6-21.8,0c-6-6-6-15.8,0-21.8
							S1084.5,7381.8,1090.5,7387.8"/>
						<path id="Path_246" class="st55" d="M1090.4,7387.9c6,6,6,15.7,0,21.6c-6,6-15.7,6-21.6,0c-6-6-6-15.7,0-21.6l0,0
							C1074.8,7381.9,1084.4,7381.9,1090.4,7387.9L1090.4,7387.9"/>
						<path id="Path_247" class="st56" d="M1090.4,7388c5.9,5.9,5.9,15.6,0,21.5c-5.9,5.9-15.6,5.9-21.5,0s-5.9-15.6,0-21.5l0,0
							C1074.8,7382.1,1084.4,7382.1,1090.4,7388"/>
						<path id="Path_248" class="st56" d="M1090.3,7388.1c5.9,5.9,5.9,15.4,0,21.3s-15.4,5.9-21.3,0s-5.9-15.4,0-21.3
							S1084.4,7382.2,1090.3,7388.1"/>
						<path id="Path_249" class="st57" d="M1090.2,7388.1c5.8,5.9,5.8,15.3,0,21.2s-15.3,5.9-21.2,0s-5.8-15.3,0-21.2l0,0
							C1074.9,7382.3,1084.4,7382.3,1090.2,7388.1"/>
						<path id="Path_250" class="st58" d="M1090.1,7388.2c5.8,5.8,5.8,15.2,0,21c-5.8,5.8-15.2,5.8-21,0c-5.8-5.8-5.8-15.2,0-21l0,0
							C1074.9,7382.4,1084.3,7382.4,1090.1,7388.2L1090.1,7388.2"/>
						<path id="Path_251" class="st58" d="M1090,7388.3c5.8,5.8,5.8,15.1,0,20.9c-5.8,5.8-15.1,5.8-20.9,0c-5.8-5.8-5.8-15.1,0-20.9
							l0,0C1074.9,7382.5,1084.3,7382.5,1090,7388.3"/>
						<path id="Path_252" class="st59" d="M1090,7388.4c5.7,5.7,5.7,15,0,20.7c-5.7,5.7-15,5.7-20.7,0c-5.7-5.7-5.7-15,0-20.7l0,0
							C1075,7382.6,1084.3,7382.6,1090,7388.4L1090,7388.4"/>
						<path id="Path_253" class="st59" d="M1089.9,7388.4c5.7,5.7,5.7,14.9,0,20.6c-5.7,5.7-14.9,5.7-20.6,0
							c-5.7-5.7-5.7-14.9,0-20.6C1075,7382.8,1084.2,7382.8,1089.9,7388.4L1089.9,7388.4"/>
						<path id="Path_254" class="st60" d="M1089.8,7388.5c5.6,5.6,5.6,14.8,0,20.4c-5.6,5.6-14.8,5.6-20.4,0
							c-5.6-5.6-5.6-14.8,0-20.4l0,0C1075.1,7382.9,1084.2,7382.9,1089.8,7388.5"/>
						<path id="Path_255" class="st61" d="M1089.7,7388.6c5.6,5.6,5.6,14.7,0,20.2s-14.7,5.6-20.2,0s-5.6-14.7,0-20.2l0,0
							C1075.1,7383,1084.1,7383,1089.7,7388.6L1089.7,7388.6"/>
						<path id="Path_256" class="st62" d="M1089.7,7388.7c5.5,5.6,5.6,14.6,0,20.1c-5.6,5.5-14.6,5.6-20.1,0
							c-5.5-5.6-5.6-14.5,0-20.1l0,0C1075.1,7383.1,1084.1,7383.1,1089.7,7388.7L1089.7,7388.7"/>
						<path id="Path_257" class="st62" d="M1089.6,7388.8c5.5,5.5,5.5,14.4,0,19.9c-5.5,5.5-14.4,5.5-19.9,0
							c-5.5-5.5-5.5-14.4,0-19.9l0,0C1075.2,7383.3,1084.1,7383.3,1089.6,7388.8"/>
						<path id="Path_258" class="st62" d="M1089.5,7388.8c5.5,5.5,5.5,14.3,0,19.8s-14.3,5.5-19.8,0s-5.5-14.3,0-19.8
							S1084,7383.4,1089.5,7388.8L1089.5,7388.8"/>
						<path id="Path_259" class="st63" d="M1089.4,7388.9c5.4,5.4,5.4,14.2,0,19.6c-5.4,5.4-14.2,5.4-19.6,0
							c-5.4-5.4-5.4-14.2,0-19.6l0,0C1075.2,7383.5,1084,7383.5,1089.4,7388.9"/>
						<path id="Path_260" class="st63" d="M1089.4,7389c5.4,5.4,5.4,14.1,0,19.5c-5.4,5.4-14.1,5.4-19.5,0c-5.4-5.4-5.4-14.1,0-19.5
							C1075.3,7383.6,1084,7383.6,1089.4,7389L1089.4,7389"/>
						<path id="Path_261" class="st64" d="M1089.3,7389.1c5.3,5.3,5.3,14,0,19.3c-5.3,5.3-14,5.3-19.3,0c-5.3-5.3-5.3-14,0-19.3l0,0
							C1075.3,7383.7,1083.9,7383.7,1089.3,7389.1L1089.3,7389.1"/>
						<path id="Path_262" class="st64" d="M1089.2,7389.1c5.3,5.3,5.3,13.9,0,19.2c-5.3,5.3-13.9,5.3-19.2,0
							c-5.3-5.3-5.3-13.9,0-19.2C1075.3,7383.9,1083.9,7383.9,1089.2,7389.1"/>
						<path id="Path_263" class="st65" d="M1089.1,7389.2c5.2,5.2,5.2,13.8,0,19s-13.8,5.2-19,0c-5.2-5.2-5.2-13.8,0-19l0,0
							C1075.4,7384,1083.9,7384,1089.1,7389.2"/>
						<path id="Path_264" class="st66" d="M1089,7389.3c5.2,5.2,5.2,13.6,0,18.9c-5.2,5.2-13.7,5.2-18.9,0c-5.2-5.2-5.2-13.6,0-18.9
							C1075.4,7384.1,1083.8,7384.1,1089,7389.3"/>
						<path id="Path_265" class="st66" d="M1089,7389.4c5.2,5.2,5.2,13.5,0,18.7c-5.2,5.2-13.5,5.2-18.7,0c-5.2-5.2-5.2-13.5,0-18.7
							l0,0C1075.4,7384.2,1083.8,7384.2,1089,7389.4L1089,7389.4"/>
						<path id="Path_266" class="st67" d="M1088.9,7389.5c5.1,5.1,5.1,13.4,0,18.6c-5.1,5.1-13.4,5.1-18.6,0
							c-5.1-5.1-5.1-13.4,0-18.6l0,0C1075.4,7384.3,1083.7,7384.3,1088.9,7389.5"/>
						<path id="Path_267" class="st67" d="M1088.8,7389.5c5.1,5.1,5.1,13.3,0,18.4c-5.1,5.1-13.3,5.1-18.4,0
							c-5.1-5.1-5.1-13.3,0-18.4C1075.5,7384.5,1083.7,7384.5,1088.8,7389.5L1088.8,7389.5"/>
						<path id="Path_268" class="st68" d="M1088.7,7389.6c5,5,5,13.2,0,18.2s-13.2,5-18.2,0s-5-13.2,0-18.2
							S1083.7,7384.6,1088.7,7389.6L1088.7,7389.6"/>
						<path id="Path_269" class="st69" d="M1088.7,7389.7c5,5,5,13.1,0,18.1c-5,5-13.1,5-18.1,0c-5-5-5-13.1,0-18.1
							C1075.6,7384.7,1083.6,7384.7,1088.7,7389.7L1088.7,7389.7"/>
						<path id="Path_270" class="st69" d="M1088.6,7389.8c5,4.9,5,13,0,17.9c-4.9,5-13,5-17.9,0c-5-4.9-5-13,0-17.9
							C1075.6,7384.8,1083.6,7384.8,1088.6,7389.8L1088.6,7389.8"/>
						<path id="Path_271" class="st70" d="M1088.5,7389.8c4.9,4.9,4.9,12.9,0,17.8c-4.9,4.9-12.9,4.9-17.8,0
							c-4.9-4.9-4.9-12.9,0-17.8C1075.6,7384.9,1083.6,7384.9,1088.5,7389.8L1088.5,7389.8"/>
						<path id="Path_272" class="st71" d="M1088.4,7389.9c4.9,4.9,4.9,12.8,0,17.6c-4.9,4.9-12.8,4.9-17.6,0
							c-4.9-4.9-4.9-12.8,0-17.6l0,0C1075.7,7385,1083.6,7385,1088.4,7389.9L1088.4,7389.9"/>
						<path id="Path_273" class="st71" d="M1088.3,7390c4.8,4.8,4.8,12.6,0,17.5c-4.8,4.8-12.6,4.8-17.5,0c-4.8-4.8-4.8-12.6,0-17.5
							l0,0C1075.7,7385.2,1083.5,7385.2,1088.3,7390L1088.3,7390"/>
						<path id="Path_274" class="st72" d="M1088.3,7390.1c4.8,4.8,4.8,12.5,0,17.3c-4.8,4.8-12.5,4.8-17.3,0
							c-4.8-4.8-4.8-12.5,0-17.3l0,0C1075.7,7385.3,1083.5,7385.3,1088.3,7390.1L1088.3,7390.1"/>
						<path id="Path_275" class="st72" d="M1088.2,7390.1c4.7,4.7,4.7,12.4,0,17.2c-4.7,4.7-12.4,4.7-17.2,0
							c-4.7-4.7-4.7-12.4,0-17.2C1075.8,7385.4,1083.5,7385.4,1088.2,7390.1"/>
						<path id="Path_276" class="st73" d="M1088.1,7390.2c4.7,4.7,4.7,12.3,0,17c-4.7,4.7-12.3,4.7-17,0c-4.7-4.7-4.7-12.3,0-17l0,0
							C1075.8,7385.5,1083.4,7385.5,1088.1,7390.2"/>
						<path id="Path_277" class="st74" d="M1088,7390.3c4.6,4.7,4.6,12.2,0,16.9c-4.7,4.7-12.2,4.6-16.9,0c-4.7-4.6-4.6-12.2,0-16.9
							C1075.8,7385.7,1083.4,7385.7,1088,7390.3L1088,7390.3"/>
						<path id="Path_278" class="st75" d="M1088,7390.4c4.6,4.6,4.6,12.1,0,16.7c-4.6,4.6-12.1,4.6-16.7,0c-4.6-4.6-4.6-12.1,0-16.7
							l0,0C1075.9,7385.8,1083.3,7385.8,1088,7390.4L1088,7390.4"/>
						<path id="Path_279" class="st75" d="M1087.9,7390.5c4.6,4.6,4.6,12,0,16.5c-4.6,4.6-12,4.6-16.5,0c-4.6-4.6-4.6-12,0-16.5
							C1075.9,7385.9,1083.3,7385.9,1087.9,7390.5L1087.9,7390.5"/>
						<path id="Path_280" class="st75" d="M1087.8,7390.5c4.5,4.5,4.5,11.9,0,16.4c-4.5,4.5-11.9,4.5-16.4,0
							c-4.5-4.5-4.5-11.9,0-16.4l0,0C1075.9,7386,1083.3,7386,1087.8,7390.5L1087.8,7390.5"/>
						<path id="Path_281" class="st76" d="M1087.7,7390.6c4.5,4.5,4.5,11.8,0,16.2s-11.8,4.5-16.2,0s-4.5-11.8,0-16.2
							S1083.2,7386.1,1087.7,7390.6L1087.7,7390.6"/>
						<path id="Path_282" class="st76" d="M1087.7,7390.7c4.4,4.4,4.4,11.6,0,16.1c-4.4,4.4-11.6,4.4-16.1,0
							c-4.4-4.4-4.4-11.6,0-16.1C1076,7386.2,1083.2,7386.2,1087.7,7390.7"/>
						<path id="Path_283" class="st77" d="M1087.6,7390.8c4.4,4.4,4.4,11.5,0,15.9c-4.4,4.4-11.5,4.4-15.9,0s-4.4-11.5,0-15.9l0,0
							C1076.1,7386.4,1083.2,7386.4,1087.6,7390.8"/>
						<path id="Path_284" class="st77" d="M1087.5,7390.8c4.3,4.4,4.4,11.4,0,15.8c-4.3,4.4-11.4,4.4-15.8,0
							c-4.3-4.3-4.4-11.4,0-15.8l0,0C1076.1,7386.5,1083.1,7386.5,1087.5,7390.8"/>
						<path id="Path_285" class="st78" d="M1087.4,7390.9c4.3,4.3,4.3,11.3,0,15.6c-4.3,4.3-11.3,4.3-15.6,0
							c-4.3-4.3-4.3-11.3,0-15.6C1076.1,7386.6,1083.1,7386.6,1087.4,7390.9L1087.4,7390.9"/>
						<path id="Path_286" class="st79" d="M1087.3,7391c4.3,4.3,4.3,11.2,0,15.5s-11.2,4.3-15.5,0s-4.3-11.2,0-15.5
							S1083.1,7386.7,1087.3,7391L1087.3,7391"/>
						<path id="Path_287" class="st79" d="M1087.3,7391.1c4.2,4.2,4.2,11.1,0,15.3c-4.2,4.2-11.1,4.2-15.3,0
							c-4.2-4.2-4.2-11.1,0-15.3C1076.2,7386.8,1083,7386.8,1087.3,7391.1L1087.3,7391.1"/>
						<path id="Path_288" class="st80" d="M1087.2,7391.2c4.2,4.2,4.2,11,0,15.1c-4.2,4.2-11,4.2-15.1,0c-4.2-4.2-4.2-11,0-15.1
							C1076.2,7387,1083,7387,1087.2,7391.2L1087.2,7391.2"/>
						<path id="Path_289" class="st81" d="M1087.1,7391.2c4.1,4.1,4.1,10.9,0,15c-4.1,4.1-10.8,4.1-15,0c-4.1-4.1-4.1-10.9,0-15
							S1083,7387.1,1087.1,7391.2L1087.1,7391.2"/>
						<path id="Path_290" class="st82" d="M1087,7391.3c4.1,4.1,4.1,10.7,0,14.8c-4.1,4.1-10.7,4.1-14.8,0c-4.1-4.1-4.1-10.7,0-14.8
							l0,0C1076.3,7387.2,1082.9,7387.2,1087,7391.3"/>
						<path id="Path_291" class="st82" d="M1087,7391.4c4.1,4.1,4.1,10.6,0,14.7c-4,4-10.6,4-14.7,0c-4.1-4-4.1-10.6,0-14.7l0,0
							C1076.3,7387.3,1082.9,7387.3,1087,7391.4"/>
						<path id="Path_292" class="st82" d="M1086.9,7391.5c4,4,4,10.5,0,14.5c-4,4-10.5,4-14.5,0c-4-4-4-10.5,0-14.5l0,0
							C1076.4,7387.5,1082.9,7387.5,1086.9,7391.5"/>
						<path id="Path_293" class="st83" d="M1086.8,7391.5c4,4,4,10.4,0,14.4c-4,4-10.4,4-14.4,0c-4-4-4-10.4,0-14.4l0,0
							C1076.4,7387.6,1082.8,7387.6,1086.8,7391.5L1086.8,7391.5"/>
						<path id="Path_294" class="st83" d="M1086.7,7391.6c3.9,3.9,3.9,10.3,0,14.2c-3.9,3.9-10.3,3.9-14.2,0
							c-3.9-3.9-3.9-10.3,0-14.2l0,0C1076.4,7387.7,1082.8,7387.7,1086.7,7391.6"/>
						<path id="Path_295" class="st84" d="M1086.6,7391.7c3.9,3.9,3.9,10.2,0,14.1c-3.9,3.9-10.2,3.9-14.1,0
							c-3.9-3.9-3.9-10.2,0-14.1l0,0C1076.5,7387.8,1082.8,7387.8,1086.6,7391.7"/>
						<path id="Path_296" class="st84" d="M1086.6,7391.8c3.8,3.8,3.9,10.1,0,13.9c-3.8,3.9-10.1,3.9-13.9,0s-3.8-10.1,0-13.9l0,0
							C1076.5,7387.9,1082.7,7387.9,1086.6,7391.8"/>
						<path id="Path_297" class="st85" d="M1086.5,7391.8c3.8,3.8,3.8,10,0,13.8c-3.8,3.8-10,3.8-13.8,0c-3.8-3.8-3.8-10,0-13.8l0,0
							C1076.5,7388,1082.7,7388,1086.5,7391.8"/>
						<path id="Path_298" class="st86" d="M1086.4,7391.9c3.8,3.8,3.8,9.9,0,13.6s-9.9,3.8-13.6,0c-3.8-3.8-3.8-9.9,0-13.6
							C1076.6,7388.2,1082.7,7388.2,1086.4,7391.9L1086.4,7391.9"/>
						<path id="Path_299" class="st86" d="M1086.3,7392c3.7,3.7,3.7,9.7,0,13.5c-3.7,3.7-9.7,3.7-13.4,0c-3.7-3.7-3.7-9.7,0-13.5
							l0,0C1076.6,7388.3,1082.6,7388.3,1086.3,7392L1086.3,7392"/>
						<path id="Path_300" class="st87" d="M1086.3,7392.1c3.7,3.7,3.7,9.6,0,13.3c-3.7,3.7-9.6,3.7-13.3,0c-3.7-3.7-3.7-9.6,0-13.3
							l0,0C1076.6,7388.4,1082.6,7388.4,1086.3,7392.1"/>
						<path id="Path_301" class="st87" d="M1086.2,7392.2c3.6,3.6,3.6,9.5,0,13.1c-3.6,3.6-9.5,3.6-13.1,0s-3.6-9.5,0-13.1l0,0
							C1076.7,7388.5,1082.5,7388.5,1086.2,7392.2L1086.2,7392.2"/>
						<path id="Path_302" class="st88" d="M1086.1,7392.2c3.6,3.6,3.6,9.4,0,13c-3.6,3.6-9.4,3.6-13,0c-3.6-3.6-3.6-9.4,0-13
							C1076.7,7388.7,1082.5,7388.7,1086.1,7392.2"/>
						<path id="Path_303" class="st89" d="M1086,7392.3c3.5,3.5,3.5,9.3,0,12.8c-3.5,3.5-9.3,3.5-12.8,0c-3.5-3.5-3.5-9.3,0-12.8
							l0,0C1076.7,7388.8,1082.5,7388.8,1086,7392.3"/>
						<path id="Path_304" class="st90" d="M1086,7392.4c3.5,3.5,3.5,9.2,0,12.7s-9.2,3.5-12.7,0s-3.5-9.2,0-12.7
							S1082.4,7388.9,1086,7392.4L1086,7392.4"/>
						<path id="Path_305" class="st90" d="M1085.9,7392.5c3.5,3.5,3.5,9.1,0,12.5s-9.1,3.5-12.5,0s-3.5-9.1,0-12.5l0,0
							C1076.8,7389,1082.4,7389,1085.9,7392.5L1085.9,7392.5"/>
						<path id="Path_306" class="st91" d="M1085.8,7392.5c3.4,3.4,3.4,9,0,12.4c-3.4,3.4-9,3.4-12.4,0c-3.4-3.4-3.4-9,0-12.4l0,0
							C1076.9,7389.1,1082.4,7389.1,1085.8,7392.5"/>
						<path id="Path_307" class="st92" d="M1085.7,7392.6c3.4,3.4,3.4,8.8,0,12.2c-3.4,3.4-8.8,3.4-12.2,0c-3.4-3.4-3.4-8.8,0-12.2
							l0,0C1076.9,7389.2,1082.4,7389.2,1085.7,7392.6"/>
						<path id="Path_308" class="st92" d="M1085.6,7392.7c3.3,3.3,3.3,8.7,0,12.1c-3.3,3.3-8.7,3.3-12.1,0c-3.3-3.3-3.3-8.7,0-12.1
							l0,0C1076.9,7389.4,1082.3,7389.4,1085.6,7392.7"/>
						<path id="Path_309" class="st93" d="M1085.6,7392.8c3.3,3.3,3.3,8.6,0,11.9c-3.3,3.3-8.6,3.3-11.9,0c-3.3-3.3-3.3-8.6,0-11.9
							l0,0C1077,7389.5,1082.3,7389.5,1085.6,7392.8"/>
						<path id="Path_310" class="st94" d="M1085.5,7392.9c3.2,3.2,3.2,8.5,0,11.8c-3.2,3.2-8.5,3.2-11.8,0c-3.2-3.2-3.2-8.5,0-11.8
							C1077,7389.6,1082.3,7389.6,1085.5,7392.9"/>
						<path id="Path_311" class="st94" d="M1085.4,7392.9c3.2,3.2,3.2,8.4,0,11.6c-3.2,3.2-8.4,3.2-11.6,0c-3.2-3.2-3.2-8.4,0-11.6
							C1077,7389.7,1082.2,7389.7,1085.4,7392.9"/>
						<path id="Path_312" class="st95" d="M1085.3,7393c3.2,3.2,3.2,8.3,0,11.4c-3.2,3.2-8.3,3.2-11.4,0c-3.2-3.2-3.2-8.3,0-11.4
							S1082.2,7389.8,1085.3,7393L1085.3,7393"/>
						<path id="Path_313" class="st95" d="M1085.3,7393.1c3.1,3.1,3.1,8.2,0,11.3c-3.1,3.1-8.2,3.1-11.3,0c-3.1-3.1-3.1-8.2,0-11.3
							C1077.1,7390,1082.1,7390,1085.3,7393.1L1085.3,7393.1"/>
						<path id="Path_314" class="st96" d="M1085.2,7393.2c3.1,3.1,3.1,8.1,0,11.1c-3.1,3.1-8.1,3.1-11.1,0c-3.1-3.1-3.1-8.1,0-11.1
							l0,0C1077.1,7390.1,1082.1,7390.1,1085.2,7393.2"/>
						<path id="Path_315" class="st96" d="M1085.1,7393.2c3,3,3,7.9,0,11c-3,3-7.9,3-11,0c-3-3-3-7.9,0-11
							C1077.2,7390.2,1082.1,7390.2,1085.1,7393.2"/>
						<path id="Path_316" class="st97" d="M1085,7393.3c3,3,3,7.8,0,10.8c-3,3-7.8,3-10.8,0c-3-3-3-7.8,0-10.8l0,0
							C1077.2,7390.3,1082,7390.3,1085,7393.3"/>
						<path id="Path_317" class="st97" d="M1084.9,7393.4c2.9,2.9,2.9,7.7,0,10.7c-2.9,3-7.7,3-10.7,0c-2.9-2.9-2.9-7.7,0-10.7
							C1077.2,7390.4,1082,7390.4,1084.9,7393.4L1084.9,7393.4"/>
						<path id="Path_318" class="st97" d="M1084.9,7393.5c2.9,2.9,2.9,7.6,0,10.5s-7.6,2.9-10.5,0s-2.9-7.6,0-10.5l0,0
							C1077.3,7390.6,1082,7390.6,1084.9,7393.5"/>
						<path id="Path_319" class="st98" d="M1084.8,7393.5c2.9,2.9,2.9,7.5,0,10.4c-2.9,2.9-7.5,2.9-10.4,0c-2.9-2.9-2.9-7.5,0-10.4
							l0,0C1077.3,7390.7,1081.9,7390.7,1084.8,7393.5"/>
						<path id="Path_320" class="st98" d="M1084.7,7393.6c2.8,2.8,2.8,7.4,0,10.2c-2.8,2.8-7.4,2.8-10.2,0c-2.8-2.8-2.8-7.4,0-10.2
							l0,0C1077.3,7390.8,1081.9,7390.8,1084.7,7393.6L1084.7,7393.6"/>
						<path id="Path_321" class="st99" d="M1084.6,7393.7c2.8,2.8,2.8,7.3,0,10c-2.8,2.8-7.3,2.8-10.1,0c-2.8-2.8-2.8-7.3,0-10l0,0
							C1077.4,7390.9,1081.9,7390.9,1084.6,7393.7"/>
						<path id="Path_322" class="st99" d="M1084.6,7393.8c2.7,2.7,2.7,7.2,0,9.9c-2.7,2.7-7.2,2.7-9.9,0c-2.7-2.7-2.7-7.2,0-9.9
							C1077.4,7391.1,1081.8,7391.1,1084.6,7393.8L1084.6,7393.8"/>
						<path id="Path_323" class="st100" d="M1084.5,7393.9c2.7,2.7,2.7,7,0,9.7c-2.7,2.7-7.1,2.7-9.7,0c-2.7-2.7-2.7-7,0-9.7l0,0
							C1077.4,7391.2,1081.8,7391.2,1084.5,7393.9L1084.5,7393.9"/>
						<path id="Path_324" class="st100" d="M1084.4,7393.9c2.7,2.6,2.7,6.9,0,9.6c-2.7,2.6-6.9,2.6-9.6,0c-2.6-2.7-2.6-6.9,0-9.6
							C1077.5,7391.3,1081.8,7391.3,1084.4,7393.9L1084.4,7393.9"/>
						<path id="Path_325" class="st101" d="M1084.3,7394c2.6,2.6,2.6,6.8,0,9.4c-2.6,2.6-6.8,2.6-9.4,0c-2.6-2.6-2.6-6.8,0-9.4
							C1077.5,7391.4,1081.7,7391.4,1084.3,7394"/>
						<path id="Path_326" class="st101" d="M1084.3,7394.1c2.6,2.6,2.6,6.7,0,9.3c-2.6,2.6-6.7,2.6-9.3,0c-2.6-2.6-2.6-6.7,0-9.3
							l0,0C1077.5,7391.5,1081.7,7391.5,1084.3,7394.1"/>
						<path id="Path_327" class="st102" d="M1084.2,7394.2c2.5,2.5,2.5,6.6,0,9.1c-2.5,2.5-6.6,2.5-9.1,0c-2.5-2.5-2.5-6.6,0-9.1
							C1077.6,7391.6,1081.6,7391.6,1084.2,7394.2L1084.2,7394.2"/>
						<path id="Path_328" class="st103" d="M1084.1,7394.2c2.5,2.5,2.5,6.5,0,9c-2.5,2.5-6.5,2.5-9,0s-2.5-6.5,0-9
							C1077.6,7391.8,1081.6,7391.8,1084.1,7394.2L1084.1,7394.2"/>
						<path id="Path_329" class="st104" d="M1084,7394.3c2.4,2.4,2.4,6.4,0,8.8c-2.4,2.4-6.4,2.4-8.8,0c-2.4-2.4-2.4-6.4,0-8.8
							C1077.6,7391.9,1081.6,7391.9,1084,7394.3"/>
						<path id="Path_330" class="st105" d="M1083.9,7394.4c2.4,2.4,2.4,6.3,0,8.7c-2.4,2.4-6.3,2.4-8.7,0c-2.4-2.4-2.4-6.3,0-8.7
							S1081.6,7392,1083.9,7394.4"/>
						<path id="Path_331" class="st106" d="M1083.9,7394.5c2.3,2.3,2.3,6.1,0,8.5c-2.3,2.3-6.2,2.3-8.5,0c-2.3-2.4-2.3-6.2,0-8.5
							C1077.7,7392.1,1081.5,7392.1,1083.9,7394.5L1083.9,7394.5"/>
						<path id="Path_332" class="st107" d="M1083.8,7394.6c2.3,2.3,2.3,6,0,8.4c-2.3,2.3-6,2.3-8.4,0c-2.3-2.3-2.3-6,0-8.4l0,0
							C1077.7,7392.2,1081.5,7392.2,1083.8,7394.6"/>
						<path id="Path_333" class="st107" d="M1083.7,7394.6c2.3,2.3,2.3,5.9,0,8.2c-2.3,2.3-5.9,2.3-8.2,0c-2.3-2.3-2.3-5.9,0-8.2
							C1077.8,7392.4,1081.4,7392.4,1083.7,7394.6L1083.7,7394.6"/>
						<path id="Path_334" class="st107" d="M1083.6,7394.7c2.2,2.2,2.2,5.8,0,8c-2.2,2.2-5.8,2.2-8,0c-2.2-2.2-2.2-5.8,0-8
							C1077.8,7392.5,1081.4,7392.5,1083.6,7394.7"/>
						<path id="Path_335" class="st108" d="M1083.6,7394.8c2.2,2.2,2.2,5.7,0,7.9c-2.2,2.2-5.7,2.2-7.9,0c-2.2-2.2-2.2-5.7,0-7.9
							C1077.9,7392.6,1081.4,7392.6,1083.6,7394.8L1083.6,7394.8"/>
						<path id="Path_336" class="st108" d="M1083.5,7394.9c2.1,2.1,2.1,5.6,0,7.7c-2.1,2.1-5.6,2.1-7.7,0c-2.1-2.1-2.1-5.6,0-7.7
							l0,0C1077.9,7392.7,1081.3,7392.7,1083.5,7394.9"/>
						<path id="Path_337" class="st109" d="M1083.4,7394.9c2.1,2.1,2.1,5.5,0,7.6s-5.5,2.1-7.6,0c-2.1-2.1-2.1-5.5,0-7.6l0,0
							C1077.9,7392.8,1081.3,7392.8,1083.4,7394.9L1083.4,7394.9"/>
						<path id="Path_338" class="st109" d="M1083.3,7395c2.1,2,2.1,5.4,0,7.4c-2,2-5.4,2-7.4,0c-2.1-2.1-2.1-5.4,0-7.4l0,0
							C1078,7393,1081.3,7393,1083.3,7395L1083.3,7395"/>
						<path id="Path_339" class="st110" d="M1083.2,7395.1c2,2,2,5.3,0,7.3s-5.3,2-7.3,0c-2-2-2-5.3,0-7.3
							S1081.2,7393.1,1083.2,7395.1"/>
						<path id="Path_340" class="st110" d="M1083.2,7395.2c2,2,2,5.1,0,7.1c-2,2-5.2,2-7.1,0c-2-2-2-5.2,0-7.1l0,0
							C1078,7393.2,1081.2,7393.2,1083.2,7395.2"/>
						<path id="Path_341" class="st110" d="M1083.1,7395.3c1.9,1.9,1.9,5,0,7c-1.9,1.9-5,1.9-7,0c-1.9-1.9-1.9-5,0-7l0,0
							C1078.1,7393.3,1081.2,7393.3,1083.1,7395.3L1083.1,7395.3"/>
						<path id="Path_342" class="st111" d="M1083,7395.3c1.9,1.9,1.9,4.9,0,6.8s-4.9,1.9-6.8,0s-1.9-4.9,0-6.8
							C1078.1,7393.4,1081.1,7393.4,1083,7395.3"/>
						<path id="Path_343" class="st112" d="M1082.9,7395.4c1.8,1.8,1.8,4.8,0,6.6c-1.8,1.8-4.8,1.8-6.6,0c-1.8-1.8-1.8-4.8,0-6.6
							l0,0C1078.1,7393.6,1081.1,7393.6,1082.9,7395.4"/>
						<path id="Path_344" class="st113" d="M1082.9,7395.5c1.8,1.8,1.8,4.7,0,6.5s-4.7,1.8-6.5,0s-1.8-4.7,0-6.5l0,0
							C1078.2,7393.7,1081.1,7393.7,1082.9,7395.5"/>
						<path id="Path_345" class="st113" d="M1082.8,7395.6c1.8,1.8,1.8,4.6,0,6.3s-4.6,1.8-6.3,0s-1.8-4.6,0-6.3
							S1081,7393.8,1082.8,7395.6"/>
						<path id="Path_346" class="st114" d="M1082.7,7395.6c1.7,1.7,1.7,4.5,0,6.2c-1.7,1.7-4.5,1.7-6.2,0c-1.7-1.7-1.7-4.5,0-6.2
							l0,0C1078.2,7393.9,1081,7393.9,1082.7,7395.6"/>
						<path id="Path_347" class="st115" d="M1082.6,7395.7c1.7,1.7,1.7,4.4,0,6c-1.7,1.7-4.4,1.7-6,0c-1.7-1.7-1.7-4.4,0-6l0,0
							C1078.3,7394.1,1081,7394,1082.6,7395.7L1082.6,7395.7"/>
						<path id="Path_348" class="st116" d="M1082.6,7395.8c1.6,1.6,1.6,4.2,0,5.9c-1.6,1.6-4.2,1.6-5.9,0c-1.6-1.6-1.6-4.2,0-5.9
							C1078.3,7394.2,1080.9,7394.2,1082.6,7395.8L1082.6,7395.8"/>
						<path id="Path_349" class="st116" d="M1082.5,7395.9c1.6,1.6,1.6,4.1,0,5.7c-1.6,1.6-4.1,1.6-5.7,0s-1.6-4.1,0-5.7
							C1078.3,7394.3,1080.9,7394.3,1082.5,7395.9L1082.5,7395.9"/>
						<path id="Path_350" class="st116" d="M1082.4,7395.9c1.5,1.5,1.5,4,0,5.6c-1.5,1.5-4,1.5-5.6,0c-1.5-1.5-1.5-4,0-5.6l0,0
							C1078.4,7394.4,1080.9,7394.4,1082.4,7395.9L1082.4,7395.9"/>
						<path id="Path_351" class="st117" d="M1082.3,7396c1.5,1.5,1.5,3.9,0,5.4c-1.5,1.5-3.9,1.5-5.4,0s-1.5-3.9,0-5.4l0,0
							C1078.4,7394.5,1080.8,7394.5,1082.3,7396L1082.3,7396"/>
						<path id="Path_352" class="st117" d="M1082.2,7396.1c1.4,1.5,1.4,3.8,0,5.3c-1.4,1.4-3.8,1.4-5.3,0c-1.5-1.5-1.4-3.8,0-5.3
							l0,0C1078.4,7394.6,1080.8,7394.6,1082.2,7396.1L1082.2,7396.1"/>
						<path id="Path_353" class="st118" d="M1082.2,7396.2c1.4,1.4,1.4,3.7,0,5.1c-1.4,1.4-3.7,1.4-5.1,0c-1.4-1.4-1.4-3.7,0-5.1
							C1078.5,7394.8,1080.8,7394.8,1082.2,7396.2L1082.2,7396.2"/>
						<path id="Path_354" class="st119" d="M1082.1,7396.3c1.4,1.4,1.4,3.6,0,5c-1.4,1.4-3.6,1.4-4.9,0c-1.4-1.4-1.4-3.6,0-5
							S1080.7,7394.9,1082.1,7396.3"/>
						<path id="Path_355" class="st120" d="M1082,7396.3c1.3,1.3,1.3,3.5,0,4.8c-1.3,1.3-3.5,1.3-4.8,0c-1.3-1.3-1.3-3.5,0-4.8
							C1078.5,7395,1080.7,7395,1082,7396.3L1082,7396.3"/>
						<path id="Path_356" class="st120" d="M1081.9,7396.4c1.3,1.3,1.3,3.4,0,4.6c-1.3,1.3-3.4,1.3-4.6,0c-1.3-1.3-1.3-3.4,0-4.6
							l0,0C1078.6,7395.1,1080.7,7395.1,1081.9,7396.4"/>
						<path id="Path_357" class="st121" d="M1081.9,7396.5c1.2,1.2,1.2,3.2,0,4.5c-1.2,1.2-3.2,1.2-4.5,0c-1.2-1.2-1.2-3.2,0-4.5
							S1080.6,7395.3,1081.9,7396.5"/>
						<path id="Path_358" class="st121" d="M1081.8,7396.6c1.2,1.2,1.2,3.1,0,4.3c-1.2,1.2-3.1,1.2-4.3,0c-1.2-1.2-1.2-3.1,0-4.3
							C1078.7,7395.4,1080.6,7395.4,1081.8,7396.6"/>
						<path id="Path_359" class="st122" d="M1081.7,7396.6c1.2,1.2,1.2,3,0,4.2c-1.2,1.1-3,1.1-4.2,0c-1.2-1.1-1.2-3,0-4.2l0,0
							C1078.7,7395.5,1080.5,7395.5,1081.7,7396.6"/>
						<path id="Path_360" class="st123" d="M1081.6,7396.7c1.1,1.1,1.1,2.9,0,4s-2.9,1.1-4,0s-1.1-2.9,0-4
							C1078.7,7395.6,1080.5,7395.6,1081.6,7396.7L1081.6,7396.7"/>
						<path id="Path_361" class="st123" d="M1081.5,7396.8c1.1,1.1,1.1,2.8,0,3.9c-1.1,1.1-2.8,1.1-3.9,0c-1.1-1.1-1.1-2.8,0-3.9
							l0,0C1078.7,7395.7,1080.5,7395.7,1081.5,7396.8"/>
						<path id="Path_362" class="st124" d="M1081.5,7396.9c1,1,1,2.7,0,3.7c-1,1-2.7,1-3.7,0s-1-2.7,0-3.7
							C1078.8,7395.9,1080.4,7395.9,1081.5,7396.9"/>
						<path id="Path_363" class="st124" d="M1081.4,7396.9c1,1,1,2.6,0,3.6s-2.6,1-3.6,0s-1-2.6,0-3.6l0,0
							C1078.8,7396,1080.4,7396,1081.4,7396.9"/>
						<path id="Path_364" class="st125" d="M1081.3,7397c0.9,0.9,0.9,2.5,0,3.4c-0.9,0.9-2.5,0.9-3.4,0c-0.9-0.9-0.9-2.5,0-3.4
							C1078.9,7396.1,1080.4,7396.1,1081.3,7397"/>
						<path id="Path_365" class="st125" d="M1081.2,7397.1c0.9,0.9,0.9,2.4,0,3.2s-2.3,0.9-3.2,0s-0.9-2.4,0-3.2
							C1078.9,7396.2,1080.3,7396.2,1081.2,7397.1L1081.2,7397.1"/>
						<path id="Path_366" class="st126" d="M1081.2,7397.2c0.8,0.9,0.9,2.2,0,3.1c-0.9,0.8-2.2,0.9-3.1,0c-0.8-0.9-0.9-2.2,0-3.1
							l0,0C1078.9,7396.3,1080.3,7396.3,1081.2,7397.2"/>
						<path id="Path_367" class="st127" d="M1081.1,7397.3c0.8,0.8,0.8,2.1,0,2.9c-0.8,0.8-2.1,0.8-2.9,0c-0.8-0.8-0.8-2.1,0-2.9
							C1079,7396.4,1080.3,7396.4,1081.1,7397.3L1081.1,7397.3"/>
						<path id="Path_368" class="st128" d="M1081,7397.3c0.8,0.8,0.8,2,0,2.8s-2,0.8-2.8,0s-0.8-2,0-2.8S1080.2,7396.6,1081,7397.3
							L1081,7397.3"/>
						<path id="Path_369" class="st129" d="M1080.9,7397.4c0.7,0.7,0.7,1.9,0,2.6c-0.7,0.7-1.9,0.7-2.6,0c-0.7-0.7-0.7-1.9,0-2.6
							C1079,7396.7,1080.2,7396.7,1080.9,7397.4L1080.9,7397.4"/>
						<path id="Path_370" class="st129" d="M1080.9,7397.5c0.7,0.7,0.7,1.8,0,2.5c-0.7,0.7-1.8,0.7-2.5,0c-0.7-0.7-0.7-1.8,0-2.5
							C1079.1,7396.8,1080.2,7396.8,1080.9,7397.5L1080.9,7397.5"/>
						<path id="Path_371" class="st130" d="M1080.8,7397.6c0.6,0.6,0.6,1.7,0,2.3c-0.6,0.6-1.7,0.6-2.3,0c-0.6-0.6-0.6-1.7,0-2.3
							S1080.1,7396.9,1080.8,7397.6L1080.8,7397.6"/>
						<path id="Path_372" class="st131" d="M1080.7,7397.6c0.6,0.6,0.6,1.6,0,2.2c-0.6,0.6-1.6,0.6-2.2,0c-0.6-0.6-0.6-1.6,0-2.2
							C1079.1,7397,1080.1,7397,1080.7,7397.6L1080.7,7397.6"/>
						<path id="Path_373" class="st132" d="M1080.6,7397.7c0.6,0.6,0.6,1.5,0,2c-0.6,0.6-1.5,0.6-2,0c-0.6-0.6-0.6-1.5,0-2
							C1079.2,7397.2,1080.1,7397.2,1080.6,7397.7"/>
						<path id="Path_374" class="st132" d="M1080.5,7397.8c0.5,0.5,0.5,1.3,0,1.9c-0.5,0.5-1.3,0.5-1.9,0c-0.5-0.5-0.5-1.3,0-1.9
							l0,0C1079.2,7397.3,1080,7397.3,1080.5,7397.8L1080.5,7397.8"/>
						<path id="Path_375" class="st133" d="M1080.5,7397.9c0.5,0.5,0.5,1.2,0,1.7c-0.5,0.5-1.2,0.5-1.7,0c-0.5-0.5-0.5-1.2,0-1.7
							l0,0C1079.2,7397.4,1080,7397.4,1080.5,7397.9"/>
						<path id="Path_376" class="st134" d="M1080.4,7397.9c0.4,0.4,0.4,1.1,0,1.6c-0.4,0.4-1.1,0.4-1.6,0c-0.4-0.4-0.4-1.1,0-1.6
							l0,0C1079.3,7397.5,1080,7397.5,1080.4,7397.9"/>
						<path id="Path_377" class="st134" d="M1080.3,7398c0.4,0.4,0.4,1,0,1.4s-1,0.4-1.4,0c-0.4-0.4-0.4-1,0-1.4
							C1079.3,7397.7,1079.9,7397.7,1080.3,7398"/>
						<path id="Path_378" class="st135" d="M1080.2,7398.1c0.3,0.3,0.3,0.9,0,1.2c-0.3,0.3-0.9,0.3-1.2,0c-0.3-0.3-0.3-0.9,0-1.2
							S1079.9,7397.8,1080.2,7398.1L1080.2,7398.1"/>
						<path id="Path_379" class="st136" d="M1080.2,7398.2c0.3,0.3,0.3,0.8,0,1.1c-0.3,0.3-0.8,0.3-1.1,0c-0.3-0.3-0.3-0.8,0-1.1
							l0,0C1079.4,7397.9,1079.9,7397.9,1080.2,7398.2"/>
						<path id="Path_380" class="st137" d="M1080.1,7398.3c0.3,0.3,0.3,0.7,0,0.9c-0.3,0.3-0.7,0.3-0.9,0c-0.3-0.3-0.3-0.7,0-0.9
							l0,0C1079.4,7398,1079.8,7398,1080.1,7398.3"/>
						<path id="Path_381" class="st137" d="M1080,7398.3c0.2,0.2,0.2,0.6,0,0.8c-0.2,0.2-0.6,0.2-0.8,0c-0.2-0.2-0.2-0.6,0-0.8
							C1079.4,7398.1,1079.8,7398.1,1080,7398.3L1080,7398.3"/>
						<path id="Path_382" class="st138" d="M1079.9,7398.4c0.2,0.2,0.2,0.4,0,0.6c-0.2,0.2-0.5,0.2-0.6,0c-0.2-0.2-0.2-0.4,0-0.6
							C1079.5,7398.3,1079.8,7398.3,1079.9,7398.4"/>
						<path id="Path_383" class="st138" d="M1079.8,7398.5c0.1,0.1,0.1,0.3,0,0.5c-0.1,0.1-0.3,0.1-0.5,0c-0.1-0.1-0.1-0.3,0-0.5
							C1079.5,7398.4,1079.7,7398.4,1079.8,7398.5"/>
						<path id="Path_384" class="st139" d="M1079.8,7398.6c0.1,0.1,0.1,0.2,0,0.3l0,0c-0.1,0.1-0.2,0.1-0.3,0
							c-0.1-0.1-0.1-0.2,0-0.3C1079.5,7398.5,1079.7,7398.5,1079.8,7398.6L1079.8,7398.6"/>
						<path id="Path_385" class="st139" d="M1079.7,7398.6c0,0,0,0.1,0,0.1l0,0c0,0-0.1,0-0.2,0c0,0,0-0.1,0-0.2
							C1079.6,7398.6,1079.6,7398.6,1079.7,7398.6"/>
					</g>
				</g>
			</g>
		</g>
		<g id="Group_34">
			<path id="Path_387" class="st0" d="M1079.5,7382.6L1079.5,7382.6c-4.9,0-8.9,3.8-8.9,8.7c0,0.2,0,0.4,0,0.5
				c0.1,0.8,0.2,1.6,0.4,2.4l0.4,1.3c-0.2-0.8-0.2-1.6-0.2-2.4c0.4-4.2,4-7.3,8.2-7.2h0.2c4.2-0.2,7.8,3,8.2,7.2
				c0,0.8,0,1.6-0.2,2.4l0.4-1.2c0.2-0.8,0.3-1.6,0.3-2.4c0.3-4.8-3.4-8.9-8.3-9.2C1079.9,7382.6,1079.7,7382.6,1079.5,7382.6"/>
			<path id="Path_388" class="st139" d="M1087.9,7393.3c0,0.6,0,1.2-0.2,1.7c0.5-1.1,0.7-2.2,0.8-3.4c0-5-4-9-9-9s-9,4-9,9
				c0,1.2,0.3,2.3,0.8,3.4c-0.1-0.6-0.1-1.1-0.1-1.7c0-4.6,3.7-8.3,8.3-8.3h0.2C1084.2,7385,1087.9,7388.7,1087.9,7393.3"/>
			<path id="Path_389" class="st0" d="M1101.2,7403.7c-0.7-4.9-5.3-8.3-10.2-7.6c-0.1,0-0.3,0-0.4,0.1c-1.2,0.3-2.3,0.7-3.3,1.4
				l0.3,0.6c0.5-0.2,1.1-0.3,1.6-0.4c4.4-0.8,8.6,2.1,9.6,6.4l0,0.2c0.6,4.4-2.5,8.5-6.8,9.2c-0.6,0.1-1.1,0.1-1.7,0.1l-0.1,0.7
				c1.2,0.3,2.4,0.4,3.6,0.2C1098.9,7413.7,1102.2,7408.9,1101.2,7403.7C1101.2,7403.8,1101.2,7403.8,1101.2,7403.7"/>
			<path id="Path_390" class="st139" d="M1098.8,7403.8c-0.8-4.5-5.1-7.5-9.6-6.7c-0.6,0.1-1.1,0.2-1.7,0.4c1-0.7,2-1.1,3.2-1.4
				c4.9-0.9,9.6,2.3,10.5,7.1c0.9,4.9-2.3,9.6-7.1,10.5c-0.1,0-0.2,0-0.3,0c-1.2,0.2-2.3,0.1-3.4-0.2c0.6,0,1.2-0.1,1.7-0.2
				c4.5-0.8,7.5-5.1,6.8-9.6L1098.8,7403.8L1098.8,7403.8z"/>
			<path id="Path_391" class="st0" d="M1057.8,7403.7c0.7-4.9,5.3-8.3,10.2-7.6c0.1,0,0.3,0,0.4,0.1c1.2,0.3,2.3,0.7,3.3,1.4
				l-0.3,0.6c-0.5-0.2-1.1-0.3-1.6-0.4c-4.4-0.8-8.6,2.1-9.6,6.4l0,0.2c-0.6,4.4,2.5,8.5,6.8,9.2c0.6,0.1,1.1,0.1,1.7,0.1l0.1,0.7
				c-1.2,0.3-2.4,0.4-3.6,0.2c-5-0.9-8.3-5.8-7.4-10.8C1057.8,7403.8,1057.8,7403.8,1057.8,7403.7"/>
			<path id="Path_392" class="st139" d="M1060.2,7403.8c0.8-4.5,5.1-7.5,9.7-6.7c0.6,0.1,1.1,0.2,1.7,0.4c-1-0.7-2-1.1-3.2-1.4
				c-4.9-0.9-9.6,2.4-10.5,7.2c-0.9,4.9,2.3,9.6,7.2,10.5c0,0,0.1,0,0.1,0c1.2,0.2,2.3,0.1,3.4-0.2c-0.6,0-1.2-0.1-1.7-0.2
				c-4.5-0.8-7.5-5.1-6.8-9.6L1060.2,7403.8L1060.2,7403.8z"/>
			<path id="Path_393" class="st0" d="M1092.2,7432.8h-0.6c-5.1-0.3-9-4.6-8.7-9.7c0.2-3.8,2.7-7.1,6.3-8.3l-0.1-0.7
				c-5.5,0.5-9.5,5.2-9.1,10.7c0.4,4.8,4.2,8.6,9,9c1.1,0.1,2.2-0.1,3.3-0.4L1092.2,7432.8L1092.2,7432.8z"/>
			<path id="Path_394" class="st139" d="M1091.6,7432.7c-5.3-0.3-9.3-4.8-9-10.1c0.2-3.9,2.8-7.4,6.6-8.6c-5.2,0.3-9.3,4.8-8.9,10.1
				c0.3,4.8,4.1,8.6,8.9,8.9c1.1,0,2.1-0.1,3.2-0.4C1092,7432.7,1091.8,7432.7,1091.6,7432.7"/>
			<path id="Path_395" class="st0" d="M1066.8,7432.8h0.6c5.1-0.3,9-4.6,8.7-9.7v0c-0.2-3.8-2.7-7.1-6.4-8.3l0.1-0.7
				c5.4,0.5,9.5,5.2,9.1,10.7c-0.4,4.8-4.2,8.6-9,9c-1.1,0.1-2.2-0.1-3.3-0.4L1066.8,7432.8L1066.8,7432.8z"/>
			<path id="Path_396" class="st139" d="M1067.4,7432.7c5.3-0.3,9.3-4.8,9-10c-0.2-4-2.8-7.4-6.6-8.6c5.2,0.3,9.3,4.8,9,10.1
				c-0.3,4.8-4.1,8.6-8.9,8.9c-1.1,0-2.1-0.1-3.1-0.4C1067,7432.7,1067.2,7432.7,1067.4,7432.7"/>
			<path id="Path_397" class="st0" d="M1141.9,7469.4h-26.4c0,0.6-0.1,1.3-0.2,1.9l-0.1,0.4l-0.1,0.2c0,0.1,0,0.1-0.1,0.2l-0.2,0.4
				l-0.1,0.2l-0.1,0.2c-0.5,1.2-1.8,1.9-3.1,1.9c-0.6,0-1.2-0.2-1.7-0.5c-0.5-0.4-0.9-0.9-1.1-1.5l0.3-0.2c0.5,0.5,1.1,0.7,1.8,0.8
				c0.2,0,0.3,0,0.5-0.1c0.1,0,0.3,0,0.4-0.1c0.8-0.3,1.4-0.9,1.6-1.7l0.1-0.4l0.1-0.7v-2.7h-0.9l0-0.4l0.3-0.1l0.5-0.3
				c0.2-0.2,0.4-0.3,0.6-0.5l0.6-0.8l0.2-0.3l0.2-0.4l0.4,0.1v2.7h25.1v-0.7c0-0.9-0.5-0.9-1.6-0.9h-16.2v-2l10.1-9.1
				c0.1-0.1,0.1-0.2,0.2-0.2c0.1,0,0.1,0.1,0.1,0.2c0,0.2-0.3,0.4-0.4,0.7c0,0.1-0.8,1.6-0.8,1.8c0.2,0.3,0.2,0.7,0.3,1.1
				c0,0.6-0.2,1-0.4,1c-0.2,0-0.1-0.7-0.5-0.7c-0.3,0-0.7,0.3-1,0.6l-5.4,4.6h13.9c2.2,0,3,0.6,3,3L1141.9,7469.4L1141.9,7469.4z
				 M1051.4,7473.9c0,0,0.9,1,1.3,1.2l0,0l0,0c0,0-0.1,0.1-0.1,0.1c0,0,0,0,0.1,0.1c-0.3,0.3-1.2,1.3-1.2,1.3h0
				c-0.1-0.2-1.4-1.4-1.4-1.4S1051.3,7474.1,1051.4,7473.9 M1052.7,7475.2c0.3-0.3,1.1-1.1,1.3-1.2v0l1.3,1.4c0,0-1.1,1.2-1.3,1.4
				l0,0.1c0,0-0.9-1-1.2-1.3c0,0,0,0,0,0l0,0c0,0,0.1-0.1,0.1-0.1C1052.8,7475.3,1052.7,7475.3,1052.7,7475.2 M1043.3,7468.9
				l0.2,0.1l0,0.4h-4.8v-16.6l0.4-0.1c0.2,0.3,0.4,0.7,0.6,1l0.3,0.4l0.4,0.4l0.8,0.5l0.4,0.3l0.4,0.2l-0.1,0.4h-1.2v11.6h1.5
				c0,0.2,0,0.4,0.1,0.6c0,0.1,0.1,0.2,0.3,0.4l0.6,0.4L1043.3,7468.9L1043.3,7468.9z M1066.1,7470.2l1.4,1.4l-1.4,1.4l-1.4-1.4
				L1066.1,7470.2z M1173,7469l0,0.4h-4.8v-16.6l0.4-0.1c0.2,0.3,0.4,0.7,0.6,1l0.3,0.4l0.4,0.4l0.7,0.5l0.4,0.3l0.4,0.2l-0.1,0.4
				h-1.2v11.6h1.5c0,0.2,0,0.4,0.1,0.6c0,0.1,0.1,0.2,0.2,0.4l0.6,0.4l0.2,0.1L1173,7469L1173,7469z M1089.2,7466.7
				c0-0.1,0-0.2-0.1-0.3c-0.1-0.1-0.2-0.1-0.3-0.1h-12.5v1.1h12.9V7466.7L1089.2,7466.7z M1097.1,7452.7l0.4,0.1v16.5h-37.7
				c0,0-4.5-4.5-5.8-5.8l-0.3-0.3l-0.1,0.2l-0.1,0.1l-0.2,0.3l-0.1,0.1l-0.1,0.3c0.1,0.3,0.2,0.5,0.4,0.7c0,0,0.2,0.2,0.5,0.4
				c0.3,0.3,0.5,0.6,0.8,0.9c1,0.9,1.7,2.2,1.8,3.6c0,1.2-0.5,2.3-1.4,3.1c-0.4,0.3-0.8,0.6-1.2,0.8c-0.4,0.2-0.8,0.3-1.3,0.3h-0.5
				c-0.3,0-0.6,0-0.8,0c-0.7-0.1-1.3-0.4-1.9-0.9c-0.9-0.8-1.5-1.9-1.5-3.2v-0.5c0-0.2,0-0.3,0.1-0.5c0.1-0.4,0.2-0.7,0.4-1l0.3,0.2
				c-0.2,0.3-0.3,0.6-0.3,1c0.1,0.8,0.5,1.6,1.1,2.1c0.5,0.4,1,0.7,1.6,0.9c0.2,0.1,0.5,0.1,0.8,0.1c0.2,0,0.3,0,0.5,0
				c0.5-0.1,0.9-0.4,1.2-0.7c0,0,0-0.1,0.1-0.1c0.4-0.4,0.7-1,0.7-1.7c0-0.5-0.2-1-0.6-1.4c0,0-0.1-0.1-0.1-0.1
				c-0.3-0.3-0.8-0.8-1.3-1.2c-0.3-0.3-0.6-0.6-0.6-0.6c-0.2-0.2-0.5-0.5-0.7-0.8c-0.1-0.1-0.2-0.2-0.2-0.3c-0.2-0.3-0.3-0.6-0.3-1
				l0-0.4l0.1-0.2l0-0.1l0.1-0.1c0.1-0.1,0.2-0.2,0.3-0.3c0.4-0.5,0.8-1.1,1.2-1.8c0-0.1,0.1-0.2,0.1-0.3c0.1-0.2,0.2-0.5,0.2-0.7
				c0-0.1-0.1-0.2-0.1-0.3l0.5,0c0,0,0.2,0.2,0.7,0.7c1.8,1.8,6.8,6.8,6.8,6.8h4.7v-2.1h-0.7l-0.1-0.4c0.5-0.2,1-0.5,1.4-0.9
				c0.4-0.5,0.7-1,1-1.5l0.4,0.1v4.9h6.9V7456h-0.9l-0.1-0.4l0.5-0.2l0.4-0.2l0.2-0.1l0.2-0.2l0.1,0l0.1-0.1l0.2-0.2
				c0.2-0.2,0.3-0.4,0.5-0.6c0.1-0.1,0.2-0.3,0.2-0.4l0.1-0.3l0.4,0.1v11.1h13.4c0.4,0,0.8,0.1,1.1,0.4c0.3,0.2,0.4,0.6,0.4,1v1.6
				h4.3v-11.5h-1.9l1.2-0.8l0.3-0.2l0.3-0.2l0.2-0.2l0.3-0.3c0.3-0.2,0.5-0.5,0.7-0.8l0.2-0.3L1097.1,7452.7L1097.1,7452.7z
				 M1158.7,7467.4l-0.2-0.3l-0.2-0.1l-0.4-0.2c-0.2,0-0.8,0-0.8,0v0.7L1158.7,7467.4L1158.7,7467.4z M1166,7452.7l0.4,0.1v16.5
				h-18.2c0,0.6-0.1,1.3-0.2,1.9l-0.1,0.4l-0.1,0.2c0,0.1,0,0.1-0.1,0.2l-0.2,0.4l-0.1,0.2l-0.1,0.2c-0.5,1.2-1.8,2-3.1,1.9
				c-0.6,0-1.2-0.2-1.7-0.5c-0.5-0.4-0.9-0.9-1.1-1.5l0.3-0.2c0.5,0.5,1.1,0.7,1.8,0.8c0.1,0,0.3,0,0.5,0c0.2,0,0.3-0.1,0.4-0.1
				c0.8-0.3,1.3-0.9,1.6-1.7c0.1-0.4,0.2-0.8,0.2-1.2v-2.8l-0.9,0l-0.1-0.4l0.4-0.2l0.5-0.3c0.2-0.1,0.4-0.3,0.6-0.5l0.6-0.8
				l0.2-0.3l0.2-0.4l0.4,0v2.7h7v-3.8l0.4-0.1c0.2,0.4,0.6,0.6,0.9,0.9c0.5,0.2,0.9,0.3,1.4,0.4c0.4,0.1,0.9,0.2,1.4,0.2
				c0.7,0,1.1,0.4,1.3,1.2l0.2,1h3.6v-11.5h-1.9l1.2-0.8l0.3-0.2l0.3-0.2l0.2-0.2l0.3-0.3c0.3-0.2,0.5-0.5,0.7-0.8l0.2-0.3
				L1166,7452.7L1166,7452.7z M1103.8,7468.9l0.2,0.1v0.4h-4.8v-16.6l0.4-0.1c0.1,0.4,0.4,0.7,0.6,1l0.3,0.4l0.4,0.4l0.8,0.5
				l0.4,0.3l0.4,0.2l-0.1,0.4h-1.2v11.6h1.5c0,0.2,0,0.4,0.1,0.6c0,0.1,0.1,0.2,0.2,0.4l0.6,0.5L1103.8,7468.9L1103.8,7468.9z
				 M1012.8,7466.2l-0.5,0.1c-0.1,0-0.2,0.1-0.3,0.1c-0.2,0.1-0.5,0.2-0.7,0.4l-0.1,0.2l0,0.2v0.2h1.7L1012.8,7466.2L1012.8,7466.2z
				 M1014.4,7463.6l0.4,0v6.6c0,1-0.3,1.9-0.8,2.8c-0.4,0.8-1.2,1.4-2.1,1.7c-0.3,0.1-0.6,0.1-0.9,0.1h-0.8
				c-0.5-0.1-0.9-0.3-1.2-0.7c-0.5-0.4-0.8-0.9-1.1-1.4l0.3-0.2c0.5,0.4,1.2,0.7,1.8,0.7h0.3l0.2-0.1l0.7-0.1
				c0.2-0.1,0.4-0.2,0.6-0.4c0.3-0.3,0.5-0.7,0.6-1.1l0-0.3l0-0.2l0.1-0.4l0-0.5v-0.5l0-0.2h0l0-0.1l0,0.1h-3.6l-0.1-0.4l0-0.2v-0.3
				l0-0.4l-0.1-0.5c0-1.1,0.7-2,1.7-2.4c0,0,0.7-0.2,1.3-0.4c0.5-0.2,1-0.3,1-0.3l0.3-0.1c0.1,0,0.2-0.1,0.4-0.2
				c0.2-0.1,0.4-0.2,0.5-0.3C1014.3,7463.8,1014.4,7463.7,1014.4,7463.6 M989.6,7473.9c0,0,1,0.9,1.3,1.2l0,0l0,0
				c0,0-0.1,0.1-0.1,0.1l0.1,0.1l-1.3,1.3c-0.2-0.2-1.4-1.4-1.4-1.4S989.5,7474.1,989.6,7473.9 M1036.6,7452.7l0.4,0.1v16.5h-21.5
				l0-0.4c0.6-0.2,1.1-0.6,1.5-1l0.3-0.3l0.3-0.3l0.2-0.4l0.2-0.4l0.4,0v0.8h10.4v-1l-0.1-0.1c0,0-0.1,0-0.3,0h-9l-0.1-0.4
				c0.3-0.1,0.6-0.2,0.8-0.4c0.2-0.1,0.5-0.3,0.7-0.5l0.5-0.7c0.2-0.2,0.3-0.5,0.4-0.7l0.4,0v0.8h7c0.4,0,0.8,0.1,1.1,0.4
				c0.3,0.2,0.5,0.6,0.5,1v1.7h4.4v-11.5h-1.9l1.2-0.8l0.3-0.2l0.3-0.2l0.2-0.2l0.3-0.3c0.3-0.2,0.5-0.5,0.8-0.8l0.3-0.3
				L1036.6,7452.7L1036.6,7452.7z M991,7475.3c0,0-0.1-0.1-0.1-0.1c0.3-0.3,1.1-1.1,1.2-1.2l0,0l1.3,1.4c0,0-1.2,1.2-1.4,1.4v0.1
				c0,0-1-1-1.2-1.3h0L991,7475.3L991,7475.3 M1113,7464l-1.4-1.4l1.4-1.4l1.4,1.4L1113,7464z M1007.4,7452.7l0.4,0.1v16.5H998
				c0,0-4.6-4.5-5.8-5.8c-0.1-0.1-0.2-0.2-0.3-0.3l-0.1,0.2l-0.1,0.1l-0.2,0.3l-0.1,0.1l-0.1,0.3c0.1,0.3,0.2,0.5,0.4,0.7
				c0,0,0.2,0.2,0.4,0.4c0.4,0.4,0.8,0.9,0.8,0.9c1,0.9,1.7,2.2,1.8,3.6c0,1.2-0.5,2.3-1.3,3.1c-0.4,0.3-0.8,0.6-1.3,0.8
				c-0.4,0.2-0.8,0.3-1.2,0.3h-0.5c-0.3,0-0.6,0-0.8,0c-0.7-0.1-1.4-0.4-1.9-0.9c-0.9-0.8-1.5-1.9-1.5-3.2v-0.5c0-0.2,0-0.3,0.1-0.5
				c0.1-0.3,0.2-0.7,0.4-1l0.3,0.2c-0.2,0.3-0.2,0.6-0.3,1c0.1,0.8,0.5,1.6,1.1,2.1c0.5,0.4,1,0.7,1.7,0.9c0.3,0.1,0.5,0.1,0.8,0.1
				c0.2,0,0.3,0,0.5,0c0.5-0.1,0.9-0.4,1.2-0.7c0,0,0-0.1,0-0.1c0.5-0.4,0.7-1,0.7-1.7c0-0.5-0.2-1-0.5-1.4c-0.1,0-0.1-0.1-0.2-0.1
				c-0.2-0.3-0.8-0.8-1.2-1.2c-0.3-0.3-0.6-0.6-0.6-0.6c-0.2-0.2-0.5-0.5-0.7-0.8c-0.1-0.1-0.2-0.2-0.2-0.3c-0.2-0.3-0.3-0.6-0.3-1
				l0-0.4l0.1-0.2l0-0.1l0.1-0.1c0.1-0.1,0.2-0.2,0.2-0.3c0.4-0.5,0.8-1.1,1.1-1.8c0.1-0.1,0.1-0.2,0.2-0.3c0.1-0.2,0.2-0.5,0.2-0.7
				c0-0.1,0-0.2-0.1-0.3l0.5,0c0,0,0.3,0.2,0.7,0.7c1.9,1.8,6.9,6.8,6.9,6.8h6.7v-11.5h-1.9l1.2-0.8l0.3-0.2l0.3-0.2l0.2-0.2
				l0.3-0.3c0.3-0.3,0.5-0.5,0.7-0.8l0.3-0.3L1007.4,7452.7L1007.4,7452.7z"/>
		</g>
	</g>
</g>
</svg>
