<?xml version="1.0" encoding="utf-8"?>
<!-- Generator: Adobe Illustrator 19.2.1, SVG Export Plug-In . SVG Version: 6.00 Build 0)  -->
<svg version="1.1" id="layer" xmlns="http://www.w3.org/2000/svg" xmlns:xlink="http://www.w3.org/1999/xlink" x="0px" y="0px"
	 viewBox="0 0 652 652" style="enable-background:new 0 0 652 652;" xml:space="preserve">
<style type="text/css">
	.st0{fill:#5C5F60;}
	.st1{clip-path:url(#SVGID_2_);fill:url(#SVGID_3_);}
</style>
<path class="st0" d="M53.9,423.3c-1.7,0-3.1,1.3-3.1,3c0,1.7,1.3,3,3.1,3c1.8,0,3.1-1.3,3.1-3C57,424.6,55.6,423.3,53.9,423.3
	 M45.4,390.9c1.8,0,3.2-1.3,3.2-3c0-1.7-1.4-3-3.2-3c-1.7,0-3.1,1.3-3.1,3C42.3,389.6,43.7,390.9,45.4,390.9 M37,390.9
	c1.8,0,3.1-1.3,3.1-3c0-1.7-1.4-3-3.1-3c-1.7,0-3.1,1.3-3.1,3C33.8,389.6,35.2,390.9,37,390.9 M62.4,423.3c-1.7,0-3.1,1.3-3.1,3
	c0,1.7,1.3,3,3.1,3c1.8,0,3.2-1.3,3.2-3C65.5,424.6,64.2,423.3,62.4,423.3 M163.9,407.4c0,3,1,5.6,2.9,7.8h-11.6v-20.4h-2.4
	c-1.4,0-2.5,1.1-2.5,2.5v17.8h-10.6v-6.9c0-3.1-0.8-5.8-2.3-7.4c-2-2.3-4.4-3.2-8-3.2h-14.8v-2.8h-2.4c-1.4,0-2.5,1.1-2.5,2.5v17.8
	h-8.2v-30.9h-2.4c-1.4,0-2.5,1.1-2.5,2.5v33.3h88.8v-25.3h-6.6C169.7,394.8,163.9,399.8,163.9,407.4 M134.8,415.2h-20.3v-12.7h14.8
	c2,0,3.4,0.6,4.3,1.6c0.8,1,1.2,2.3,1.2,4.1V415.2z M180.5,415.2h-6.8c-3.1-1.8-4.9-4.6-4.9-7.8c0-5,4.4-7.7,8.5-7.7h3.2V415.2z
	 M156.7,390.9c1.8,0,3.2-1.3,3.2-3c0-1.7-1.4-3-3.2-3c-1.7,0-3.1,1.3-3.1,3C153.6,389.6,155,390.9,156.7,390.9 M148.2,390.9
	c1.8,0,3.1-1.3,3.1-3c0-1.7-1.4-3-3.1-3c-1.7,0-3.1,1.3-3.1,3C145.1,389.6,146.5,390.9,148.2,390.9 M181,390.9c1.8,0,3.2-1.3,3.2-3
	c0-1.7-1.4-3-3.2-3c-1.7,0-3.1,1.3-3.1,3C177.9,389.6,179.2,390.9,181,390.9 M172.5,390.9c1.8,0,3.1-1.3,3.1-3c0-1.7-1.4-3-3.1-3
	c-1.7,0-3.1,1.3-3.1,3C169.4,389.6,170.7,390.9,172.5,390.9 M200.7,388h-2.4c-1.4,0-2.5,1.1-2.5,2.5v22.2h4.9V388z M221.1,386.8
	v33.3h4.9v-35.8h-2.4C222.2,384.3,221.1,385.4,221.1,386.8 M79.5,394.8H73v4.9H80c1.4,0,2.9,0.7,3.8,1.7c0.8,1.1,1.2,2.3,1.2,4.2
	v9.5H69.3l-1.9,4.9h22.4v-14.6c0-3-0.9-5.6-2.4-7.4C85.3,395.8,82.9,394.8,79.5,394.8 M209.2,386.8v21.5c0,2.4-0.7,4.1-2.1,5.2
	c-1.4,1.1-3.3,1.7-5.7,1.7h-10.8l-1.9,4.9h11.4c4.6,0,8.2-1.1,10.5-3.1c2.2-1.9,3.5-5.2,3.5-8.7v-24h-2.4
	C210.3,384.3,209.2,385.4,209.2,386.8 M64.2,420.1v-25.3h-2.4c-1.4,0-2.5,1.1-2.5,2.5v17.8H48v-20.4h-6.2c-9,0-15.2,5.2-15.2,12.6
	c0,8.7,6.9,12.1,13.8,12.6l1.9-4.8h-1.9c-4.4,0-8.9-2.4-8.9-7.7c0-4.8,4.6-7.8,8.9-7.8h2.8v20.4H64.2z M299.6,386.8v33.3h4.9v-35.8
	h-2.4C300.8,384.3,299.6,385.4,299.6,386.8 M342.1,423.2c-1.8,0-3.2,1.3-3.2,3c0,1.7,1.4,3.1,3.2,3.1c1.8,0,3.2-1.3,3.2-3.1
	C345.3,424.5,343.9,423.2,342.1,423.2 M287.9,386.8v28.4h-9.7V388h-2.4c-1.4,0-2.5,1.1-2.5,2.5l0,24.6h-8.7v-20.4h-6.2
	c-9,0-15.2,5.2-15.2,12.6c0,8.7,6.9,12.1,13.8,12.6l1.9-4.8h-1.9c-4.4,0-8.9-2.4-8.9-7.7c0-4.8,4.6-7.8,8.9-7.8h2.8v20.4h33.1v-35.8
	h-2.4C289,384.3,287.9,385.4,287.9,386.8 M356.6,406.7c0-2.3,0.9-4.2,2.6-5.7c1.2-1,2.9-1.5,5-1.5c2.6,0,4.9,1,6.7,1.9l0.5,0.3
	l1.8-4.5l-0.1-0.1c-3.3-1.7-5.5-2.4-9.2-2.4c-2.9,0-5.7,1-7.8,2.7c-2.9,2.4-4.5,5.7-4.5,9.7c0,2.5,0.7,5.2,2.2,8.3h-9.3v-20.4h-2.4
	c-1.4,0-2.5,1.1-2.5,2.5v17.8h-7.8v-9.7c0-3-0.9-5.6-2.4-7.4c-2-2.3-4.5-3.3-7.9-3.3h-6.4v4.9h6.9c1.4,0,2.9,0.7,3.8,1.7
	c0.8,1.1,1.2,2.3,1.2,4.2v9.5h-15.6l-1.9,4.9h65.7v-4.9h-16C357.4,412.6,356.6,409.8,356.6,406.7 M536.2,390.9c1.8,0,3.2-1.3,3.2-3
	c0-1.7-1.4-3-3.2-3c-1.7,0-3.1,1.3-3.1,3C533.1,389.6,534.4,390.9,536.2,390.9 M527.7,390.9c1.8,0,3.1-1.3,3.1-3c0-1.7-1.4-3-3.1-3
	c-1.7,0-3.1,1.3-3.1,3C524.6,389.6,525.9,390.9,527.7,390.9 M549.4,391c1.8,0,3.2-1.3,3.2-3.1c0-1.7-1.4-3.1-3.2-3.1
	s-3.2,1.3-3.2,3.1C546.3,389.7,547.6,391,549.4,391 M565.8,423.3c-1.7,0-3.1,1.3-3.1,3c0,1.7,1.3,3,3.1,3c1.8,0,3.2-1.3,3.2-3
	C569,424.6,567.6,423.3,565.8,423.3 M557.3,423.3c-1.7,0-3.1,1.3-3.1,3c0,1.7,1.3,3,3.1,3c1.8,0,3.1-1.3,3.1-3
	C560.4,424.6,559.1,423.3,557.3,423.3 M567.6,420.1v-25.3h-2.4c-1.4,0-2.5,1.1-2.5,2.5v17.8h-10.7v-20.4h-2.4
	c-1.4,0-2.5,1.1-2.5,2.5v17.8h-8.5v-20.4h-6.2c-9,0-15.2,5.2-15.2,12.6c0,8.7,6.9,12.1,13.8,12.6l1.9-4.8H531
	c-4.4,0-8.9-2.4-8.9-7.7c0-4.8,4.6-7.8,8.9-7.8h2.8v20.4H567.6z M613.4,394c-7.9,0-13.6,5.7-13.6,13.5c0,2.9,0.8,5.5,2.3,7.7h-9.5
	v-9.7c0-3-0.9-5.6-2.4-7.4c-2-2.3-4.5-3.3-7.9-3.3h-6.4v4.9h6.9c1.4,0,2.9,0.7,3.8,1.7c0.8,1.1,1.2,2.3,1.2,4.2v9.5h-15.6l-1.9,4.9
	h32.4l1.2-3c2.4,2.4,5.8,3.8,9.7,3.8c7.4,0,13.1-5.9,13.1-13.4C626.5,399.9,620.8,394,613.4,394 M613.3,416c-4.9,0-8.6-3.7-8.6-8.5
	c0-5,3.6-8.6,8.6-8.6c4.7,0,8.3,3.8,8.3,8.6C621.7,412.2,618,416,613.3,416 M495.2,386.8v33.3h4.9v-35.8h-2.4
	C496.3,384.3,495.2,385.4,495.2,386.8 M418.2,404h-6.9V403c0-1.2,0.3-1.8,1.8-1.8h3.3v-3.4H413c-3.8,0-5.7,2-5.7,6v3.9h9.4
	L418.2,404z M483.4,386.8v28.4h-10.1c1.5-2.2,2.3-4.8,2.3-7.7c0-7.6-5.8-13.5-13.1-13.5c-7.9,0-13.6,5.7-13.6,13.5
	c0,2.9,0.8,5.5,2.3,7.7h-9.8v-30.9h-2.4c-1.4,0-2.5,1.1-2.5,2.5v28.4h-8.8v-30.9h-2.4c-1.4,0-2.5,1.1-2.5,2.5v28.4h-17
	c-4.9,0-8.6-3.7-8.6-8.5c0-4.1,2.5-7.3,6.1-8.3l-1.8-4.6c-5.5,1.7-9.2,6.6-9.2,12.9c0,7.6,5.9,13.4,13.6,13.4h45.7l1.2-3
	c2.4,2.4,5.8,3.8,9.7,3.8c3.6,0,6.8-1.4,9.1-3.7l1.1,2.9h15.5v-35.8H486C484.6,384.3,483.4,385.4,483.4,386.8 M462.5,416
	c-4.9,0-8.6-3.7-8.6-8.5c0-5,3.6-8.6,8.6-8.6c4.7,0,8.3,3.8,8.3,8.6C470.8,412.2,467.1,416,462.5,416"/>
<path class="st0" d="M604.5,315.8c0,0-10.2,15.7-29.5,15.7c-19.4,0-33.7-17.4-33.7-40.6c0-23.1,14.9-40,33.7-40
	c18.7,0,28.5,15,28.5,15l22.2-18.6c0,0-14.4-25-50.3-25c-35.9,0-64.4,29.4-64.4,69s27.6,69,63.2,69c35.5,0,52.5-27.5,52.5-27.5
	L604.5,315.8z M444.5,303.3h34.6l9.4-24h-44v-27.8h55.7l10.3-26.2h-83.9c-5.5,0-11.1,4.3-11.1,11.1v120.9h89.4l10.3-26.4h-70.7
	V303.3z M339.2,225.3c-6.7,0-11.9,4.7-13.8,9.4c-1.6,4.1-35.2,90.3-45.1,115.6l-36-59l40.3-66h-25.2c-5.5,0-10.2,3.1-12.7,7.1
	c-2.4,4-36,58.9-36,58.9l40.3,66h57l8.6-23.7h34.5l9.4-24h-35.2l18.8-51.9l35.9,99.6h31.4l-51.6-132H339.2z M179.5,236.4v120.9h29.4
	v-132h-18.3C184.8,225.3,179.5,229.9,179.5,236.4"/>
<g>
	<defs>
		<path id="SVGID_1_" d="M26.5,357.3h132V334h-132V357.3z M42.3,325.4c-0.8,0.1-0.7,0.8,0,0.8h116.2V316
			C158.5,316,42.6,325.3,42.3,325.4 M43.3,318c-0.7,0.1-0.6,0.9,0,0.9c0.2,0,115.2-11.1,115.2-11.1v-11.6
			C158.5,296.2,43.7,317.9,43.3,318 M42.2,310.9c-0.7,0.2-0.4,1,0.2,0.9c0.4-0.1,116.2-23.6,116.2-23.6V277
			C158.5,277,42.6,310.8,42.2,310.9 M38.6,304.2c-0.7,0.3-0.4,1.3,0.4,1.1c0.5-0.1,119.6-36.5,119.6-36.5v-11.5
			C158.5,257.3,39,304.1,38.6,304.2 M26.5,225.3v77l132-53.9v-23.1H26.5z"/>
	</defs>
	<clipPath id="SVGID_2_">
		<use xlink:href="#SVGID_1_"  style="overflow:visible;"/>
	</clipPath>
	
		<linearGradient id="SVGID_3_" gradientUnits="userSpaceOnUse" x1="-319.5027" y1="766.2362" x2="-312.8273" y2="766.2362" gradientTransform="matrix(19.2542 -15.5362 -15.5362 -19.2542 18084.9531 10132.0635)">
		<stop  offset="0" style="stop-color:#7DC357"/>
		<stop  offset="0.2112" style="stop-color:#6FAF6D"/>
		<stop  offset="0.7404" style="stop-color:#4F7FA1"/>
		<stop  offset="1" style="stop-color:#426DB5"/>
	</linearGradient>
	<polygon class="st1" points="-38,277.3 106.5,160.7 223,305.2 78.6,421.8 	"/>
</g>
</svg>
